<svg width="24" height="16" viewBox="0 0 24 16" fill="none" xmlns="http://www.w3.org/2000/svg">
<g clip-path="url(#clip0_10_87)">
<path d="M0 1.33332C0 2.13332 4.93333 2.66666 12 2.66666C19.0667 2.66666 24 2.13332 24 1.33332C24 0.533323 19.0667 -1.0252e-05 12 -1.0252e-05C4.93333 -1.0252e-05 0 0.533323 0 1.33332Z" fill="#24385D"/>
<path d="M0 8.00001C0 8.80001 4.93333 9.33334 12 9.33334C19.0667 9.33334 24 8.80001 24 8.00001C24 7.20001 19.0667 6.66668 12 6.66668C4.93333 6.66668 0 7.20001 0 8.00001Z" fill="#24385D"/>
<path d="M0 14.6667C0 15.4667 4.93333 16 12 16C19.0667 16 24 15.4667 24 14.6667C24 13.8667 19.0667 13.3333 12 13.3333C4.93333 13.3333 0 13.8667 0 14.6667Z" fill="#24385D"/>
</g>
<defs>
<clipPath id="clip0_10_87">
<rect width="24" height="16" fill="white"/>
</clipPath>
</defs>
</svg>
