<svg width="243" height="38" viewBox="0 0 243 38" fill="none" xmlns="http://www.w3.org/2000/svg">
<g clip-path="url(#clip0_8_61)">
<path d="M36.3365 0.818443C24.1297 3.56614 14.194 11.1661 14.194 17.8308C14.194 19.7015 16.0108 23.0338 17.7708 24.2615C19.9851 25.84 20.1554 25.1969 18.0547 23.2092C15.3863 20.6954 14.9321 18.7661 16.1811 15.4923C18.0547 10.3477 26.344 4.67691 34.9171 2.57229C37.1314 2.1046 41.2192 1.63691 44.058 1.57845C48.2594 1.57845 49.6788 1.81229 51.7795 2.8646C54.5047 4.20921 56.208 6.78152 56.208 9.47075C56.1512 13.7384 51.0982 19.4677 45.4774 21.6892C42.4115 22.9169 34.6332 23.9692 34.6332 23.1508C34.6332 22.9169 35.0874 21.8061 35.712 20.5784C36.2797 19.4092 37.0746 17.3631 37.472 16.0769C37.8694 14.7908 39.2321 12.2184 40.4243 10.3477C43.2631 6.02152 42.9225 4.55998 40.0269 8.65229C37.983 11.6338 37.8694 11.6923 37.0746 10.5231C36.6204 9.87998 35.8255 9.35383 35.3145 9.35383C34.5764 9.35383 34.6332 9.52921 35.6552 10.2892C36.3365 10.7569 36.9042 11.6338 36.9042 12.2184C36.9042 12.9784 32.3622 20.5784 30.9428 22.0984C30.5454 22.5661 27.593 19.4092 26.5711 17.3631C25.8898 16.0184 25.2652 15.2 25.1517 15.6092C24.811 16.6031 26.6278 19.9354 28.5014 21.7477L30.0912 23.2677L26.6846 28.88C24.811 31.9784 23.1078 35.3692 22.8807 36.4215L22.54 38.2923L24.9246 35.9538C26.2304 34.7261 28.6718 31.6277 30.4318 29.1723L33.6113 24.6708L38.5507 24.4369C44.058 24.2031 49.1678 22.1569 52.915 18.7661C57.1732 14.9661 58.5358 9.00306 56.0944 5.26152C53.1989 0.935368 44.6825 -0.993866 36.3365 0.818443ZM34.2358 20.9877C33.668 21.9815 32.9867 22.8 32.7028 22.8C32.4757 22.8 32.5893 22.2154 33.0435 21.4554C33.4977 20.7538 34.0655 19.8184 34.2926 19.4092C34.5764 19 34.8603 18.7661 34.9739 18.8831C35.1442 19 34.8035 19.9354 34.2358 20.9877ZM31.5106 25.5477C30.4318 27.3015 26.855 32.0954 25.8898 33.0308C25.2652 33.6738 26.5143 31.5692 29.4099 27.0092C30.4886 25.3723 31.6241 23.9692 31.9648 23.9692C32.2486 23.9692 32.0215 24.6708 31.5106 25.5477Z" fill="#24385D"/>
<path d="M160.505 3.50767C158.972 4.50151 155.225 7.77536 152.216 10.8154L146.708 16.3107L143.132 15.2C138.646 13.7384 130.925 13.6215 126.61 14.9661C123.43 15.9015 119.797 19 119.797 20.6369C119.797 22.1569 122.522 23.8523 125.645 24.32C127.234 24.5538 130.868 24.9046 133.707 25.08L138.76 25.4307L133.309 31.1015C130.3 34.2584 127.405 36.8307 126.837 36.8307C125.985 36.8307 125.929 36.9477 126.553 37.3569C127.972 38.2923 129.449 37.24 135.126 31.2184L140.804 25.1384H147.901H154.998L156.133 27.5354C156.871 28.9384 157.496 31.6277 157.666 33.9661C157.893 36.4215 158.234 37.8246 158.518 37.5323C158.802 37.24 159.994 34.3754 161.186 31.2184L163.4 25.4307L165.728 25.2554L168.113 25.08L167.204 26.8923C165.728 29.8154 166.75 29.7569 169.305 26.7169C171.463 24.0277 171.633 23.9692 172.655 24.9046C173.223 25.4307 174.188 25.7231 174.756 25.6061C175.721 25.3138 175.834 25.5477 175.55 27.8277C175.38 29.7569 175.494 30.4 176.061 30.4584C177.594 30.5754 178.503 30.2831 180.49 28.9384C182.42 27.5354 182.477 27.5354 183.215 28.6461C184.237 30.1077 186.395 30.1077 189.461 28.6461C190.823 28.0615 191.845 27.7107 191.845 27.9446C191.618 29.4061 192.243 28.9969 195.025 26.0154C198.147 22.6831 199.453 22.0984 198.147 24.5538C197.807 25.1969 197.579 26.1907 197.693 26.6584C197.807 27.4184 198.09 27.4184 199.396 26.3661C200.986 25.0215 201.838 24.7877 201.27 25.7815C201.043 26.0738 201.043 27.0677 201.213 27.8861C201.554 29.1138 201.838 29.2892 203.087 28.9384C204.847 28.5292 207.799 26.4831 207.799 25.7231C207.799 25.4307 206.72 25.84 205.415 26.6C204.052 27.4184 202.803 28.0615 202.576 28.0615C202.292 28.0615 202.122 27.1261 202.122 25.9569C202.122 24.0277 202.008 23.8523 200.759 24.0861C199.907 24.2615 199.453 24.1446 199.623 23.7354C199.737 23.3846 199.623 22.7415 199.34 22.2738C198.942 21.6307 198.658 21.6307 197.523 22.2738C196.785 22.6831 195.876 22.9754 195.479 22.9169C195.081 22.8 194.514 23.3261 194.173 23.9692C193.435 25.3723 187.19 28.6461 185.259 28.6461C183.045 28.6461 183.613 26.4831 185.884 26.0738C188.268 25.6061 190.539 23.8523 189.972 22.9169C189.233 21.6892 187.019 22.1569 184.748 23.9692C183.556 24.9046 181.512 26.4831 180.32 27.4769C175.323 31.4523 175.04 28.3538 179.809 22.3323C182.875 18.4154 184.351 17.8307 190.426 18.24C192.356 18.3569 193.548 18.1815 193.435 17.8307C193.321 17.48 191.164 17.2461 188.609 17.2461C186.054 17.3046 183.953 17.2461 183.953 17.1292C183.953 17.0707 184.691 15.7261 185.6 14.2061C187.757 10.5231 188.268 8.76921 187.19 8.76921C186.168 8.76921 184.294 10.9907 181.909 14.8492C180.433 17.3046 179.979 17.5969 177.594 17.8892C176.061 18.1231 174.869 18.5323 174.869 18.8246C174.869 19.1754 175.834 19.2338 177.197 19L179.468 18.5907L178.333 20.9877C176.572 24.4369 173.393 25.84 172.768 23.3846C172.598 22.7415 172.257 22.3907 171.974 22.5661C171.69 22.7415 171.463 22.3907 171.463 21.8061C171.406 20.8707 171.292 20.9292 170.384 22.04C169.532 23.0923 168.681 23.3846 166.637 23.3846C164.309 23.3846 164.025 23.2677 164.366 22.3907C165.501 19.2338 167.488 9.9969 167.488 7.65844C167.488 1.87075 165.104 0.46767 160.505 3.50767ZM165.672 3.62459C166.977 4.96921 166.296 10.6984 163.798 19.6431L162.833 23.2677L159.086 23.5015L155.338 23.7354L153.067 21.3384C151.761 19.9938 150.115 18.4738 149.377 17.9477C148.014 17.0123 148.014 16.9538 149.093 15.7261C151.478 12.92 160.675 4.79382 162.492 3.9169C164.763 2.74767 164.82 2.74767 165.672 3.62459ZM184.294 14.2646C183.158 16.0769 182.08 17.5384 181.909 17.5384C181.739 17.5384 182.023 16.8369 182.591 15.9015C183.102 15.0246 184.124 13.5046 184.748 12.4523C185.373 11.4584 185.997 10.6984 186.111 10.8154C186.224 10.9323 185.429 12.4523 184.294 14.2646ZM141.655 16.0769C143.529 16.6031 145.119 17.1292 145.232 17.2461C145.403 17.3631 144.267 19 142.734 20.8123L140.009 24.0861L133.707 23.7354C126.723 23.2677 121.67 22.4492 121.159 21.5723C120.648 20.6954 122.465 18.24 124.396 17.2461C128.256 15.1415 136.205 14.6154 141.655 16.0769ZM148.355 18.7661C149.888 19.5846 153.294 22.8584 153.294 23.5015C153.294 23.7354 150.683 23.9692 147.56 23.9692H141.769L144.267 21.1046C145.63 19.5261 146.822 18.24 146.936 18.1815C147.049 18.1231 147.674 18.4154 148.355 18.7661ZM188.268 23.9107C188.098 24.2031 187.417 24.5538 186.792 24.7292C185.827 24.9631 185.713 24.9046 186.281 24.2031C186.962 23.3261 188.779 23.0338 188.268 23.9107ZM161.811 25.6061C161.811 25.8984 161.186 27.6523 160.448 29.5815C159.369 32.3292 158.972 32.7969 158.688 31.8615C158.518 31.2184 157.893 29.4646 157.269 27.8861L156.247 25.1384H159.029C160.562 25.1384 161.811 25.3723 161.811 25.6061Z" fill="#24385D"/>
<path d="M87.5481 12.1015C86.3559 13.9723 84.028 17.7723 82.4383 20.5784C79.8266 25.0215 79.0886 25.84 76.5337 27.1261C73.4678 28.7046 70.4019 29.1138 70.4019 28.0031C70.4019 27.6523 71.4806 26.2492 72.7865 24.9046C74.7168 22.9754 75.2278 22.6831 75.3981 23.5015C75.682 25.08 76.6472 24.7877 76.6472 23.1507C76.6472 21.0461 75.9091 20.8707 73.7516 22.5077C66.5411 27.8861 65.7463 28.12 65.2921 25.1384C65.0082 23.2677 64.8379 23.0923 63.1346 23.1507C62.1126 23.2092 61.3178 22.9754 61.3178 22.5661C61.261 22.2154 60.75 22.5661 60.1255 23.3846C57.7409 26.3077 52.2337 29.2307 52.2337 27.5938C52.2337 27.36 52.8582 26.1907 53.6531 25.0215C55.186 22.6831 55.3563 22.2154 54.5047 22.2154C53.6531 22.2154 51.0981 26.4246 51.0981 27.8277C51.0981 29.6984 52.6879 29.9907 55.2428 28.6461C56.946 27.7107 57.4002 27.6523 57.1731 28.2954C56.5486 29.9907 57.457 29.5815 60.1255 26.7754C63.1346 23.6769 64.1566 23.3261 64.1566 25.3138C64.1566 26.0738 64.4972 27.1261 64.8946 27.7692C65.5759 28.6461 65.9734 28.7046 67.4495 28.1784C68.9257 27.6523 69.2096 27.7107 69.4367 28.7046C69.8341 30.1661 72.7297 30.1661 75.9091 28.7046C77.7259 27.8277 78.2369 27.7692 77.953 28.4123C77.3853 29.9907 78.6911 29.2307 81.4731 26.3077C83.0061 24.6707 84.4823 23.3846 84.7094 23.3846C84.9365 23.3846 85.1636 24.0861 85.1636 24.9631C85.1636 27.7107 85.9584 28.4707 88.0591 27.6523C89.5353 27.0677 89.9895 27.0677 90.6708 27.7692C91.6928 28.88 91.9766 28.88 93.4528 27.8277C94.4748 27.0677 94.7019 27.0677 95.5535 28.12C96.4619 29.1723 96.6323 29.1723 98.5626 28.3538C101.174 27.2431 101.231 27.2431 100.493 28.7046C100.152 29.3477 99.982 30.1661 100.096 30.5754C100.209 30.9846 100.72 30.4584 101.231 29.4061C102.139 27.5938 102.196 27.5938 103.9 28.4123C105.432 29.2307 105.943 29.2307 108.612 28.4123C110.315 27.8861 112.132 26.9507 112.7 26.3077C114.006 24.7877 113.551 24.8461 110.542 26.3661C108.214 27.5938 104.354 28.12 103.559 27.36C102.707 26.4246 103.956 25.1969 106.682 24.2615C108.271 23.7354 109.577 23.0338 109.577 22.7415C109.577 22.04 108.896 22.0984 106.965 22.8C105.205 23.5015 104.978 23.8523 109.747 17.8892C112.643 14.2646 115.141 9.64613 114.573 9.00305C113.324 7.7169 109.975 11.6923 104.978 20.4031C102.423 24.8461 99.5278 27.4769 97.2568 27.4769C95.6671 27.4769 95.6671 27.2431 97.0865 25.1384C98.8465 22.6246 97.7678 22.6246 94.7587 25.2554C91.636 27.9446 90.5005 27.8277 92.4876 25.08C93.2257 24.0861 93.6799 23.1507 93.5096 23.0338C93.396 22.8584 91.9199 23.6769 90.2734 24.8461C86.7533 27.2431 86.2991 27.36 86.2991 25.4892C86.2991 23.4431 85.7313 22.2154 84.8229 22.2154C84.3119 22.2154 84.8797 21.0461 86.3559 19.1754C88.854 15.9015 91.4089 11.1077 91.4089 9.64613C91.4089 7.77536 89.6488 8.88613 87.5481 12.1015ZM111.337 13.8554C108.839 17.5969 106.398 20.6954 107.079 19.2923C108.044 17.3631 113.154 9.93844 113.381 10.1723C113.551 10.2892 112.643 11.9846 111.337 13.8554ZM88.7972 13.3877C87.8888 14.9661 86.4694 17.1292 85.561 18.24C84.1984 19.8769 84.2551 19.6431 86.072 16.6615C89.1379 11.5754 89.8192 10.5231 90.103 10.5231C90.2166 10.5231 89.6488 11.8092 88.7972 13.3877Z" fill="#24385D"/>
<path d="M225.797 18.9415C215.407 30.7507 214.442 31.92 214.726 32.7969C214.839 33.1477 217.735 30.2246 221.141 26.2492C224.605 22.2738 229.26 17.0123 231.474 14.5569C235.222 10.5231 236.357 8.71075 235.222 8.76921C234.938 8.82767 230.736 13.3877 225.797 18.9415Z" fill="#24385D"/>
<path d="M5.96143 19.2338C2.89555 21.1046 0.283865 22.8584 0.170313 23.1507C0.056762 23.4431 1.41938 25.1384 3.12265 26.8923C4.82592 28.6461 6.24531 29.6984 6.24531 29.2307C6.24531 28.7631 5.22335 27.3015 3.91751 25.9569L1.58971 23.5015L5.73433 21.0461C11.8661 17.4215 12.4906 17.0123 12.4906 16.3692C12.4906 15.4338 11.9229 15.6677 5.96143 19.2338Z" fill="#24385D"/>
<path d="M237.322 16.2523C237.322 16.72 238.231 18.1231 239.31 19.4677C240.388 20.7538 241.297 21.9815 241.297 22.1569C241.297 22.3323 238.855 23.9108 235.903 25.6061C231.247 28.2954 229.487 29.8154 230.907 29.8154C232.042 29.8154 243 22.9754 243 22.2154C242.943 21.7477 241.694 20.0523 240.161 18.4154C238.572 16.8369 237.322 15.8431 237.322 16.2523Z" fill="#24385D"/>
<path d="M56.3214 18.8246C55.413 19.76 55.4698 20.4615 56.3782 20.4615C56.7756 20.4615 57.4002 19.9354 57.7976 19.2923C58.3654 18.3569 58.3654 18.1231 57.7408 18.1231C57.3434 18.1231 56.7189 18.4154 56.3214 18.8246Z" fill="#24385D"/>
</g>
<defs>
<clipPath id="clip0_8_61">
<rect width="243" height="38" fill="white"/>
</clipPath>
</defs>
</svg>
