<svg width="512" height="512" viewBox="0 0 512 512" fill="none" xmlns="http://www.w3.org/2000/svg">
<path d="M25.0047 512.003C20.0595 512.004 15.2251 510.539 11.113 507.792C7.00089 505.045 3.79586 501.14 1.90328 496.571C0.0107092 492.002 -0.484382 486.975 0.480634 482.125C1.44565 477.275 3.82742 472.82 7.32467 469.323L469.325 7.3233C474.014 2.63427 480.373 0 487.005 0C493.636 0 499.996 2.63427 504.685 7.3233C509.374 12.0123 512.008 18.372 512.008 25.0033C512.008 31.6346 509.374 37.9943 504.685 42.6833L42.6847 504.683C40.365 507.008 37.609 508.851 34.575 510.107C31.5409 511.363 28.2885 512.008 25.0047 512.003Z" fill="black"/>
<path d="M487.005 512.003C483.721 512.008 480.469 511.363 477.434 510.107C474.4 508.851 471.644 507.008 469.325 504.683L7.32476 42.6833C2.63573 37.9943 0.00146484 31.6346 0.00146484 25.0033C0.00146484 18.372 2.63573 12.0123 7.32476 7.3233C12.0138 2.63427 18.3735 0 25.0048 0C31.636 0 37.9957 2.63427 42.6848 7.3233L504.685 469.323C508.182 472.82 510.564 477.275 511.529 482.125C512.494 486.975 511.999 492.002 510.106 496.571C508.214 501.14 505.009 505.045 500.896 507.792C496.784 510.539 491.95 512.004 487.005 512.003Z" fill="black"/>
</svg>
