<svg width="744" height="573" viewBox="0 0 744 573" fill="none" xmlns="http://www.w3.org/2000/svg">
<path d="M191.927 123.971C185.942 120.979 182.634 115.465 184.539 111.656C186.444 107.847 192.839 107.185 198.827 110.179C201.235 111.343 203.329 113.066 204.935 115.204L230.136 128.203L223.784 139.899L199.615 125.843C196.94 125.842 194.304 125.2 191.927 123.971Z" fill="#FFB6B6"/>
<path d="M334.712 426.339L322.716 426.338L317.01 380.067L334.715 380.068L334.712 426.339Z" fill="#FFB6B6"/>
<path d="M293.613 426.067C293.239 426.696 293.042 428.726 293.042 429.458C293.042 431.706 294.865 433.529 297.113 433.529H334.264C335.798 433.529 337.041 432.286 337.041 430.752V429.205C337.041 429.205 338.879 424.556 335.095 418.827C335.095 418.827 330.393 423.313 323.366 416.286L321.294 412.532L306.294 423.502L297.98 424.526C296.161 424.749 294.548 424.491 293.613 426.067Z" fill="#2F2E41"/>
<path d="M315.875 375.461L305.222 380.976L278.88 342.509L294.604 334.37L315.875 375.461Z" fill="#FFB6B6"/>
<path d="M279.252 394.116C279.209 394.846 279.968 396.74 280.304 397.39C281.338 399.387 283.795 400.167 285.792 399.133L318.783 382.053C320.145 381.348 320.677 379.672 319.972 378.309L319.261 376.936C319.261 376.936 318.756 371.963 312.761 368.614C312.761 368.614 310.648 374.76 301.177 371.751L297.611 369.37L289.334 386.008L282.422 390.74C280.909 391.775 279.358 392.287 279.252 394.116Z" fill="#2F2E41"/>
<path d="M346.895 59.0718H315.435L316.122 69.3295L295.607 134.722L291.76 178.318L330.226 184.729L348.177 103.949L344.331 66.7651L346.895 59.0718Z" fill="#24385D"/>
<path d="M344.972 67.4061L378.309 84.0749L357.794 153.314L361.64 223.836C361.64 223.836 309.07 240.505 311.634 193.063C314.198 145.621 314.198 137.928 314.198 137.928L344.972 67.4061Z" fill="#2F2E41"/>
<path d="M291.76 76.0434C291.76 76.0434 283.425 69.9706 279.579 78.9461C275.732 87.9216 250.729 133.44 250.729 133.44L211.622 116.13L205.21 130.235C205.21 130.235 237.266 161.008 256.499 157.161C275.732 153.314 291.119 119.977 291.119 119.977L291.76 76.0434Z" fill="#2F2E41"/>
<path d="M357.794 211.014C357.794 211.014 359.076 231.529 356.512 248.198C353.947 264.867 336.637 406.551 336.637 406.551L314.84 405.269L312.917 239.222L282.143 287.946L309.07 361.033L290.478 369.367L251.37 289.229L278.297 198.192L285.99 175.112L343.69 181.523L357.794 211.014Z" fill="#2F2E41"/>
<path d="M271.886 216.143C271.886 216.143 306.505 226.4 314.199 137.928L315.939 66.592L283.426 75.0993L287.272 139.21L271.886 216.143Z" fill="#2F2E41"/>
<path d="M330.867 50.7374C318.121 50.7374 307.788 40.4042 307.788 27.6576C307.788 14.9109 318.121 4.57776 330.867 4.57776C343.614 4.57776 353.947 14.9109 353.947 27.6576C353.947 40.4042 343.614 50.7374 330.867 50.7374Z" fill="#FFB6B6"/>
<path d="M345.613 50.0963C345.613 50.0963 355.871 38.5564 357.153 33.4275C358.435 28.2987 358.435 14.1943 357.153 12.9121C355.871 11.6299 341.766 -1.19221 336.637 0.0899941C331.509 1.3722 321.342 7.78326 312.275 7.78326C309.711 7.78326 308.429 20.6054 308.429 20.6054L318.686 21.8876C318.686 21.8876 331.509 15.4765 330.226 21.8876C328.944 28.2987 339.202 28.2987 339.202 28.2987L337.92 33.4275L341.766 34.7097L344.331 29.5809C344.331 29.5809 343.049 41.1208 339.202 46.2496C335.355 51.3785 345.613 50.0963 345.613 50.0963Z" fill="#2F2E41"/>
<path d="M355.832 234.712C352.313 240.404 346.524 243.202 342.902 240.962C339.28 238.722 339.197 232.293 342.718 226.6C344.093 224.306 345.998 222.375 348.272 220.968L363.486 197.039L374.563 204.418L358.389 227.224C358.147 229.889 357.27 232.456 355.832 234.712Z" fill="#FFB6B6"/>
<path d="M373.18 84.075H379.591C379.591 84.075 405.236 141.774 403.953 153.314C403.953 153.314 403.953 163.572 397.542 171.265C391.131 178.959 364.205 222.554 364.205 222.554L352.665 213.578L375.745 159.725L361.64 103.308L373.18 84.075Z" fill="#2F2E41"/>
<path d="M112.242 101.172C115.556 101.172 118.242 98.4856 118.242 95.1719C118.242 91.8582 115.556 89.1719 112.242 89.1719C108.929 89.1719 106.242 91.8582 106.242 95.1719C106.242 98.4856 108.929 101.172 112.242 101.172Z" fill="#3F3D56"/>
<path d="M474.114 437.286V567.286H148.415C111.306 567.286 81.1143 538.126 81.1143 502.286C81.1143 466.446 111.306 437.286 148.415 437.286H474.114Z" fill="#F2F2F2"/>
<path d="M482.114 566.286C482.114 567.612 481.587 568.884 480.649 569.821C479.712 570.759 478.44 571.286 477.114 571.286H142.614C124.447 571.286 107.024 564.069 94.1775 551.223C81.3312 538.377 74.1143 520.953 74.1143 502.786C74.1143 484.619 81.3312 467.196 94.1775 454.349C107.024 441.503 124.447 434.286 142.614 434.286H477.114C478.44 434.286 479.712 434.813 480.65 435.751C481.587 436.688 482.114 437.96 482.114 439.286C482.114 440.612 481.587 441.884 480.65 442.822C479.712 443.759 478.44 444.286 477.114 444.286H142.614C127.099 444.286 112.219 450.45 101.249 461.42C90.2776 472.391 84.1143 487.271 84.1143 502.786C84.1143 518.301 90.2776 533.181 101.249 544.152C112.219 555.123 127.099 561.286 142.614 561.286H477.114C478.44 561.287 479.712 561.814 480.649 562.751C481.587 563.689 482.114 564.96 482.114 566.286Z" fill="#24385D"/>
<path d="M474.114 467.286H124.114C123.849 467.286 123.595 467.181 123.407 466.993C123.22 466.806 123.114 466.551 123.114 466.286C123.114 466.021 123.22 465.767 123.407 465.579C123.595 465.392 123.849 465.286 124.114 465.286H474.114C474.38 465.286 474.634 465.392 474.821 465.579C475.009 465.767 475.114 466.021 475.114 466.286C475.114 466.551 475.009 466.806 474.821 466.993C474.634 467.181 474.38 467.286 474.114 467.286Z" fill="#CCCCCC"/>
<path d="M474.114 491.286H124.114C123.849 491.286 123.595 491.181 123.407 490.993C123.22 490.806 123.114 490.551 123.114 490.286C123.114 490.021 123.22 489.767 123.407 489.579C123.595 489.392 123.849 489.286 124.114 489.286H474.114C474.38 489.286 474.634 489.392 474.821 489.579C475.009 489.767 475.114 490.021 475.114 490.286C475.114 490.551 475.009 490.806 474.821 490.993C474.634 491.181 474.38 491.286 474.114 491.286Z" fill="#CCCCCC"/>
<path d="M474.114 515.286H124.114C123.849 515.286 123.595 515.181 123.407 514.993C123.22 514.806 123.114 514.551 123.114 514.286C123.114 514.021 123.22 513.767 123.407 513.579C123.595 513.392 123.849 513.286 124.114 513.286H474.114C474.38 513.286 474.634 513.392 474.821 513.579C475.009 513.767 475.114 514.021 475.114 514.286C475.114 514.551 475.009 514.806 474.821 514.993C474.634 515.181 474.38 515.286 474.114 515.286Z" fill="#CCCCCC"/>
<path d="M474.114 539.286H124.114C123.849 539.286 123.595 539.181 123.407 538.993C123.22 538.806 123.114 538.551 123.114 538.286C123.114 538.021 123.22 537.767 123.407 537.579C123.595 537.392 123.849 537.286 124.114 537.286H474.114C474.38 537.286 474.634 537.392 474.821 537.579C475.009 537.767 475.114 538.021 475.114 538.286C475.114 538.551 475.009 538.806 474.821 538.993C474.634 539.181 474.38 539.286 474.114 539.286Z" fill="#CCCCCC"/>
<path d="M725.832 461.757L644.267 562.985L390.652 358.635C361.756 335.352 356.541 293.703 379.028 265.795C401.515 237.887 443.32 234.124 472.216 257.407L725.832 461.757Z" fill="#F2F2F2"/>
<path d="M651.124 567.226C650.291 568.258 649.083 568.917 647.765 569.059C646.447 569.201 645.126 568.814 644.093 567.982L383.625 358.11C369.478 346.711 360.439 330.16 358.496 312.097C356.553 294.034 361.865 275.938 373.263 261.792C384.662 247.645 401.213 238.606 419.277 236.663C437.34 234.72 455.435 240.032 469.581 251.431L730.05 461.303C730.562 461.715 730.987 462.223 731.302 462.8C731.617 463.376 731.816 464.009 731.886 464.662C731.957 465.315 731.898 465.976 731.713 466.606C731.528 467.236 731.221 467.824 730.809 468.335C730.396 468.847 729.887 469.272 729.311 469.587C728.734 469.902 728.102 470.1 727.448 470.17C726.795 470.24 726.135 470.18 725.505 469.995C724.874 469.81 724.287 469.502 723.776 469.09L463.307 259.217C457.325 254.394 450.452 250.796 443.08 248.629C435.707 246.463 427.98 245.77 420.34 246.59C412.699 247.411 405.295 249.728 398.551 253.411C391.806 257.093 385.854 262.068 381.032 268.052C376.211 274.035 372.616 280.91 370.452 288.283C368.288 295.657 367.599 303.384 368.422 311.024C369.245 318.664 371.566 326.067 375.251 332.81C378.936 339.553 383.913 345.504 389.899 350.323L650.367 560.195C651.4 561.028 652.059 562.236 652.201 563.554C652.343 564.872 651.955 566.193 651.124 567.226Z" fill="#CCCCCC"/>
<path d="M707.009 485.117L434.471 265.52C434.368 265.438 434.283 265.336 434.221 265.22C434.158 265.105 434.118 264.979 434.104 264.848C434.09 264.718 434.102 264.586 434.139 264.46C434.176 264.334 434.237 264.216 434.319 264.114C434.402 264.012 434.504 263.927 434.619 263.864C434.734 263.801 434.861 263.761 434.991 263.747C435.122 263.733 435.254 263.745 435.38 263.782C435.506 263.819 435.623 263.88 435.726 263.963L708.264 483.56C708.366 483.642 708.451 483.744 708.514 483.859C708.578 483.974 708.617 484.101 708.631 484.232C708.646 484.362 708.634 484.495 708.597 484.621C708.56 484.747 708.498 484.864 708.416 484.967C708.333 485.069 708.232 485.154 708.116 485.217C708.001 485.28 707.874 485.32 707.744 485.334C707.613 485.348 707.481 485.336 707.355 485.299C707.229 485.261 707.111 485.2 707.009 485.117Z" fill="#CCCCCC"/>
<path d="M691.951 503.806L419.413 284.208C419.207 284.042 419.075 283.8 419.047 283.537C419.019 283.273 419.096 283.009 419.262 282.803C419.429 282.597 419.67 282.465 419.933 282.436C420.197 282.408 420.461 282.485 420.667 282.651L693.206 502.248C693.308 502.331 693.393 502.432 693.456 502.548C693.519 502.663 693.559 502.789 693.573 502.92C693.587 503.051 693.576 503.183 693.539 503.309C693.502 503.435 693.44 503.553 693.358 503.655C693.275 503.758 693.174 503.843 693.058 503.906C692.943 503.969 692.816 504.008 692.685 504.022C692.555 504.036 692.423 504.024 692.297 503.987C692.17 503.95 692.053 503.888 691.951 503.806Z" fill="#CCCCCC"/>
<path d="M676.893 522.494L404.355 302.897C404.148 302.73 404.016 302.489 403.988 302.225C403.959 301.961 404.037 301.697 404.203 301.491C404.37 301.284 404.611 301.152 404.875 301.124C405.139 301.095 405.403 301.173 405.609 301.339L678.147 520.937C678.25 521.019 678.335 521.121 678.398 521.236C678.461 521.351 678.5 521.478 678.514 521.608C678.528 521.739 678.517 521.871 678.48 521.997C678.443 522.123 678.381 522.24 678.299 522.343C678.216 522.445 678.115 522.53 677.999 522.593C677.884 522.656 677.758 522.695 677.627 522.71C677.496 522.724 677.364 522.712 677.238 522.675C677.112 522.638 676.995 522.576 676.893 522.494Z" fill="#CCCCCC"/>
<path d="M661.835 541.182L389.296 321.585C389.194 321.502 389.109 321.401 389.046 321.285C388.983 321.17 388.944 321.044 388.93 320.913C388.916 320.783 388.927 320.65 388.964 320.524C389.001 320.398 389.063 320.281 389.145 320.179C389.228 320.076 389.329 319.991 389.445 319.929C389.56 319.866 389.686 319.826 389.817 319.812C389.947 319.798 390.079 319.81 390.205 319.847C390.332 319.884 390.449 319.945 390.551 320.027L663.089 539.625C663.192 539.707 663.277 539.809 663.34 539.924C663.403 540.039 663.443 540.166 663.457 540.297C663.471 540.427 663.46 540.559 663.423 540.686C663.386 540.812 663.324 540.929 663.242 541.032C663.159 541.134 663.057 541.219 662.942 541.282C662.827 541.345 662.7 541.385 662.569 541.399C662.439 541.413 662.306 541.401 662.18 541.363C662.054 541.326 661.937 541.265 661.835 541.182Z" fill="#CCCCCC"/>
<path d="M743 572.286H1C0.734784 572.286 0.480429 572.181 0.292892 571.993C0.105356 571.805 0 571.551 0 571.286C0 571.021 0.105356 570.766 0.292892 570.579C0.480429 570.391 0.734784 570.286 1 570.286H743C743.265 570.286 743.52 570.391 743.707 570.579C743.895 570.766 744 571.021 744 571.286C744 571.551 743.895 571.805 743.707 571.993C743.52 572.181 743.265 572.286 743 572.286Z" fill="#CCCCCC"/>
<path d="M149.742 107.969C135.133 107.873 120.706 104.713 107.394 98.6941C106.602 98.3409 105.929 97.7649 105.458 97.0362C104.988 96.3075 104.739 95.4576 104.742 94.5901V58.1721C104.744 56.9791 105.218 55.8352 106.062 54.9916C106.906 54.148 108.049 53.6734 109.242 53.6721H190.242C191.436 53.6735 192.579 54.148 193.423 54.9916C194.267 55.8352 194.741 56.9791 194.742 58.1721V94.5901C194.746 95.4577 194.497 96.3075 194.026 97.0362C193.556 97.7649 192.883 98.3409 192.091 98.6941C178.779 104.713 164.352 107.873 149.742 107.969Z" fill="#24385D"/>
<path d="M149.731 78.4659C149.131 78.4664 148.536 78.3469 147.983 78.1143L83.7507 51.0147C82.9224 50.6653 82.2177 50.0757 81.7276 49.3221C81.2374 48.5684 80.9843 47.6853 81.0008 46.7864C81.0172 45.8875 81.3026 45.0142 81.82 44.279C82.3375 43.5439 83.0632 42.9805 83.9038 42.6617L148.137 18.294C149.171 17.8997 150.315 17.9021 151.348 18.3008L214.72 42.6685C215.556 42.9899 216.277 43.5534 216.79 44.2868C217.304 45.0202 217.587 45.8902 217.604 46.7855C217.621 47.6809 217.37 48.5608 216.883 49.3127C216.397 50.0646 215.697 50.6543 214.874 51.0064L151.501 78.1055C150.942 78.3438 150.34 78.4664 149.731 78.4659Z" fill="#24385D"/>
<path opacity="0.2" d="M215.093 47.1598L151.72 74.259C151.226 74.4702 150.694 74.5798 150.157 74.5811C149.62 74.5824 149.087 74.4754 148.592 74.2665L84.3604 47.1677C83.5538 46.8355 82.8808 46.244 82.4478 45.4866C82.1646 45.9778 81.9891 46.5235 81.933 47.0877C81.8768 47.6518 81.9414 48.2215 82.1222 48.7588C82.3031 49.2961 82.5962 49.7887 82.9821 50.2041C83.368 50.6194 83.8379 50.9479 84.3604 51.1677L148.592 78.2665C149.087 78.4754 149.62 78.5824 150.157 78.5811C150.694 78.5798 151.226 78.4702 151.72 78.259L215.093 51.1598C215.613 50.938 216.08 50.6085 216.463 50.193C216.846 49.7775 217.137 49.2854 217.316 48.7492C217.495 48.2131 217.558 47.6451 217.502 47.0827C217.445 46.5203 217.27 45.9763 216.987 45.4866C216.558 46.2379 215.892 46.8261 215.093 47.1598Z" fill="black"/>
<path d="M112.747 95.1484C113.012 95.1484 113.266 95.0431 113.454 94.8555C113.641 94.668 113.747 94.4136 113.747 94.1484V60.687L146.728 48.6719C146.993 48.6758 147.249 48.5743 147.439 48.3895C147.63 48.2048 147.739 47.952 147.743 47.6868C147.747 47.4216 147.645 47.1656 147.46 46.9753C147.276 46.785 147.023 46.6758 146.758 46.6719L113.776 58.687C113.511 58.6809 113.247 58.7287 113.001 58.8276C112.754 58.9265 112.531 59.0743 112.343 59.2622C112.153 59.4478 112.003 59.6695 111.901 59.9142C111.798 60.159 111.746 60.4217 111.747 60.687V94.1484C111.747 94.4136 111.852 94.668 112.039 94.8555C112.227 95.043 112.481 95.1484 112.747 95.1484Z" fill="#3F3D56"/>
</svg>
