<svg width="512" height="342" viewBox="0 0 512 342" fill="none" xmlns="http://www.w3.org/2000/svg">
<path d="M512 0H0V341.337H512V0Z" fill="#F0F0F0"/>
<path d="M512 42.6631H0V85.3261H512V42.6631Z" fill="#D80027"/>
<path d="M512 128H0V170.663H512V128Z" fill="#D80027"/>
<path d="M512 213.326H0V255.989H512V213.326Z" fill="#D80027"/>
<path d="M512 298.663H0V341.326H512V298.663Z" fill="#D80027"/>
<path d="M256 0H0V183.797H256V0Z" fill="#2E52B2"/>
<path d="M99.822 75.2931L95.699 87.9771H82.363L93.154 95.8121L89.031 108.495L99.822 100.66L110.606 108.495L106.484 95.8121L117.275 87.9771H103.938L99.822 75.2931Z" fill="#F0F0F0"/>
<path d="M103.938 133.749L99.822 121.066L95.699 133.749H82.363L93.154 141.585L89.031 154.268L99.822 146.432L110.606 154.268L106.484 141.585L117.275 133.749H103.938Z" fill="#F0F0F0"/>
<path d="M47.577 133.749L43.46 121.066L39.337 133.749H26.001L36.792 141.585L32.669 154.268L43.46 146.432L54.245 154.268L50.123 141.585L60.912 133.749H47.577Z" fill="#F0F0F0"/>
<path d="M43.46 75.2931L39.337 87.9771H26.001L36.792 95.8121L32.669 108.495L43.46 100.66L54.245 108.495L50.123 95.8121L60.912 87.9771H47.577L43.46 75.2931Z" fill="#F0F0F0"/>
<path d="M99.822 29.519L95.699 42.204H82.363L93.154 50.04L89.031 62.723L99.822 54.887L110.606 62.723L106.484 50.04L117.275 42.204H103.938L99.822 29.519Z" fill="#F0F0F0"/>
<path d="M43.46 29.519L39.337 42.204H26.001L36.792 50.04L32.669 62.723L43.46 54.887L54.245 62.723L50.123 50.04L60.912 42.204H47.577L43.46 29.519Z" fill="#F0F0F0"/>
<path d="M156.183 75.2931L152.061 87.9771H138.725L149.515 95.8121L145.394 108.495L156.183 100.66L166.969 108.495L162.846 95.8121L173.637 87.9771H160.301L156.183 75.2931Z" fill="#F0F0F0"/>
<path d="M160.301 133.749L156.183 121.066L152.061 133.749H138.725L149.515 141.585L145.394 154.268L156.183 146.432L166.969 154.268L162.846 141.585L173.637 133.749H160.301Z" fill="#F0F0F0"/>
<path d="M216.663 133.749L212.546 121.066L208.423 133.749H195.088L205.877 141.585L201.755 154.268L212.546 146.432L223.331 154.268L219.208 141.585L229.999 133.749H216.663Z" fill="#F0F0F0"/>
<path d="M212.546 75.2931L208.423 87.9771H195.088L205.877 95.8121L201.755 108.495L212.546 100.66L223.331 108.495L219.208 95.8121L229.999 87.9771H216.663L212.546 75.2931Z" fill="#F0F0F0"/>
<path d="M156.183 29.519L152.061 42.204H138.725L149.515 50.04L145.394 62.723L156.183 54.887L166.969 62.723L162.846 50.04L173.637 42.204H160.301L156.183 29.519Z" fill="#F0F0F0"/>
<path d="M212.546 29.519L208.423 42.204H195.088L205.877 50.04L201.755 62.723L212.546 54.887L223.331 62.723L219.208 50.04L229.999 42.204H216.663L212.546 29.519Z" fill="#F0F0F0"/>
</svg>
