<svg width="787" height="692" viewBox="0 0 787 692" fill="none" xmlns="http://www.w3.org/2000/svg">
<path d="M458.321 219.882C473.068 219.882 485.022 207.928 485.022 193.182C485.022 178.435 473.068 166.481 458.321 166.481C443.575 166.481 431.621 178.435 431.621 193.182C431.621 207.928 443.575 219.882 458.321 219.882Z" fill="#F2F2F2"/>
<path d="M665.448 616.152C705.135 585.923 724.091 535.126 712.224 486.669C711.929 485.465 711.618 484.264 711.29 483.066C703.423 454.302 683.959 426.965 655.59 417.774C631.771 410.057 605.771 415.992 580.921 412.923C532.139 406.899 494.32 367.429 467.71 326.104C441.099 284.778 420.648 238.52 385.288 204.379C327.003 148.104 231.926 135.988 159.661 172.619C87.3967 209.25 41.3649 290.519 43.328 371.514C45.2912 452.509 93.3743 529.946 163.203 571.031C188.855 586.124 218.524 596.816 248.051 593.075C273.671 589.829 296.95 576.062 322.45 571.975C362.541 565.55 402.377 583.676 437.052 604.799C471.728 625.922 505.223 650.959 544.627 660.752C582.888 670.26 630.29 642.93 665.448 616.152Z" fill="#F2F2F2"/>
<path d="M608.426 174.32C607.556 173.74 606.676 173.19 605.806 172.63C580.657 156.546 553.702 143.479 525.496 133.7L518.956 223.92H477.496V120.53C474.886 119.99 472.256 119.48 469.626 119V223.92H420.356C393.232 223.92 367.22 213.145 348.04 193.966C328.861 174.787 318.086 148.774 318.086 121.65C315.446 122.22 312.826 122.83 310.206 123.48V223.92H270.076L263.846 137.89C234.861 149.006 207.343 163.625 181.906 181.42C181.466 181.72 181.026 182.03 180.596 182.33C178.386 183.88 176.206 185.46 174.036 187.06V531.25H292.306L290.216 502.3L278.716 343.35H510.306L498.806 502.3L496.716 531.25H613.676V177.8C611.936 176.62 610.186 175.46 608.426 174.32ZM310.206 317.1H276.816L270.646 231.8H310.206V317.1ZM469.626 317.1H413.546V315.41C413.546 314.598 413.386 313.793 413.075 313.043C412.764 312.292 412.308 311.61 411.733 311.036C411.158 310.462 410.475 310.007 409.724 309.697C408.973 309.388 408.169 309.229 407.356 309.23H382.976C382.165 309.23 381.361 309.389 380.611 309.7C379.861 310.01 379.179 310.465 378.606 311.039C378.032 311.613 377.576 312.295 377.266 313.045C376.955 313.795 376.796 314.598 376.796 315.41V317.1H318.086V231.8H469.626V317.1ZM477.496 317.1V231.8H518.386L512.216 317.1H477.496Z" fill="#3F3D56"/>
<path d="M0 553.291C8.68725 563.585 18.0835 573.258 28.12 582.241L758.7 583.241C768.736 574.258 778.133 564.585 786.82 554.291L0 553.291Z" fill="#3F3D56"/>
<path d="M495.43 460.591V546.295C495.431 547.387 495.865 548.434 496.637 549.207C497.409 549.979 498.457 550.413 499.549 550.414H626.553C627.645 550.413 628.693 549.979 629.465 549.207C630.237 548.434 630.671 547.387 630.672 546.295V460.591C630.67 459.5 630.235 458.454 629.463 457.683C628.691 456.912 627.644 456.478 626.553 456.477H499.549C498.457 456.478 497.411 456.912 496.639 457.683C495.867 458.454 495.432 459.5 495.43 460.591Z" fill="#3F3D56"/>
<path d="M498.409 461.658V545.238C498.41 545.822 498.642 546.381 499.055 546.794C499.468 547.206 500.027 547.438 500.611 547.439H625.496C626.08 547.438 626.639 547.206 627.052 546.794C627.464 546.381 627.696 545.822 627.697 545.238V461.658C627.697 461.073 627.466 460.513 627.053 460.099C626.64 459.686 626.08 459.453 625.496 459.452H500.611C500.026 459.453 499.466 459.686 499.054 460.099C498.641 460.513 498.409 461.073 498.409 461.658Z" fill="#24385D"/>
<path d="M492.774 563.01C493.006 563.302 493.302 563.537 493.639 563.698C493.975 563.859 494.344 563.942 494.717 563.94H630.709C631.081 563.939 631.448 563.856 631.784 563.696C632.119 563.536 632.415 563.303 632.649 563.014C632.884 562.725 633.051 562.388 633.138 562.026C633.226 561.665 633.231 561.288 633.155 560.924L631.044 550.897C630.957 550.488 630.768 550.107 630.496 549.79C630.224 549.472 629.877 549.228 629.486 549.079C629.203 548.968 628.902 548.911 628.598 548.912H496.82C496.516 548.911 496.215 548.968 495.932 549.079C495.541 549.228 495.194 549.472 494.922 549.79C494.649 550.107 494.461 550.488 494.374 550.897L492.263 560.924C492.187 561.288 492.194 561.664 492.283 562.025C492.371 562.386 492.539 562.722 492.774 563.01Z" fill="#2F2E41"/>
<path d="M623.932 553.23H627.144C627.414 553.23 627.632 553.012 627.632 552.742V551.206C627.632 550.936 627.414 550.717 627.144 550.717H623.932C623.662 550.717 623.444 550.936 623.444 551.206V552.742C623.444 553.012 623.662 553.23 623.932 553.23Z" fill="#3F3D56"/>
<path d="M615.555 553.23H618.767C619.037 553.23 619.255 553.012 619.255 552.742V551.206C619.255 550.936 619.037 550.717 618.767 550.717H615.555C615.285 550.717 615.067 550.936 615.067 551.206V552.742C615.067 553.012 615.285 553.23 615.555 553.23Z" fill="#3F3D56"/>
<path d="M607.178 553.23H610.39C610.66 553.23 610.878 553.012 610.878 552.742V551.206C610.878 550.936 610.66 550.717 610.39 550.717H607.178C606.909 550.717 606.69 550.936 606.69 551.206V552.742C606.69 553.012 606.909 553.23 607.178 553.23Z" fill="#3F3D56"/>
<path d="M598.801 553.23H602.013C602.283 553.23 602.501 553.012 602.501 552.742V551.206C602.501 550.936 602.283 550.717 602.013 550.717H598.801C598.532 550.717 598.313 550.936 598.313 551.206V552.742C598.313 553.012 598.532 553.23 598.801 553.23Z" fill="#3F3D56"/>
<path d="M590.424 553.23H593.636C593.906 553.23 594.125 553.012 594.125 552.742V551.206C594.125 550.936 593.906 550.717 593.636 550.717H590.424C590.155 550.717 589.936 550.936 589.936 551.206V552.742C589.936 553.012 590.155 553.23 590.424 553.23Z" fill="#3F3D56"/>
<path d="M582.047 553.23H585.259C585.529 553.23 585.748 553.012 585.748 552.742V551.206C585.748 550.936 585.529 550.717 585.259 550.717H582.047C581.778 550.717 581.559 550.936 581.559 551.206V552.742C581.559 553.012 581.778 553.23 582.047 553.23Z" fill="#3F3D56"/>
<path d="M573.67 553.23H576.882C577.152 553.23 577.37 553.012 577.37 552.742V551.206C577.37 550.936 577.152 550.717 576.882 550.717H573.67C573.4 550.717 573.182 550.936 573.182 551.206V552.742C573.182 553.012 573.4 553.23 573.67 553.23Z" fill="#3F3D56"/>
<path d="M565.293 553.23H568.505C568.775 553.23 568.993 553.012 568.993 552.742V551.206C568.993 550.936 568.775 550.717 568.505 550.717H565.293C565.023 550.717 564.805 550.936 564.805 551.206V552.742C564.805 553.012 565.023 553.23 565.293 553.23Z" fill="#3F3D56"/>
<path d="M556.916 553.23H560.128C560.398 553.23 560.616 553.012 560.616 552.742V551.206C560.616 550.936 560.398 550.717 560.128 550.717H556.916C556.646 550.717 556.428 550.936 556.428 551.206V552.742C556.428 553.012 556.646 553.23 556.916 553.23Z" fill="#3F3D56"/>
<path d="M548.539 553.23H551.751C552.021 553.23 552.239 553.012 552.239 552.742V551.206C552.239 550.936 552.021 550.717 551.751 550.717H548.539C548.269 550.717 548.051 550.936 548.051 551.206V552.742C548.051 553.012 548.269 553.23 548.539 553.23Z" fill="#3F3D56"/>
<path d="M540.162 553.23H543.374C543.644 553.23 543.862 553.012 543.862 552.742V551.206C543.862 550.936 543.644 550.717 543.374 550.717H540.162C539.892 550.717 539.674 550.936 539.674 551.206V552.742C539.674 553.012 539.892 553.23 540.162 553.23Z" fill="#3F3D56"/>
<path d="M531.785 553.23H534.997C535.267 553.23 535.485 553.012 535.485 552.742V551.206C535.485 550.936 535.267 550.717 534.997 550.717H531.785C531.515 550.717 531.297 550.936 531.297 551.206V552.742C531.297 553.012 531.515 553.23 531.785 553.23Z" fill="#3F3D56"/>
<path d="M523.408 553.23H526.62C526.89 553.23 527.108 553.012 527.108 552.742V551.206C527.108 550.936 526.89 550.717 526.62 550.717H523.408C523.138 550.717 522.92 550.936 522.92 551.206V552.742C522.92 553.012 523.138 553.23 523.408 553.23Z" fill="#3F3D56"/>
<path d="M515.031 553.23H518.243C518.513 553.23 518.731 553.012 518.731 552.742V551.206C518.731 550.936 518.513 550.717 518.243 550.717H515.031C514.762 550.717 514.543 550.936 514.543 551.206V552.742C514.543 553.012 514.762 553.23 515.031 553.23Z" fill="#3F3D56"/>
<path d="M506.654 553.23H509.866C510.136 553.23 510.354 553.012 510.354 552.742V551.206C510.354 550.936 510.136 550.717 509.866 550.717H506.654C506.385 550.717 506.166 550.936 506.166 551.206V552.742C506.166 553.012 506.385 553.23 506.654 553.23Z" fill="#3F3D56"/>
<path d="M498.277 553.23H501.489C501.759 553.23 501.978 553.012 501.978 552.742V551.206C501.978 550.936 501.759 550.717 501.489 550.717H498.277C498.008 550.717 497.789 550.936 497.789 551.206V552.742C497.789 553.012 498.008 553.23 498.277 553.23Z" fill="#3F3D56"/>
<path d="M624.031 557.419H627.243C627.513 557.419 627.731 557.2 627.731 556.931V555.394C627.731 555.124 627.513 554.906 627.243 554.906H624.031C623.762 554.906 623.543 555.124 623.543 555.394V556.931C623.543 557.2 623.762 557.419 624.031 557.419Z" fill="#3F3D56"/>
<path d="M615.654 557.419H618.866C619.136 557.419 619.354 557.2 619.354 556.931V555.394C619.354 555.124 619.136 554.906 618.866 554.906H615.654C615.385 554.906 615.166 555.124 615.166 555.394V556.931C615.166 557.2 615.385 557.419 615.654 557.419Z" fill="#3F3D56"/>
<path d="M607.277 557.419H610.489C610.759 557.419 610.978 557.2 610.978 556.931V555.394C610.978 555.124 610.759 554.906 610.489 554.906H607.277C607.008 554.906 606.789 555.124 606.789 555.394V556.931C606.789 557.2 607.008 557.419 607.277 557.419Z" fill="#3F3D56"/>
<path d="M598.9 557.419H602.112C602.382 557.419 602.6 557.2 602.6 556.931V555.394C602.6 555.124 602.382 554.906 602.112 554.906H598.9C598.63 554.906 598.412 555.124 598.412 555.394V556.931C598.412 557.2 598.63 557.419 598.9 557.419Z" fill="#3F3D56"/>
<path d="M590.523 557.419H593.735C594.005 557.419 594.223 557.2 594.223 556.931V555.394C594.223 555.124 594.005 554.906 593.735 554.906H590.523C590.253 554.906 590.035 555.124 590.035 555.394V556.931C590.035 557.2 590.253 557.419 590.523 557.419Z" fill="#3F3D56"/>
<path d="M582.146 557.419H585.358C585.628 557.419 585.846 557.2 585.846 556.931V555.394C585.846 555.124 585.628 554.906 585.358 554.906H582.146C581.876 554.906 581.658 555.124 581.658 555.394V556.931C581.658 557.2 581.876 557.419 582.146 557.419Z" fill="#3F3D56"/>
<path d="M573.769 557.419H576.981C577.251 557.419 577.469 557.2 577.469 556.931V555.394C577.469 555.124 577.251 554.906 576.981 554.906H573.769C573.499 554.906 573.281 555.124 573.281 555.394V556.931C573.281 557.2 573.499 557.419 573.769 557.419Z" fill="#3F3D56"/>
<path d="M565.392 557.419H568.604C568.874 557.419 569.092 557.2 569.092 556.931V555.394C569.092 555.124 568.874 554.906 568.604 554.906H565.392C565.122 554.906 564.904 555.124 564.904 555.394V556.931C564.904 557.2 565.122 557.419 565.392 557.419Z" fill="#3F3D56"/>
<path d="M557.015 557.419H560.227C560.497 557.419 560.715 557.2 560.715 556.931V555.394C560.715 555.124 560.497 554.906 560.227 554.906H557.015C556.745 554.906 556.527 555.124 556.527 555.394V556.931C556.527 557.2 556.745 557.419 557.015 557.419Z" fill="#3F3D56"/>
<path d="M548.638 557.419H551.85C552.12 557.419 552.338 557.2 552.338 556.931V555.394C552.338 555.124 552.12 554.906 551.85 554.906H548.638C548.368 554.906 548.15 555.124 548.15 555.394V556.931C548.15 557.2 548.368 557.419 548.638 557.419Z" fill="#3F3D56"/>
<path d="M540.261 557.419H543.473C543.743 557.419 543.961 557.2 543.961 556.931V555.394C543.961 555.124 543.743 554.906 543.473 554.906H540.261C539.992 554.906 539.773 555.124 539.773 555.394V556.931C539.773 557.2 539.992 557.419 540.261 557.419Z" fill="#3F3D56"/>
<path d="M531.884 557.419H535.096C535.366 557.419 535.584 557.2 535.584 556.931V555.394C535.584 555.124 535.366 554.906 535.096 554.906H531.884C531.615 554.906 531.396 555.124 531.396 555.394V556.931C531.396 557.2 531.615 557.419 531.884 557.419Z" fill="#3F3D56"/>
<path d="M523.507 557.419H526.719C526.989 557.419 527.208 557.2 527.208 556.931V555.394C527.208 555.124 526.989 554.906 526.719 554.906H523.507C523.238 554.906 523.019 555.124 523.019 555.394V556.931C523.019 557.2 523.238 557.419 523.507 557.419Z" fill="#3F3D56"/>
<path d="M515.13 557.419H518.342C518.612 557.419 518.831 557.2 518.831 556.931V555.394C518.831 555.124 518.612 554.906 518.342 554.906H515.13C514.861 554.906 514.642 555.124 514.642 555.394V556.931C514.642 557.2 514.861 557.419 515.13 557.419Z" fill="#3F3D56"/>
<path d="M506.753 557.419H509.965C510.235 557.419 510.454 557.2 510.454 556.931V555.394C510.454 555.124 510.235 554.906 509.965 554.906H506.753C506.484 554.906 506.265 555.124 506.265 555.394V556.931C506.265 557.2 506.484 557.419 506.753 557.419Z" fill="#3F3D56"/>
<path d="M498.376 557.419H501.588C501.858 557.419 502.077 557.2 502.077 556.931V555.394C502.077 555.124 501.858 554.906 501.588 554.906H498.376C498.107 554.906 497.888 555.124 497.888 555.394V556.931C497.888 557.2 498.107 557.419 498.376 557.419Z" fill="#3F3D56"/>
<path d="M554.502 562.445H587.033C587.303 562.445 587.521 562.227 587.521 561.957V560.42C587.521 560.151 587.303 559.932 587.033 559.932H554.502C554.232 559.932 554.014 560.151 554.014 560.42V561.957C554.014 562.227 554.232 562.445 554.502 562.445Z" fill="#3F3D56"/>
<path d="M520.036 477.737H517.192C516.33 477.737 515.631 478.436 515.631 479.298C515.631 480.161 516.33 480.859 517.192 480.859H520.036C520.898 480.859 521.597 480.161 521.597 479.298C521.597 478.436 520.898 477.737 520.036 477.737Z" fill="white"/>
<path d="M552.559 477.737H549.715C548.853 477.737 548.154 478.436 548.154 479.298C548.154 480.161 548.853 480.859 549.715 480.859H552.559C553.421 480.859 554.12 480.161 554.12 479.298C554.12 478.436 553.421 477.737 552.559 477.737Z" fill="white"/>
<path d="M561.774 477.737H558.93C558.068 477.737 557.369 478.436 557.369 479.298C557.369 480.161 558.068 480.859 558.93 480.859H561.774C562.636 480.859 563.335 480.161 563.335 479.298C563.335 478.436 562.636 477.737 561.774 477.737Z" fill="white"/>
<path d="M543.713 477.477H526.039C525.176 477.477 524.478 478.175 524.478 479.038C524.478 479.9 525.176 480.599 526.039 480.599H543.713C544.575 480.599 545.274 479.9 545.274 479.038C545.274 478.175 544.575 477.477 543.713 477.477Z" fill="white"/>
<path d="M587.076 477.477H569.402C568.54 477.477 567.841 478.175 567.841 479.038C567.841 479.9 568.54 480.599 569.402 480.599H587.076C587.939 480.599 588.637 479.9 588.637 479.038C588.637 478.175 587.939 477.477 587.076 477.477Z" fill="white"/>
<path d="M528.708 484.784H525.865C525.003 484.784 524.304 485.483 524.304 486.345C524.304 487.207 525.003 487.906 525.865 487.906H528.708C529.571 487.906 530.27 487.207 530.27 486.345C530.27 485.483 529.571 484.784 528.708 484.784Z" fill="white"/>
<path d="M561.231 484.784H558.388C557.526 484.784 556.827 485.483 556.827 486.345C556.827 487.207 557.526 487.906 558.388 487.906H561.231C562.094 487.906 562.793 487.207 562.793 486.345C562.793 485.483 562.094 484.784 561.231 484.784Z" fill="white"/>
<path d="M570.447 484.784H567.603C566.741 484.784 566.042 485.483 566.042 486.345C566.042 487.207 566.741 487.906 567.603 487.906H570.447C571.309 487.906 572.008 487.207 572.008 486.345C572.008 485.483 571.309 484.784 570.447 484.784Z" fill="white"/>
<path d="M552.385 484.523H534.711C533.849 484.523 533.15 485.222 533.15 486.085C533.15 486.947 533.849 487.646 534.711 487.646H552.385C553.248 487.646 553.947 486.947 553.947 486.085C553.947 485.222 553.248 484.523 552.385 484.523Z" fill="white"/>
<path d="M595.749 484.523H578.075C577.213 484.523 576.514 485.222 576.514 486.085C576.514 486.947 577.213 487.646 578.075 487.646H595.749C596.611 487.646 597.31 486.947 597.31 486.085C597.31 485.222 596.611 484.523 595.749 484.523Z" fill="white"/>
<path d="M537.381 491.831H534.538C533.675 491.831 532.977 492.529 532.977 493.392C532.977 494.254 533.675 494.953 534.538 494.953H537.381C538.243 494.953 538.942 494.254 538.942 493.392C538.942 492.529 538.243 491.831 537.381 491.831Z" fill="white"/>
<path d="M569.904 491.831H567.061C566.198 491.831 565.5 492.529 565.5 493.392C565.5 494.254 566.198 494.953 567.061 494.953H569.904C570.766 494.953 571.465 494.254 571.465 493.392C571.465 492.529 570.766 491.831 569.904 491.831Z" fill="white"/>
<path d="M579.119 491.831H576.275C575.413 491.831 574.714 492.529 574.714 493.392C574.714 494.254 575.413 494.953 576.275 494.953H579.119C579.981 494.953 580.68 494.254 580.68 493.392C580.68 492.529 579.981 491.831 579.119 491.831Z" fill="white"/>
<path d="M561.058 491.57H543.384C542.522 491.57 541.823 492.269 541.823 493.131C541.823 493.994 542.522 494.692 543.384 494.692H561.058C561.92 494.692 562.619 493.994 562.619 493.131C562.619 492.269 561.92 491.57 561.058 491.57Z" fill="white"/>
<path d="M604.422 491.57H586.748C585.886 491.57 585.187 492.269 585.187 493.131C585.187 493.994 585.886 494.692 586.748 494.692H604.422C605.284 494.692 605.983 493.994 605.983 493.131C605.983 492.269 605.284 491.57 604.422 491.57Z" fill="white"/>
<path d="M546.054 498.877H543.211C542.348 498.877 541.649 499.576 541.649 500.438C541.649 501.3 542.348 501.999 543.211 501.999H546.054C546.916 501.999 547.615 501.3 547.615 500.438C547.615 499.576 546.916 498.877 546.054 498.877Z" fill="white"/>
<path d="M578.577 498.877H575.733C574.871 498.877 574.172 499.576 574.172 500.438C574.172 501.3 574.871 501.999 575.733 501.999H578.577C579.439 501.999 580.138 501.3 580.138 500.438C580.138 499.576 579.439 498.877 578.577 498.877Z" fill="white"/>
<path d="M587.792 498.877H584.948C584.086 498.877 583.387 499.576 583.387 500.438C583.387 501.3 584.086 501.999 584.948 501.999H587.792C588.654 501.999 589.353 501.3 589.353 500.438C589.353 499.576 588.654 498.877 587.792 498.877Z" fill="white"/>
<path d="M569.731 498.617H552.057C551.195 498.617 550.496 499.316 550.496 500.178C550.496 501.04 551.195 501.739 552.057 501.739H569.731C570.593 501.739 571.292 501.04 571.292 500.178C571.292 499.316 570.593 498.617 569.731 498.617Z" fill="white"/>
<path d="M552.559 526.897H549.715C548.853 526.897 548.154 527.596 548.154 528.459C548.154 529.321 548.853 530.02 549.715 530.02H552.559C553.421 530.02 554.12 529.321 554.12 528.459C554.12 527.596 553.421 526.897 552.559 526.897Z" fill="white"/>
<path d="M561.774 526.897H558.93C558.068 526.897 557.369 527.596 557.369 528.459C557.369 529.321 558.068 530.02 558.93 530.02H561.774C562.636 530.02 563.335 529.321 563.335 528.459C563.335 527.596 562.636 526.897 561.774 526.897Z" fill="white"/>
<path d="M587.076 527.158H569.402C568.54 527.158 567.841 527.857 567.841 528.719C567.841 529.581 568.54 530.28 569.402 530.28H587.076C587.939 530.28 588.637 529.581 588.637 528.719C588.637 527.857 587.939 527.158 587.076 527.158Z" fill="white"/>
<path d="M520.036 526.897H517.192C516.33 526.897 515.631 527.596 515.631 528.459C515.631 529.321 516.33 530.02 517.192 530.02H520.036C520.898 530.02 521.597 529.321 521.597 528.459C521.597 527.596 520.898 526.897 520.036 526.897Z" fill="white"/>
<path d="M543.713 527.158H526.039C525.176 527.158 524.478 527.857 524.478 528.719C524.478 529.581 525.176 530.28 526.039 530.28H543.713C544.575 530.28 545.274 529.581 545.274 528.719C545.274 527.857 544.575 527.158 543.713 527.158Z" fill="white"/>
<path d="M528.708 519.851H525.865C525.003 519.851 524.304 520.55 524.304 521.412C524.304 522.274 525.003 522.973 525.865 522.973H528.708C529.571 522.973 530.27 522.274 530.27 521.412C530.27 520.55 529.571 519.851 528.708 519.851Z" fill="white"/>
<path d="M561.231 519.851H558.388C557.526 519.851 556.827 520.55 556.827 521.412C556.827 522.274 557.526 522.973 558.388 522.973H561.231C562.094 522.973 562.793 522.274 562.793 521.412C562.793 520.55 562.094 519.851 561.231 519.851Z" fill="white"/>
<path d="M570.447 519.851H567.603C566.741 519.851 566.042 520.55 566.042 521.412C566.042 522.274 566.741 522.973 567.603 522.973H570.447C571.309 522.973 572.008 522.274 572.008 521.412C572.008 520.55 571.309 519.851 570.447 519.851Z" fill="white"/>
<path d="M552.385 520.111H534.711C533.849 520.111 533.15 520.81 533.15 521.672C533.15 522.535 533.849 523.233 534.711 523.233H552.385C553.248 523.233 553.947 522.535 553.947 521.672C553.947 520.81 553.248 520.111 552.385 520.111Z" fill="white"/>
<path d="M537.381 512.804H534.538C533.675 512.804 532.977 513.503 532.977 514.365C532.977 515.227 533.675 515.926 534.538 515.926H537.381C538.243 515.926 538.942 515.227 538.942 514.365C538.942 513.503 538.243 512.804 537.381 512.804Z" fill="white"/>
<path d="M569.904 512.804H567.061C566.198 512.804 565.5 513.503 565.5 514.365C565.5 515.227 566.198 515.926 567.061 515.926H569.904C570.766 515.926 571.465 515.227 571.465 514.365C571.465 513.503 570.766 512.804 569.904 512.804Z" fill="white"/>
<path d="M579.119 512.804H576.275C575.413 512.804 574.714 513.503 574.714 514.365C574.714 515.227 575.413 515.926 576.275 515.926H579.119C579.981 515.926 580.68 515.227 580.68 514.365C580.68 513.503 579.981 512.804 579.119 512.804Z" fill="white"/>
<path d="M561.058 513.064H543.384C542.522 513.064 541.823 513.763 541.823 514.626C541.823 515.488 542.522 516.187 543.384 516.187H561.058C561.92 516.187 562.619 515.488 562.619 514.626C562.619 513.763 561.92 513.064 561.058 513.064Z" fill="white"/>
<path d="M546.054 505.757H543.211C542.348 505.757 541.649 506.456 541.649 507.318C541.649 508.181 542.348 508.879 543.211 508.879H546.054C546.916 508.879 547.615 508.181 547.615 507.318C547.615 506.456 546.916 505.757 546.054 505.757Z" fill="white"/>
<path d="M578.577 505.757H575.733C574.871 505.757 574.172 506.456 574.172 507.318C574.172 508.181 574.871 508.879 575.733 508.879H578.577C579.439 508.879 580.138 508.181 580.138 507.318C580.138 506.456 579.439 505.757 578.577 505.757Z" fill="white"/>
<path d="M587.792 505.757H584.948C584.086 505.757 583.387 506.456 583.387 507.318C583.387 508.181 584.086 508.879 584.948 508.879H587.792C588.654 508.879 589.353 508.181 589.353 507.318C589.353 506.456 588.654 505.757 587.792 505.757Z" fill="white"/>
<path d="M569.731 506.018H552.057C551.195 506.018 550.496 506.717 550.496 507.579C550.496 508.441 551.195 509.14 552.057 509.14H569.731C570.593 509.14 571.292 508.441 571.292 507.579C571.292 506.717 570.593 506.018 569.731 506.018Z" fill="white"/>
<path d="M504.917 609.482L491.568 588.38L533.47 554.977L550.765 535.816C553.012 533.327 555.873 531.471 559.062 530.433C562.251 529.396 565.657 529.214 568.938 529.905C572.22 530.596 575.262 532.136 577.762 534.372C580.262 536.607 582.131 539.46 583.183 542.644C584.742 547.363 584.407 552.502 582.248 556.979C580.09 561.455 576.276 564.917 571.613 566.635L544.264 576.71L504.917 609.482Z" fill="#FFB6B6"/>
<path d="M191.69 456.481V559.041H263.54V456.481C263.541 455.743 263.306 455.024 262.868 454.43C262.431 453.837 261.815 453.398 261.11 453.181C260.778 453.071 260.43 453.017 260.08 453.021H195.16C194.705 453.02 194.254 453.109 193.833 453.282C193.413 453.456 193.03 453.71 192.708 454.032C192.386 454.353 192.13 454.735 191.955 455.155C191.78 455.575 191.69 456.026 191.69 456.481ZM219.73 491.721C219.749 489.699 220.565 487.766 222.001 486.343C223.438 484.92 225.378 484.121 227.4 484.121C229.422 484.121 231.362 484.92 232.798 486.343C234.235 487.766 235.051 489.699 235.07 491.721V503.621C235.06 505.648 234.247 507.589 232.81 509.019C231.372 510.449 229.427 511.252 227.4 511.252C225.372 511.252 223.428 510.449 221.99 509.019C220.553 507.589 219.74 505.648 219.73 503.621V491.721Z" fill="#2F2E41"/>
<path d="M191.47 555.761V565.651C191.472 566.163 191.675 566.654 192.037 567.017C192.398 567.38 192.888 567.586 193.4 567.591H261.83C262.343 567.588 262.834 567.383 263.196 567.019C263.557 566.655 263.76 566.164 263.76 565.651V555.761H191.47Z" fill="#3F3D56"/>
<path d="M78.6602 301.961V489.221C78.662 491.607 79.6109 493.895 81.2983 495.582C82.9857 497.27 85.2738 498.219 87.6602 498.221H365.16C367.547 498.219 369.835 497.27 371.522 495.582C373.209 493.895 374.158 491.607 374.16 489.221V301.961C374.154 299.576 373.204 297.292 371.517 295.607C369.83 293.922 367.544 292.974 365.16 292.971H87.6602C85.2759 292.974 82.99 293.922 81.3031 295.607C79.6162 297.292 78.6658 299.576 78.6602 301.961Z" fill="#3F3D56"/>
<path d="M85.1699 304.291V486.911C85.1721 488.186 85.6796 489.408 86.5811 490.309C87.4827 491.211 88.7049 491.719 89.9799 491.721H362.85C364.125 491.719 365.347 491.211 366.249 490.309C367.15 489.408 367.658 488.186 367.66 486.911V304.291C367.66 303.014 367.153 301.79 366.252 300.886C365.35 299.983 364.126 299.473 362.85 299.471H89.9799C88.7034 299.473 87.48 299.983 86.5783 300.886C85.6765 301.79 85.1701 303.014 85.1699 304.291Z" fill="white"/>
<path d="M135.81 566.921C136.088 567.269 136.441 567.55 136.842 567.742C137.244 567.934 137.684 568.033 138.13 568.031H300.47C300.914 568.03 301.352 567.931 301.753 567.74C302.153 567.548 302.506 567.27 302.786 566.925C303.066 566.581 303.265 566.178 303.37 565.746C303.474 565.315 303.481 564.865 303.39 564.431L300.87 552.461C300.765 551.973 300.54 551.518 300.216 551.139C299.891 550.76 299.476 550.469 299.01 550.291C298.672 550.158 298.313 550.09 297.95 550.091H140.64C140.277 550.09 139.918 550.158 139.58 550.291C139.113 550.469 138.699 550.76 138.374 551.139C138.049 551.518 137.824 551.973 137.72 552.461L135.2 564.431C135.11 564.865 135.118 565.314 135.224 565.745C135.329 566.175 135.53 566.577 135.81 566.921Z" fill="#2F2E41"/>
<path d="M353.995 324.627H98.6713C98.4059 324.621 98.1534 324.512 97.9677 324.322C97.7821 324.132 97.6782 323.877 97.6782 323.612C97.6782 323.347 97.7821 323.092 97.9677 322.902C98.1534 322.712 98.4059 322.603 98.6713 322.597H353.995C354.26 322.603 354.513 322.712 354.698 322.902C354.884 323.092 354.988 323.347 354.988 323.612C354.988 323.877 354.884 324.132 354.698 324.322C354.513 324.512 354.26 324.621 353.995 324.627Z" fill="#3F3D56"/>
<path d="M116.051 317.413C119.338 317.413 122.002 314.689 122.002 311.33C122.002 307.97 119.338 305.247 116.051 305.247C112.765 305.247 110.101 307.97 110.101 311.33C110.101 314.689 112.765 317.413 116.051 317.413Z" fill="#3F3D56"/>
<path d="M136.607 317.413C139.893 317.413 142.558 314.689 142.558 311.33C142.558 307.97 139.893 305.247 136.607 305.247C133.321 305.247 130.657 307.97 130.657 311.33C130.657 314.689 133.321 317.413 136.607 317.413Z" fill="#3F3D56"/>
<path d="M157.163 317.413C160.45 317.413 163.114 314.689 163.114 311.33C163.114 307.97 160.45 305.247 157.163 305.247C153.877 305.247 151.213 307.97 151.213 311.33C151.213 314.689 153.877 317.413 157.163 317.413Z" fill="#3F3D56"/>
<path d="M341.616 306.751H327.016C326.728 306.758 326.453 306.877 326.251 307.084C326.049 307.29 325.937 307.567 325.937 307.856C325.937 308.145 326.049 308.422 326.251 308.628C326.453 308.835 326.728 308.954 327.016 308.961H341.616C341.906 308.957 342.184 308.839 342.387 308.632C342.591 308.425 342.706 308.146 342.706 307.856C342.706 307.566 342.591 307.287 342.387 307.08C342.184 306.873 341.906 306.755 341.616 306.751Z" fill="#3F3D56"/>
<path d="M341.616 310.901H327.016C326.728 310.907 326.453 311.027 326.251 311.233C326.049 311.44 325.936 311.717 325.936 312.006C325.936 312.295 326.049 312.572 326.251 312.779C326.453 312.985 326.728 313.104 327.016 313.111H341.616C341.907 313.107 342.185 312.989 342.389 312.783C342.594 312.576 342.708 312.297 342.708 312.006C342.708 311.715 342.594 311.436 342.389 311.229C342.185 311.022 341.907 310.904 341.616 310.901Z" fill="#3F3D56"/>
<path d="M341.616 315.051H327.016C326.728 315.058 326.453 315.177 326.251 315.383C326.049 315.59 325.937 315.867 325.937 316.156C325.937 316.444 326.049 316.722 326.251 316.928C326.453 317.135 326.728 317.254 327.016 317.261H341.616C341.906 317.257 342.184 317.138 342.387 316.932C342.591 316.725 342.706 316.446 342.706 316.156C342.706 315.865 342.591 315.587 342.387 315.38C342.184 315.173 341.906 315.055 341.616 315.051Z" fill="#3F3D56"/>
<path d="M693.596 560.101C694.036 561.384 694.872 562.494 695.983 563.272C697.094 564.05 698.423 564.457 699.779 564.432L726.271 563.75C727.637 563.724 728.958 563.256 730.036 562.416C731.114 561.577 731.891 560.411 732.252 559.093L736.001 519.006C737.331 519.609 738.779 519.906 740.239 519.877C741.507 519.845 742.757 519.564 743.916 519.049C745.076 518.534 746.123 517.796 746.997 516.877C747.871 515.957 748.556 514.875 749.012 513.691C749.468 512.507 749.686 511.245 749.654 509.976C749.623 508.708 749.341 507.458 748.826 506.299C748.312 505.139 747.573 504.092 746.654 503.218C745.735 502.344 744.652 501.659 743.468 501.203C742.284 500.747 741.022 500.529 739.754 500.56C739.17 500.559 738.588 500.619 738.017 500.741C737.397 500.07 736.643 499.536 735.803 499.173C734.964 498.811 734.058 498.629 733.143 498.638L692.393 499.69C692.055 499.703 691.719 499.745 691.388 499.815C690.494 499.982 689.646 500.338 688.902 500.859C688.157 501.381 687.533 502.056 687.072 502.839C686.61 503.622 686.321 504.495 686.225 505.399C686.129 506.303 686.228 507.217 686.514 508.08L693.596 560.101ZM736.769 516.284L739.437 506.732C739.74 505.628 739.747 504.464 739.457 503.357C739.587 503.357 739.701 503.295 739.83 503.295C741.66 503.257 743.429 503.946 744.751 505.211C746.073 506.476 746.839 508.213 746.882 510.042C746.925 511.871 746.241 513.643 744.979 514.968C743.718 516.293 741.983 517.064 740.154 517.112C738.972 517.149 737.801 516.863 736.769 516.284Z" fill="#2F2E41"/>
<path d="M691.388 499.815C692.256 504.779 702.017 508.269 713.754 507.663C724.546 507.165 733.371 503.376 734.988 498.884C734.389 498.707 733.767 498.624 733.143 498.638L692.393 499.69C692.055 499.703 691.719 499.745 691.388 499.815Z" fill="#3F3D56"/>
<path d="M715.905 538.073C715.958 538.06 716.009 538.037 716.055 538.007L721.809 534.241C721.878 534.196 721.935 534.134 721.975 534.061C722.014 533.988 722.035 533.906 722.035 533.823C722.035 533.74 722.015 533.658 721.975 533.585C721.936 533.512 721.878 533.45 721.809 533.405L715.829 529.488C715.774 529.452 715.713 529.427 715.648 529.414C715.584 529.402 715.517 529.402 715.453 529.416C715.388 529.429 715.327 529.455 715.273 529.492C715.218 529.529 715.172 529.576 715.136 529.631C715.099 529.686 715.075 529.748 715.062 529.812C715.05 529.877 715.051 529.943 715.064 530.008C715.078 530.072 715.104 530.133 715.141 530.188C715.179 530.242 715.226 530.288 715.281 530.324L720.622 533.822L715.508 537.17C715.409 537.235 715.336 537.333 715.303 537.446C715.269 537.56 715.276 537.681 715.324 537.79C715.372 537.898 715.456 537.986 715.562 538.038C715.669 538.09 715.79 538.102 715.905 538.073Z" fill="#24385D"/>
<path d="M706.818 538.492C706.914 538.467 707.001 538.415 707.068 538.34C707.134 538.266 707.177 538.174 707.19 538.075C707.204 537.976 707.188 537.876 707.144 537.787C707.1 537.697 707.03 537.623 706.944 537.573L701.641 534.533L706.766 530.726C706.819 530.687 706.863 530.638 706.897 530.581C706.931 530.525 706.953 530.463 706.963 530.398C706.972 530.333 706.969 530.267 706.953 530.203C706.937 530.139 706.908 530.079 706.869 530.027C706.83 529.974 706.781 529.93 706.725 529.896C706.668 529.862 706.606 529.84 706.541 529.831C706.476 529.821 706.41 529.824 706.346 529.84C706.283 529.856 706.223 529.885 706.17 529.924L700.432 534.186C700.365 534.236 700.312 534.301 700.276 534.376C700.241 534.452 700.225 534.534 700.23 534.617C700.235 534.7 700.261 534.78 700.304 534.851C700.348 534.921 700.409 534.98 700.481 535.021L706.446 538.441C706.559 538.505 706.692 538.524 706.818 538.492Z" fill="#24385D"/>
<path d="M715.332 541.373C715.381 541.361 715.427 541.341 715.469 541.315C715.525 541.281 715.574 541.236 715.613 541.183C715.652 541.13 715.68 541.07 715.695 541.006C715.711 540.942 715.714 540.876 715.704 540.811C715.694 540.746 715.671 540.684 715.637 540.628L707.481 527.22C707.412 527.107 707.301 527.026 707.172 526.994C707.043 526.963 706.907 526.985 706.794 527.054C706.681 527.123 706.6 527.234 706.568 527.362C706.537 527.491 706.558 527.627 706.627 527.74L714.782 541.149C714.838 541.24 714.921 541.311 715.02 541.351C715.119 541.392 715.229 541.399 715.332 541.373Z" fill="#24385D"/>
<path d="M256.84 379.827H212.649C210.846 379.827 209.385 381.289 209.385 383.091V387.409C209.385 389.211 210.846 390.673 212.649 390.673H256.84C258.643 390.673 260.104 389.211 260.104 387.409V383.091C260.104 381.289 258.643 379.827 256.84 379.827Z" fill="#24385D"/>
<path d="M282.598 401.519H186.89C185.087 401.519 183.626 402.98 183.626 404.783V409.1C183.626 410.903 185.087 412.364 186.89 412.364H282.598C284.401 412.364 285.862 410.903 285.862 409.1V404.783C285.862 402.98 284.401 401.519 282.598 401.519Z" fill="#E6E6E6"/>
<path d="M282.598 423.21H186.89C185.087 423.21 183.626 424.671 183.626 426.474V430.792C183.626 432.594 185.087 434.056 186.89 434.056H282.598C284.401 434.056 285.862 432.594 285.862 430.792V426.474C285.862 424.671 284.401 423.21 282.598 423.21Z" fill="#E6E6E6"/>
<path d="M290.711 495.846L290.928 496.53L290.94 496.553L297.465 516.391L304.971 539.252L319.094 582.213L319.231 588.887V588.91L320.28 642.594L317.371 649.872L320.645 661.805C320.645 661.805 319.139 643.768 311.063 654.126C306.488 660.012 301.138 666.036 296.746 671.682C303.146 674.272 309.648 676.614 316.253 678.709C317.679 679.166 319.117 679.599 320.554 680.033C320.862 680.124 321.17 680.215 321.478 680.307C343.373 686.781 366.008 690.42 388.829 691.132C390.015 691.167 391.179 691.189 392.308 691.212C392.707 691.224 393.095 691.235 393.483 691.235C394.761 691.247 396.027 691.258 397.305 691.258C399.883 691.258 402.45 691.22 405.005 691.144C423.918 690.611 442.721 688.068 461.096 683.558C460.971 675.972 460.629 667.108 460.138 657.64C459.91 652.997 454.788 647.966 454.48 643.106C454.263 639.456 458.86 636.022 458.621 632.314C457.069 609.488 455.13 618.25 453.693 602.086C453.544 600.5 453.408 598.983 453.282 597.534C452.358 587.153 451.719 580.662 451.719 580.662L457.857 541.979L467.496 481.244L466.755 480.024L465.922 479.613L415.078 454.448L412.317 447.375C411.513 445.337 410.117 443.587 408.31 442.349C406.503 441.111 404.366 440.442 402.176 440.428L368.683 440.291C366.945 440.283 365.23 440.69 363.68 441.477C362.131 442.265 360.791 443.411 359.773 444.82L350.704 457.379L290.711 495.846Z" fill="#3F3D56"/>
<path d="M326.817 572.654L319.23 588.887L314.051 599.975L305.142 646.621L300.682 651.355L296.86 634.596L256.862 643.477C255.55 636.187 256.511 643.723 255.701 635.727C255.929 635.498 256.169 635.27 256.408 635.042C257.047 634.449 257.583 633.89 257.572 633.354C257.116 605.77 258.485 558.827 269.915 530.388C271.705 525.745 274.066 521.342 276.942 517.281C277.17 516.973 277.387 516.665 277.604 516.357C282.874 508.976 286.205 501.709 290.928 496.542V496.53C290.957 496.507 290.984 496.48 291.008 496.45C291.025 496.442 291.041 496.43 291.054 496.416L323.497 479.213L324.889 518.319L325.881 546.427L326.817 572.654Z" fill="#3F3D56"/>
<path d="M443.801 577.265L453.277 597.539L456.585 604.6L465.491 651.242L469.937 655.965L473.768 639.209L475.567 638.84L508.026 632.118L517.487 662.164C519.619 658.611 520.459 654.431 519.865 650.331C519.27 646.23 517.278 642.46 514.225 639.659C513.579 639.074 513.041 638.505 513.056 637.966C513.595 605.523 511.61 546.283 493.689 521.901C487.997 514.163 484.582 506.456 479.613 501.072C479.598 501.056 479.598 501.041 479.583 501.041L467.491 481.243L466.753 480.028L465.922 479.612L443.801 577.265Z" fill="#3F3D56"/>
<path d="M386.397 430.759C411.006 430.759 430.955 410.809 430.955 386.2C430.955 361.592 411.006 341.642 386.397 341.642C361.788 341.642 341.838 361.592 341.838 386.2C341.838 410.809 361.788 430.759 386.397 430.759Z" fill="#FFB6B6"/>
<path d="M446.622 355.077C446.277 354.708 445.861 354.412 445.398 354.208C444.936 354.003 444.437 353.894 443.932 353.887L444.602 352.027C444.821 351.441 444.88 350.807 444.773 350.191C444.666 349.575 444.398 348.998 443.995 348.52C443.592 348.042 443.069 347.679 442.48 347.469C441.891 347.26 441.257 347.21 440.642 347.327L438.202 347.797L438.432 346.167C438.52 345.56 438.449 344.94 438.225 344.369C438.001 343.798 437.633 343.295 437.155 342.909C436.678 342.524 436.109 342.269 435.503 342.171C434.898 342.072 434.277 342.133 433.702 342.347C433.179 342.552 432.617 342.639 432.056 342.599C431.495 342.559 430.951 342.394 430.462 342.117C429.971 341.847 429.545 341.474 429.214 341.024C428.882 340.573 428.653 340.055 428.542 339.507L427.692 335.407L427.602 335.187C423.462 328.287 415.502 323.267 405.762 321.427C397.092 319.777 388.202 320.617 379.632 321.407C376.232 321.727 372.392 322.087 369.192 324.047C366.472 325.727 364.172 329.087 364.642 332.477C356.192 329.887 347.132 335.057 342.642 341.577C337.322 349.337 336.452 359.057 336.312 366.657C335.932 384.637 339.642 399.347 347.312 410.387C347.872 411.187 348.012 412.857 349.122 413.417L348.892 413.047C350.132 413.667 351.392 414.667 350.922 415.737C349.572 418.817 358.542 425.627 364.862 427.877C376.392 431.987 391.722 431.637 402.502 430.157L402.882 427.607C406.772 427.077 409.512 426.067 410.282 424.487C411.642 423.327 412.802 422.287 413.812 421.327L413.822 421.317C413.842 421.297 413.882 421.267 413.902 421.247C418.772 416.577 419.902 413.917 420.412 409.867C420.902 405.897 420.032 401.867 419.142 398.237C437.882 401.137 411.762 378.277 429.222 373.857C429.422 373.795 429.626 373.745 429.832 373.707C430.342 373.587 430.852 373.467 431.342 373.327C433.704 372.685 435.966 371.72 438.062 370.457C442.942 367.487 444.552 363.547 447.072 359.107C447.436 358.474 447.588 357.743 447.507 357.018C447.426 356.293 447.116 355.613 446.622 355.077Z" fill="#2F2E41"/>
<path d="M543.992 580.437C543.982 582.187 543.962 584.637 543.882 587.667C543.872 588.087 543.862 588.517 543.852 588.957C543.722 594.527 543.592 599.197 543.382 604.387C543.372 604.747 543.362 605.097 543.342 605.457C543.062 612.697 542.622 621.127 541.862 634.477C540.452 659.137 537.992 637.867 535.522 646.517C535.402 646.947 535.272 647.457 535.152 648.057C534.778 650.234 534.147 652.358 533.272 654.387C531.962 655.167 530.612 655.917 529.282 656.667C525.492 658.777 521.642 660.807 517.762 662.737C515.582 663.817 513.393 664.877 511.193 665.897C510.843 666.057 510.503 666.217 510.163 666.367C498.897 671.578 487.286 676.008 475.413 679.627C473.093 680.327 470.783 681.007 468.443 681.637C466.003 682.317 463.562 682.957 461.092 683.557C442.718 688.068 423.915 690.612 405.003 691.147C402.453 691.227 399.883 691.257 397.303 691.257C396.023 691.257 394.763 691.247 393.483 691.237C393.093 691.237 392.703 691.227 392.313 691.217C391.183 691.187 390.012 691.167 388.832 691.137C366.011 690.425 343.376 686.785 321.483 680.307L320.553 680.037C319.113 679.597 317.683 679.167 316.253 678.707C309.652 676.617 303.149 674.277 296.742 671.687C291.852 669.717 287.019 667.603 282.242 665.347C282.199 665.335 282.158 665.314 282.122 665.287C281.122 664.827 280.113 664.347 279.113 663.857C278.983 663.787 278.843 663.717 278.703 663.647C274.972 661.827 271.282 659.92 267.633 657.927C264.563 650.877 260.243 649.527 257.562 643.327C256.783 641.485 256.219 639.558 255.883 637.587C255.883 637.567 255.872 637.547 255.872 637.517C256.152 641.237 254.683 630.917 255.863 637.477C255.853 637.357 255.843 637.227 255.833 637.077C255.803 636.717 255.763 636.277 255.703 635.727C252.273 602.237 252.493 563.937 251.003 532.377C250.903 530.337 250.799 528.383 250.693 526.517C250.663 525.897 250.623 525.287 250.583 524.687C250.653 524.507 250.733 524.317 250.823 524.137C250.842 524.085 250.865 524.035 250.893 523.987C250.922 523.925 250.955 523.864 250.993 523.807C251.013 523.777 251.043 523.737 251.063 523.707C251.077 523.672 251.094 523.639 251.113 523.607C251.203 523.467 251.303 523.317 251.413 523.177C251.463 523.117 251.503 523.067 251.553 523.017C251.587 522.966 251.627 522.919 251.673 522.877C251.703 522.829 251.74 522.785 251.783 522.747C251.823 522.707 251.863 522.657 251.913 522.607C251.934 522.575 251.961 522.548 251.993 522.527C252.072 522.436 252.159 522.352 252.253 522.277C252.609 521.948 252.99 521.647 253.393 521.377C253.532 521.287 253.683 521.197 253.823 521.097C254.83 520.494 255.891 519.985 256.993 519.577C257.373 519.437 257.753 519.307 258.163 519.167C258.313 519.127 258.453 519.077 258.603 519.027C258.823 518.957 259.043 518.887 259.273 518.837C260.413 518.497 261.643 518.207 262.973 517.937C263.133 517.907 263.303 517.877 263.473 517.837C263.713 517.787 263.963 517.747 264.213 517.707C264.553 517.647 264.903 517.587 265.253 517.527C268.223 517.057 271.593 516.707 275.313 516.477C275.663 516.457 276.013 516.437 276.363 516.417C276.773 516.397 277.183 516.377 277.603 516.357C277.953 516.337 278.313 516.327 278.673 516.317C279.023 516.297 279.383 516.287 279.753 516.277C280.763 516.247 281.803 516.217 282.863 516.197C285.883 516.137 289.063 516.157 292.403 516.227C293.953 516.267 295.533 516.307 297.153 516.377C297.263 516.377 297.363 516.387 297.463 516.387C298.873 516.437 300.293 516.497 301.753 516.577C302.773 516.627 303.803 516.677 304.832 516.737C305.802 516.797 306.782 516.857 307.772 516.927C308.542 516.967 309.312 517.027 310.092 517.077C310.752 517.127 311.412 517.177 312.072 517.217L312.972 517.277C313.462 517.317 313.952 517.347 314.452 517.397C315.552 517.487 316.652 517.577 317.772 517.667C318.882 517.767 320.012 517.867 321.142 517.967C322.272 518.067 323.412 518.177 324.552 518.287C324.672 518.297 324.782 518.307 324.892 518.317C325.932 518.427 326.972 518.527 328.022 518.637C328.262 518.657 328.512 518.677 328.752 518.707C329.754 518.807 330.774 518.925 331.784 519.032C332.095 519.066 332.403 519.098 332.714 519.132C333.505 519.218 334.285 519.293 335.082 519.387C336.132 519.507 337.202 519.617 338.242 519.757C339.052 519.847 339.862 519.937 340.672 520.037C341.942 520.187 343.232 520.347 344.522 520.517C345.012 520.577 345.502 520.637 345.992 520.707C349.672 521.167 353.392 521.677 357.172 522.207C362.902 523.017 368.722 523.897 374.582 524.847C380.452 525.797 386.356 526.8 392.292 527.857C393.792 528.127 395.292 528.397 396.802 528.677C397.482 528.807 398.162 528.937 398.842 529.067C400.002 529.277 401.162 529.497 402.322 529.717C403.482 529.937 404.642 530.157 405.802 530.387C407.182 530.657 408.572 530.927 409.952 531.197C419.042 532.997 428.082 534.917 436.902 536.927C438.352 537.257 439.802 537.597 441.242 537.927C444.122 538.597 446.976 539.277 449.802 539.967C450.582 540.147 451.352 540.337 452.122 540.527C454.042 541.007 455.962 541.487 457.852 541.977L458.182 542.067C459.572 542.407 460.932 542.757 462.292 543.117C465.502 543.957 468.659 544.807 471.762 545.667C473.822 546.237 475.859 546.813 477.872 547.397C480.882 548.267 483.832 549.147 486.702 550.037C487.412 550.257 488.122 550.477 488.822 550.687C490.922 551.337 492.992 551.997 495.002 552.657C496.602 553.177 498.162 553.707 499.702 554.237C501.242 554.767 502.752 555.297 504.232 555.827C505.182 556.167 506.122 556.527 507.062 556.867C508.412 557.367 509.742 557.867 511.042 558.367C511.442 558.517 511.832 558.677 512.222 558.827C512.472 558.937 512.712 559.027 512.952 559.127C513.422 559.317 513.902 559.497 514.362 559.687C514.832 559.867 515.292 560.057 515.752 560.257C516.202 560.437 516.662 560.627 517.102 560.817C517.552 560.997 517.992 561.187 518.432 561.387C518.802 561.537 519.162 561.697 519.512 561.857C520.222 562.167 520.932 562.477 521.622 562.797C521.962 562.957 522.302 563.107 522.642 563.267L523.422 563.627C523.532 563.687 523.642 563.737 523.752 563.787C524.002 563.907 524.262 564.037 524.512 564.157C525.092 564.427 525.662 564.717 526.222 564.987C526.972 565.367 527.702 565.747 528.402 566.117C529.112 566.497 529.802 566.877 530.462 567.247C530.572 567.307 530.672 567.367 530.782 567.427C530.932 567.507 531.082 567.597 531.232 567.677C531.742 567.967 532.232 568.267 532.722 568.557C533.682 569.147 534.592 569.727 535.442 570.307C535.632 570.437 535.812 570.567 536.002 570.687C536.632 571.137 537.232 571.577 537.792 572.027C537.792 572.037 537.792 572.037 537.802 572.037C537.992 572.177 538.172 572.327 538.352 572.467C538.502 572.607 538.662 572.727 538.812 572.867C539.332 573.317 539.812 573.746 540.252 574.187C540.4 574.322 540.54 574.466 540.672 574.617C540.731 574.665 540.784 574.718 540.832 574.777C541.032 574.977 541.212 575.177 541.382 575.377C541.409 575.404 541.432 575.434 541.452 575.467C541.692 575.747 541.912 576.027 542.122 576.307C542.222 576.447 542.332 576.587 542.422 576.727C542.542 576.897 542.662 577.077 542.762 577.247C542.852 577.387 542.932 577.537 543.012 577.677C543.225 578.037 543.405 578.415 543.552 578.807C543.665 579.072 543.755 579.346 543.822 579.627C543.898 579.892 543.955 580.163 543.992 580.437Z" fill="#2F2E41"/>
<path opacity="0.2" d="M543.992 580.437C543.982 582.187 543.962 584.637 543.882 587.667C543.872 588.087 543.852 588.517 543.842 588.957C543.742 593.207 543.592 598.457 543.382 604.387C543.372 604.747 543.362 605.097 543.342 605.457C543.062 612.697 542.622 621.127 541.862 634.477C540.452 659.137 537.992 637.867 535.522 646.517C528.662 642.297 521.142 637.877 513.102 633.337C511.652 632.517 510.189 631.693 508.712 630.867C492.632 621.897 474.672 612.497 455.922 603.187C455.182 602.817 454.432 602.447 453.692 602.087C410.742 580.857 363.862 560.207 325.882 546.427C318.552 543.767 311.552 541.367 304.972 539.257C291.112 534.827 279.132 531.727 269.912 530.387C260.312 528.987 253.682 529.487 251.002 532.377C250.902 530.337 250.799 528.383 250.692 526.517C250.652 525.897 250.612 525.287 250.572 524.687C250.634 524.522 250.714 524.365 250.792 524.207C250.803 524.183 250.811 524.16 250.822 524.137C250.841 524.085 250.865 524.035 250.892 523.987C250.922 523.925 250.955 523.865 250.992 523.807C251.025 523.736 251.065 523.669 251.112 523.607C251.202 523.467 251.302 523.317 251.412 523.177C251.493 523.072 251.58 522.972 251.672 522.877C251.703 522.829 251.74 522.785 251.782 522.747C251.822 522.707 251.862 522.657 251.912 522.607C251.934 522.575 251.961 522.548 251.992 522.527C252.071 522.436 252.158 522.352 252.252 522.277C252.609 521.948 252.99 521.648 253.392 521.377C253.532 521.287 253.682 521.197 253.822 521.097C254.83 520.494 255.891 519.985 256.992 519.577C257.372 519.437 257.752 519.307 258.162 519.167C258.312 519.127 258.452 519.077 258.602 519.027C258.822 518.957 259.042 518.887 259.272 518.837C260.412 518.497 261.642 518.207 262.972 517.937C263.372 517.857 263.792 517.777 264.212 517.707C264.552 517.647 264.902 517.587 265.252 517.527C268.222 517.057 271.592 516.707 275.312 516.477C275.662 516.457 276.012 516.437 276.362 516.417C276.772 516.397 277.182 516.377 277.602 516.357C277.952 516.337 278.312 516.327 278.672 516.317C279.022 516.297 279.382 516.287 279.752 516.277C280.762 516.247 281.802 516.217 282.862 516.197C285.882 516.147 289.062 516.167 292.402 516.237C293.952 516.267 295.532 516.317 297.152 516.387C297.252 516.387 297.362 516.397 297.462 516.397C298.872 516.437 300.302 516.507 301.752 516.577C302.772 516.627 303.802 516.677 304.832 516.737C305.802 516.797 306.782 516.857 307.772 516.927C308.542 516.967 309.312 517.027 310.092 517.077C310.752 517.127 311.412 517.177 312.072 517.217C312.862 517.277 313.652 517.337 314.452 517.397C315.552 517.487 316.652 517.577 317.772 517.667C318.882 517.767 320.012 517.867 321.142 517.967C322.272 518.067 323.412 518.177 324.552 518.287C324.672 518.297 324.782 518.307 324.892 518.317C325.932 518.427 326.972 518.527 328.022 518.637C333.842 519.227 339.832 519.917 345.992 520.707C349.672 521.177 353.399 521.68 357.172 522.217C362.902 523.027 368.722 523.907 374.582 524.847C380.452 525.797 386.356 526.8 392.292 527.857C393.792 528.127 395.292 528.397 396.802 528.677C398.642 529.017 400.482 529.363 402.322 529.717C403.482 529.937 404.642 530.157 405.802 530.387C407.182 530.657 408.572 530.927 409.952 531.197C419.042 532.997 428.082 534.917 436.902 536.927C438.352 537.257 439.802 537.597 441.242 537.927C444.122 538.597 446.976 539.277 449.802 539.967C450.582 540.157 451.352 540.347 452.122 540.537C454.052 541.017 455.962 541.497 457.852 541.977V541.987C457.962 542.007 458.072 542.037 458.182 542.067C459.562 542.417 460.932 542.767 462.292 543.127C465.502 543.967 468.659 544.813 471.762 545.667C473.822 546.247 475.862 546.817 477.872 547.397C480.882 548.277 483.832 549.157 486.702 550.037C487.412 550.257 488.122 550.477 488.822 550.687C490.922 551.347 492.982 552.003 495.002 552.657C496.602 553.177 498.162 553.707 499.702 554.237C501.242 554.767 502.752 555.297 504.232 555.827C505.192 556.167 506.132 556.517 507.062 556.857C508.422 557.357 509.742 557.857 511.042 558.367C511.442 558.517 511.832 558.677 512.222 558.827C512.952 559.107 513.662 559.397 514.362 559.687C514.832 559.867 515.292 560.057 515.752 560.257C516.202 560.437 516.662 560.627 517.102 560.817C517.552 560.997 517.992 561.187 518.432 561.387C518.802 561.537 519.162 561.697 519.512 561.857C520.222 562.167 520.932 562.477 521.622 562.797C521.962 562.957 522.302 563.107 522.642 563.267L523.422 563.627C523.532 563.687 523.642 563.737 523.752 563.787C524.602 564.187 525.422 564.587 526.222 564.987C526.972 565.367 527.702 565.747 528.402 566.117C529.232 566.557 530.022 566.987 530.782 567.427C530.932 567.507 531.082 567.597 531.232 567.677C531.742 567.967 532.232 568.267 532.722 568.557C533.682 569.147 534.592 569.727 535.442 570.307C536.282 570.887 537.062 571.457 537.792 572.027C537.792 572.037 537.792 572.037 537.802 572.037C538.152 572.317 538.492 572.597 538.812 572.867C539.332 573.317 539.812 573.747 540.252 574.187C540.4 574.322 540.54 574.466 540.672 574.617C540.73 574.665 540.784 574.718 540.832 574.777C541.042 575.007 541.252 575.237 541.452 575.467C541.692 575.747 541.912 576.027 542.122 576.307C542.222 576.447 542.332 576.587 542.422 576.727C542.542 576.897 542.662 577.077 542.762 577.247C542.852 577.387 542.932 577.537 543.012 577.677C543.225 578.037 543.405 578.415 543.552 578.807C543.662 579.073 543.752 579.347 543.822 579.627C543.898 579.892 543.955 580.163 543.992 580.437Z" fill="black"/>
<path d="M654 72C631.909 72 614 89.9086 614 112C614 134.091 631.909 152 654 152C676.091 152 694 134.091 694 112L654 72Z" fill="#E74C3C"/>
<path opacity="0.4" d="M654 72V112H694L654 72Z" fill="#F8F6DE"/>
<path d="M651.812 116.635C650.257 116.635 649.043 117.005 648.14 117.755C647.238 118.491 646.786 119.496 646.786 120.802C646.786 121.427 646.89 121.972 647.099 122.417C647.321 122.861 647.585 123.243 647.932 123.562C648.293 123.882 648.724 124.147 649.182 124.37C649.654 124.578 650.14 124.788 650.64 124.969C651.14 125.135 651.58 125.309 651.968 125.489C652.357 125.656 652.668 125.828 652.932 126.036C653.21 126.231 653.418 126.463 653.557 126.713C653.71 126.963 653.791 127.252 653.791 127.599C653.791 128.182 653.571 128.634 653.14 128.953C652.71 129.272 652.027 129.448 651.083 129.448C650.18 129.448 649.404 129.344 648.765 129.135C648.126 128.927 647.63 128.719 647.255 128.51L646.474 130.646C646.64 130.743 646.873 130.859 647.151 130.984C647.428 131.095 647.765 131.212 648.14 131.323C648.529 131.434 648.956 131.514 649.442 131.583C649.942 131.667 650.486 131.713 651.083 131.713C652.861 131.713 654.203 131.354 655.119 130.646C656.05 129.923 656.526 128.904 656.526 127.599C656.526 126.918 656.434 126.352 656.239 125.88C656.045 125.394 655.755 124.977 655.38 124.63C655.019 124.269 654.567 123.969 654.026 123.719C653.498 123.455 652.883 123.187 652.203 122.937C651.814 122.798 651.468 122.647 651.135 122.495C650.816 122.342 650.526 122.18 650.276 122C650.04 121.819 649.842 121.623 649.703 121.401C649.578 121.165 649.521 120.887 649.521 120.568C649.521 120.04 649.731 119.635 650.119 119.344C650.522 119.052 651.078 118.901 651.786 118.901C652.383 118.901 652.949 118.97 653.505 119.109C654.074 119.248 654.595 119.444 655.067 119.708L655.875 117.573C655.472 117.337 654.916 117.142 654.208 116.948C653.514 116.739 652.715 116.635 651.812 116.635ZM663.479 120.229C662.646 120.229 661.906 120.38 661.239 120.672C660.573 120.963 659.993 121.356 659.521 121.87C659.062 122.384 658.703 123.01 658.453 123.719C658.203 124.413 658.088 125.153 658.088 125.958C658.088 126.778 658.205 127.542 658.427 128.25C658.649 128.944 658.972 129.559 659.416 130.073C659.875 130.573 660.455 130.953 661.135 131.245C661.83 131.522 662.626 131.661 663.557 131.661C664.154 131.661 664.746 131.616 665.302 131.505C665.871 131.394 666.3 131.253 666.578 131.114L666.213 129.031C665.908 129.156 665.536 129.26 665.119 129.344C664.703 129.427 664.3 129.474 663.869 129.474C662.717 129.474 661.882 129.161 661.396 128.536C660.909 127.897 660.666 127.042 660.666 125.958C660.666 124.833 660.934 123.965 661.448 123.354C661.961 122.729 662.701 122.417 663.687 122.417C664.104 122.417 664.498 122.463 664.859 122.547C665.234 122.63 665.557 122.734 665.849 122.859L666.396 120.802C665.479 120.427 664.507 120.229 663.479 120.229ZM672.047 120.229C670.783 120.229 669.788 120.531 669.052 121.114C668.316 121.684 667.932 122.458 667.932 123.458C667.932 123.972 668.014 124.399 668.166 124.76C668.333 125.107 668.566 125.422 668.843 125.672C669.121 125.922 669.432 126.128 669.807 126.323C670.196 126.503 670.625 126.677 671.083 126.844C671.833 127.121 672.378 127.389 672.698 127.625C673.031 127.861 673.192 128.149 673.192 128.51C673.192 128.899 673.029 129.177 672.724 129.344C672.418 129.496 671.932 129.578 671.265 129.578C670.599 129.578 669.996 129.509 669.468 129.37C668.955 129.231 668.515 129.08 668.14 128.927L667.698 131.036C667.934 131.134 668.364 131.274 668.948 131.427C669.531 131.594 670.281 131.661 671.239 131.661C672.67 131.661 673.783 131.408 674.547 130.88C675.324 130.338 675.718 129.552 675.718 128.51C675.718 128.024 675.635 127.607 675.51 127.26C675.385 126.913 675.189 126.587 674.911 126.323C674.647 126.045 674.312 125.802 673.896 125.594C673.479 125.371 672.982 125.165 672.385 124.943C672.024 124.818 671.698 124.689 671.448 124.578C671.198 124.453 671.001 124.351 670.849 124.239C670.696 124.114 670.58 123.962 670.51 123.823C670.455 123.684 670.432 123.535 670.432 123.354C670.432 122.993 670.607 122.739 670.927 122.573C671.246 122.392 671.663 122.286 672.177 122.286C672.746 122.286 673.231 122.357 673.661 122.469C674.092 122.566 674.451 122.656 674.729 122.781L675.198 120.75C674.906 120.639 674.453 120.522 673.869 120.411C673.286 120.286 672.685 120.229 672.047 120.229ZM681.552 120.229C680.288 120.229 679.293 120.531 678.557 121.114C677.821 121.684 677.463 122.458 677.463 123.458C677.463 123.972 677.545 124.399 677.698 124.76C677.864 125.107 678.071 125.422 678.349 125.672C678.626 125.922 678.963 126.128 679.338 126.323C679.727 126.503 680.156 126.677 680.614 126.844C681.364 127.121 681.883 127.389 682.203 127.625C682.536 127.861 682.698 128.149 682.698 128.51C682.698 128.899 682.56 129.177 682.255 129.344C681.949 129.496 681.463 129.578 680.797 129.578C680.13 129.578 679.527 129.509 679 129.37C678.486 129.231 678.047 129.08 677.672 128.927L677.229 131.036C677.465 131.134 677.869 131.274 678.453 131.427C679.036 131.594 679.812 131.661 680.771 131.661C682.201 131.661 683.288 131.408 684.052 130.88C684.83 130.338 685.224 129.552 685.224 128.51C685.224 128.024 685.166 127.607 685.041 127.26C684.916 126.913 684.72 126.587 684.442 126.323C684.178 126.045 683.843 125.802 683.427 125.594C683.01 125.371 682.488 125.165 681.89 124.943C681.529 124.818 681.229 124.689 680.979 124.578C680.729 124.453 680.533 124.351 680.38 124.239C680.227 124.114 680.111 123.962 680.041 123.823C679.986 123.684 679.963 123.535 679.963 123.354C679.963 122.993 680.113 122.739 680.432 122.573C680.751 122.392 681.168 122.286 681.682 122.286C682.251 122.286 682.762 122.357 683.192 122.469C683.623 122.566 683.982 122.656 684.26 122.781L684.703 120.75C684.411 120.639 683.984 120.522 683.401 120.411C682.817 120.286 682.191 120.229 681.552 120.229Z" fill="#F8F6DE"/>
<path d="M525.994 57.1582C521.558 57.1582 517.962 60.7544 517.962 65.1905C517.962 69.6266 521.558 73.2221 525.994 73.2221C530.43 73.2221 534.026 69.6266 534.026 65.1905C534.023 60.7552 530.428 57.1614 525.994 57.1582ZM525.994 69.1655C523.799 69.1655 522.018 67.386 522.018 65.1905C522.018 62.9951 523.799 61.2148 525.994 61.2148C528.189 61.2148 529.97 62.9951 529.97 65.1905C529.966 67.3844 528.188 69.1623 525.994 69.1655Z" fill="url(#paint0_linear_194_975)"/>
<path d="M564.045 40.8509C560.678 35.5774 553.437 33.3867 543.68 34.6441C543.336 34.6845 542.971 34.7455 542.626 34.7859C542.484 34.4618 542.342 34.137 542.18 33.8129C537.981 24.9083 532.241 20 525.994 20C519.747 20 513.987 24.9083 509.808 33.8129C509.666 34.137 509.504 34.4618 509.362 34.7859C508.997 34.7257 508.652 34.6845 508.307 34.6441C498.531 33.3661 491.31 35.5774 487.943 40.8509C484.577 46.1245 485.61 53.6085 490.844 61.9245C491.534 63.0202 492.284 64.1152 493.095 65.1903C492.284 66.2853 491.534 67.3604 490.844 68.4554C485.61 76.7714 484.577 84.276 487.943 89.5297C490.681 93.8295 495.996 96.0813 503.155 96.0813C504.871 96.0718 506.585 95.9569 508.287 95.7358C508.632 95.6954 508.997 95.6344 509.341 95.594C509.484 95.9188 509.626 96.2429 509.788 96.5677C513.987 105.472 519.727 110.381 525.973 110.381C532.221 110.381 537.981 105.472 542.159 96.5677C542.301 96.2429 542.463 95.9188 542.605 95.594C542.971 95.655 543.315 95.6954 543.661 95.7358C545.361 95.9664 547.075 96.0813 548.792 96.0813C555.952 96.0813 561.265 93.8295 564.004 89.5297C567.371 84.2562 566.336 76.7714 561.104 68.4554C560.414 67.3604 559.663 66.2655 558.852 65.1903C559.663 64.0946 560.414 63.0202 561.104 61.9245C566.397 53.5887 567.432 46.1039 564.045 40.8509ZM513.48 35.537C516.907 28.2352 521.471 24.0566 525.994 24.0566C530.517 24.0566 535.081 28.2352 538.508 35.537C538.511 35.552 538.518 35.5663 538.529 35.5774C534.22 36.6137 530.018 38.0462 525.973 39.8566C521.933 38.0375 517.729 36.6042 513.419 35.5774C513.459 35.5774 513.459 35.5568 513.48 35.537ZM544.269 65.1903C544.27 68.4356 544.094 71.6793 543.741 74.9055C541.213 76.9457 538.572 78.8416 535.831 80.5847C532.667 82.6161 529.375 84.4392 525.973 86.0413C522.579 84.4265 519.286 82.6043 516.116 80.5847C513.378 78.8369 510.737 76.9409 508.206 74.9055C507.502 68.4475 507.502 61.9324 508.206 55.4744C513.673 51.0811 519.637 47.3438 525.973 44.3394C529.368 45.9533 532.66 47.7756 535.831 49.7952C538.569 51.543 541.21 53.439 543.741 55.4744C544.094 58.7014 544.27 61.9443 544.269 65.1903ZM548.143 59.2877C550.129 61.1377 551.999 63.109 553.741 65.1903C551.999 67.2709 550.129 69.2421 548.143 71.0922C548.265 69.1455 548.326 67.1782 548.326 65.1903C548.326 63.2025 548.265 61.2352 548.143 59.2877ZM542.91 80.6663C542.269 84.1778 541.34 87.6306 540.131 90.9899C536.981 90.2785 533.889 89.3293 530.882 88.1503C533.275 86.893 535.669 85.5136 538.042 84.013C539.705 82.9378 541.328 81.8223 542.91 80.6663ZM521.105 88.1503C518.104 89.3443 515.011 90.2943 511.857 90.9899C510.648 87.6306 509.719 84.1778 509.078 80.6663C510.64 81.8223 512.263 82.9378 513.946 83.9924C516.319 85.5136 518.713 86.893 521.105 88.1503ZM503.845 71.0922C501.859 69.2421 499.99 67.2709 498.247 65.1903C499.99 63.109 501.859 61.1377 503.845 59.2877C503.723 61.2352 503.662 63.2025 503.662 65.1903C503.662 67.1782 503.723 69.1455 503.845 71.0922ZM509.078 49.7144C509.719 46.2021 510.648 42.7493 511.857 39.3907C515.007 40.1014 518.099 41.0506 521.105 42.2303C518.713 43.4877 516.319 44.8671 513.946 46.3677C512.282 47.4428 510.66 48.5584 509.078 49.7144ZM538.022 46.3677C535.669 44.8671 533.275 43.4671 530.862 42.2303C533.863 41.0363 536.956 40.0864 540.111 39.3907C541.319 42.7493 542.249 46.2021 542.89 49.7144C541.328 48.5584 539.705 47.4428 538.022 46.3677ZM494.272 59.7544C489.971 52.939 488.917 46.8344 491.351 43.021C493.298 39.9786 497.517 38.3354 503.216 38.3354C504.742 38.3417 506.267 38.4439 507.78 38.6396H507.82C506.179 43.4108 505.038 48.3389 504.413 53.3447C501.288 55.9521 498.378 58.8084 495.712 61.8841C495.204 61.1948 494.718 60.4849 494.272 59.7544ZM507.76 91.7204C506.247 91.9169 504.722 92.0184 503.196 92.0247C497.497 92.0247 493.278 90.4021 491.331 87.339C488.897 83.5257 489.951 77.421 494.251 70.6057C494.697 69.8958 495.185 69.1653 495.692 68.4554C498.357 71.5319 501.267 74.3873 504.393 76.9948C505.018 82.0013 506.16 86.9294 507.8 91.6998C507.8 91.7204 507.78 91.7204 507.76 91.7204ZM538.508 94.8437C535.081 102.146 530.517 106.324 525.994 106.324C521.471 106.324 516.907 102.146 513.48 94.8437C513.477 94.8286 513.47 94.8144 513.459 94.8033C517.768 93.767 521.97 92.3345 526.015 90.5233C530.054 92.3432 534.258 93.7765 538.569 94.8033C538.529 94.8033 538.529 94.8231 538.508 94.8437ZM557.716 70.6263C562.017 77.4409 563.071 83.5463 560.637 87.3596C558.203 91.1722 552.22 92.775 544.228 91.7204H544.187C545.828 86.9492 546.971 82.0211 547.595 77.0154C550.721 74.4079 553.631 71.5517 556.296 68.476C556.783 69.1859 557.27 69.8958 557.716 70.6263ZM547.575 53.3653C546.95 48.3587 545.809 43.4306 544.168 38.6602H544.208C552.199 37.6255 558.183 39.2077 560.617 43.021C563.051 46.8344 561.996 52.939 557.696 59.7544C557.25 60.4643 556.763 61.1948 556.256 61.9047C553.602 58.8234 550.699 55.9672 547.575 53.3653Z" fill="url(#paint1_linear_194_975)"/>
<path d="M177.532 79.5966C177.186 79.2184 176.699 79 176.183 79H99.8179C99.3012 79 98.8138 79.2184 98.4682 79.5966C98.1233 79.9821 97.9555 80.4875 98.0101 81.0002L105.283 153.728C105.356 154.441 105.836 155.045 106.516 155.274L139.243 166.183C139.433 166.241 139.622 166.274 139.818 166.274C140.036 166.274 140.251 166.234 140.458 166.158L169.55 155.248C170.197 155.009 170.652 154.416 170.717 153.728L177.99 81.0002C178.044 80.4875 177.877 79.9821 177.532 79.5966Z" fill="#FFC107"/>
<path d="M139.818 166.274C139.622 166.274 139.433 166.241 139.243 166.183L106.516 155.274C105.836 155.049 105.356 154.441 105.283 153.728L98.0101 81.0002C97.9555 80.4875 98.1233 79.9821 98.4682 79.5966C98.8138 79.2184 99.3012 79 99.8179 79H176.183C176.699 79 177.186 79.2184 177.532 79.5966C177.877 79.9781 178.044 80.4875 177.99 81.0002L170.717 153.728C170.648 154.416 170.193 155.009 169.55 155.248L140.458 166.158C140.251 166.234 140.036 166.274 139.818 166.274ZM108.782 152.194L139.782 162.529L167.211 152.241L174.171 82.6362H101.829L108.782 152.194Z" fill="black"/>
<path d="M143.455 146.274C142.695 146.274 141.985 145.79 141.727 145.03C141.411 144.077 141.927 143.048 142.876 142.728L152.764 139.434L155.822 122.637H143.455C142.451 122.637 141.636 121.823 141.636 120.818V98.9999C141.636 97.9965 142.451 97.1821 143.455 97.1821H161.637C162.197 97.1821 162.728 97.4398 163.073 97.8799C163.418 98.3201 163.538 98.8947 163.404 99.44L161.586 106.713C161.342 107.687 160.367 108.269 159.382 108.037C158.404 107.793 157.815 106.804 158.058 105.833L159.305 100.818H145.273V119.001H158C158.538 119.001 159.051 119.237 159.397 119.655C159.742 120.066 159.887 120.615 159.79 121.146L156.153 141.146C156.033 141.801 155.567 142.335 154.938 142.546L144.029 146.183C143.836 146.245 143.647 146.274 143.455 146.274Z" fill="black"/>
<path d="M136.182 146.274C136.015 146.274 135.847 146.252 135.68 146.201L122.953 142.564C122.298 142.379 121.807 141.841 121.669 141.171L119.851 132.081C119.651 131.095 120.291 130.139 121.28 129.943C122.214 129.735 123.218 130.379 123.418 131.371L125.018 139.372L134.363 142.044V100.818H114.363C113.36 100.818 112.545 100.004 112.545 98.9999C112.545 97.9965 113.36 97.1821 114.363 97.1821H136.182C137.185 97.1821 138 97.9965 138 98.9999V144.455C138 145.026 137.735 145.565 137.277 145.906C136.956 146.15 136.571 146.274 136.182 146.274Z" fill="black"/>
<path d="M296 22.1914L288.712 103.838L255.951 112.92L223.28 103.851L216 22.1914H296Z" fill="#004CE8"/>
<path d="M282.472 98.6387L288.701 28.8682H256V105.978L282.472 98.6387Z" fill="#0065F4"/>
<path d="M232.69 59.1548L233.588 69.1698H256L260.308 64.1623L256 59.1548H232.69Z" fill="#EBEBEB"/>
<path d="M256 38.8838H255.965H230.887L231.797 48.8991H256L260.308 43.8913L256 38.8838Z" fill="#EBEBEB"/>
<path d="M256 95.5849L260.308 90.2739L256 85.1649L255.956 85.1766L244.802 82.1648L244.089 74.1772H238.669H234.035L235.439 89.9025L255.954 95.5977L256 95.5849Z" fill="#EBEBEB"/>
<path d="M234.827 0H246.957V5.07259H239.9V10.1452H246.957V15.2178H234.827V0Z" fill="black"/>
<path d="M249.384 0H261.514V4.41095H254.456V5.29313H261.514V15.4383H249.384V10.8068H256.441V9.92463H249.384V0Z" fill="black"/>
<path d="M263.94 0H276.07V4.41095H269.012V5.29313H276.07V15.4383H263.94V10.8068H270.997V9.92463H263.94V0Z" fill="black"/>
<path d="M268.298 69.1698L267.135 82.1587L255.965 85.1736V95.5931L276.497 89.9028L276.648 88.2107L279.001 61.8441L279.245 59.1547L281.053 38.8838H255.965V48.8991H270.078L269.166 59.1547H255.965V69.1698H268.298Z" fill="white"/>
<path d="M351 11L356.623 90.2402L391 101.54L425.376 90.2402L431 11H351Z" fill="#FF7816"/>
<path d="M431 11L425.376 90.2402L391 101.54V11H431Z" fill="#FF4B00"/>
<path d="M415.987 35.0496H376.676L377.631 48.3122H415.032L412.751 80.4251L391 87.6933L369.249 80.4251L368.507 69.7093H379.117L379.329 72.6271L391 76.4995L402.671 72.6271L403.626 58.9223H367.711L365.271 24.4395H416.73L415.987 35.0496Z" fill="#ECECF1"/>
<path d="M415.032 48.312L412.751 80.4249L391 87.6931V76.4993L402.671 72.6269L403.626 58.9221H391V48.312H415.032Z" fill="#E2E2E7"/>
<path d="M416.73 24.4395L415.987 35.0496H391V24.4395H416.73Z" fill="#E2E2E7"/>
<defs>
<linearGradient id="paint0_linear_194_975" x1="525.994" y1="16.5115" x2="525.994" y2="114.845" gradientUnits="userSpaceOnUse">
<stop stop-color="#00EFD1"/>
<stop offset="1" stop-color="#00ACEA"/>
</linearGradient>
<linearGradient id="paint1_linear_194_975" x1="526" y1="16.5114" x2="526" y2="114.844" gradientUnits="userSpaceOnUse">
<stop stop-color="#00EFD1"/>
<stop offset="1" stop-color="#00ACEA"/>
</linearGradient>
</defs>
</svg>
