<svg width="497" height="341" viewBox="0 0 497 341" fill="none" xmlns="http://www.w3.org/2000/svg">
<path d="M496.8 292C496.8 319.2 474.4 340.8 448 340.8H48C21.6 340.8 0 319.2 0 292V48.8C0 21.6 21.6 0 48 0H448C474.4 0 496.8 21.6 496.8 48.8V292Z" fill="white"/>
<path d="M48 0H448C474.4 0 496.8 21.6 496.8 48.8V292C496.8 319.2 474.4 340.8 448 340.8L48 0Z" fill="#E9F3F4"/>
<path d="M496.8 292C496.8 319.2 474.4 340.8 448 340.8H48C21.6 340.8 0 319.2 0 292" fill="#D9ECED"/>
<path d="M48 0H448C474.4 0 496.8 21.6 496.8 48.8V137.6L48 0Z" fill="#D9ECED"/>
<path d="M0 48.8V86.4H496.8V48.8C496.8 44.8 495.2 41.6 494.4 37.6H1.6C0.8 41.6 0 44.8 0 48.8Z" fill="#0038B8"/>
<path d="M496.8 43.2C496.8 41.6 495.2 39.2 495.2 37.6H92L149.4 86.4H496.8V48C496.8 46.4 496.8 44.8 496.8 43.2Z" fill="#002F7A"/>
<path d="M0 254.4V292C0 296 0.8 299.2 1.6 303.2H495.2C496 300 496.8 296 496.8 292V254.4H0Z" fill="#0038B8"/>
<path d="M404 303.2H495.2C495.2 301.6 496 300 496 297.6C496 296 496.8 293.6 496.8 292V254.4H347.2L404 303.2Z" fill="#002F7A"/>
<path d="M206.4 169.8L185.6 205.1H227.2L248 240.7L268.8 205.1H310.8L289.6 169.8L310.8 134.2H268.8L248 98.4L227.2 134.2H185.6L206.4 169.8ZM203.2 195.7L212.8 179.8L222.4 195.7H203.2ZM217.6 169.8L232.8 144.2H263.2L278.4 169.8L263.2 195.7H232.8L217.6 169.8ZM248 220.9L238.4 205.1H256.8L248 220.9ZM292.8 195.7H274.4L284 179.8L292.8 195.7ZM292.8 144.2L284 159.3L274.4 144.2H292.8ZM248 118.2L257.6 134.2H238.4L248 118.2ZM212 159.2L202.4 144.1H221.6L212 159.2Z" fill="#0038B8"/>
<path d="M268.8 134.2L248 98.4L227.2 134.2H205.6L217.3 144.2H221.6L220 146.6L227.5 153L232.7 144.2H263.1L278.3 169.8L268 187.5L275.5 193.9L284 179.8L292.8 195.7H277.7L288.7 205.1H310.8L289.6 169.8L310.8 134.2H268.8ZM238.4 134.2L248 118.2L257.6 134.2H238.4ZM284 159.2L274.4 144.1H292.8L284 159.2Z" fill="#002F7A"/>
</svg>
