<svg width="283" height="188" viewBox="0 0 283 188" fill="none" xmlns="http://www.w3.org/2000/svg">
<g clip-path="url(#clip0_11_154)">
<path d="M29.2707 183.26L33.9676 183.259L36.2022 166.278L29.2697 166.278L29.2707 183.26Z" fill="#FFB6B6"/>
<path d="M29.1051 187.852L43.5496 187.852V187.68C43.5495 186.283 42.9571 184.943 41.9028 183.954C40.8484 182.966 39.4184 182.411 37.9274 182.411H37.927L35.2886 180.535L30.3658 182.411L29.1049 182.411L29.1051 187.852Z" fill="#2F2E41"/>
<path d="M36.8558 162.714L40.5537 165.429L53.4857 153.353L48.028 149.346L36.8558 162.714Z" fill="#FFB6B6"/>
<path d="M33.7037 166.234L45.075 174.582L45.1877 174.448C46.1071 173.347 46.5226 171.95 46.3428 170.563C46.1629 169.175 45.4025 167.912 44.2288 167.05L44.2285 167.05L43.3859 164.048L38.276 162.68L37.2833 161.951L33.7037 166.234Z" fill="#2F2E41"/>
<path d="M58.9702 85.3423C58.9702 85.3423 65.2044 91.4017 62.4336 105.468L64.7597 129.553L65.3601 130.668C65.7178 131.332 65.8427 132.086 65.717 132.82C65.5913 133.555 65.2213 134.234 64.6598 134.76L64.1653 136.198L63.7035 139.011L46.502 163.248L39.9215 156.756L50.5426 134.034L47.6564 128.191L40.9605 107.848L36.3426 145.07L37.2662 177.098H28.4277L22.9508 141.391L17.1785 91.1852L20.181 85.3423H58.9702Z" fill="#2F2E41"/>
<path d="M18.6181 95.7538L18.5551 95.671C15.1909 91.2566 20.2506 80.6488 21.0138 79.1111C20.1076 78.8355 19.3313 78.2739 18.8172 77.5221C18.3032 76.7704 18.083 75.8748 18.1943 74.988L18.5233 72.367L18.8662 69.7962L16.4096 67.4937L16.4027 67.4363L14.9889 55.8421L12.9334 48.1415C12.1589 45.2303 12.2249 42.1784 13.1246 39.2991C14.0244 36.4198 15.7254 33.8167 18.0532 31.7572L22.8046 31.0501L28.579 25.8354H37.891L41.0838 28.6945C47.0441 29.6743 48.0681 29.3544 53.1879 35.1126L50.8615 53.0153L50.2811 55.4781L50.2829 58.8186L51.7583 60.3554C52.2898 60.909 52.676 61.5713 52.8862 62.2895C53.0963 63.0077 53.1246 63.762 52.9687 64.4923L52.7747 65.4015C54.2964 66.0128 55.7485 76.8751 56.0954 78.3923L56.6136 80.6587C57.057 81.207 59.9834 84.8642 59.9834 85.8639C59.9834 86.014 59.8652 86.1591 59.6115 86.3201C57.6172 87.5858 49.6662 96.5642 44.7876 94.7345C39.591 92.7871 18.9335 95.7086 18.7254 95.7383L18.6181 95.7538Z" fill="#3F3D56"/>
<path d="M17.367 74.936C17.367 74.936 19.7583 62.2696 17.3492 57.5059L7.79224 58.1457L9.24667 76.216L17.6013 96.2796C17.4737 96.8977 17.523 97.5365 17.744 98.1311C17.9651 98.7256 18.35 99.2547 18.8598 99.6648C19.3696 100.075 19.986 100.351 20.6466 100.466C21.3071 100.58 21.9882 100.529 22.6208 100.317C23.2533 100.105 23.8148 99.7399 24.2481 99.2589C24.6815 98.7778 24.9713 98.1978 25.0882 97.5778C25.2051 96.9578 25.1449 96.3199 24.9136 95.7287C24.6824 95.1376 24.2885 94.6143 23.7717 94.2121L17.367 74.936Z" fill="#FFB6B6"/>
<path d="M7.7922 50.7879L8.38368 44.751C8.60629 42.4789 9.306 40.2705 10.4426 38.2527C11.5791 36.235 13.1301 34.4478 15.0063 32.9939C16.172 32.0973 17.5821 31.524 19.0771 31.3391C20.5722 31.1541 22.0927 31.3647 23.4667 31.9472C25.3237 32.7484 26.7867 34.1807 27.56 35.9543C28.3334 37.728 28.3592 39.7107 27.6325 41.5015C25.4236 46.9311 26.2212 52.673 21.9141 53.373L22.3821 55.4596L18.1472 68.4126L6.08557 67.1031L7.7922 50.7879Z" fill="#3F3D56"/>
<path d="M71.4065 68.9326C71.4065 68.9326 64.4062 57.8684 59.2654 55.7295L52.4653 62.0559L66.141 74.8661L86.4347 84.9701C86.7681 85.5167 87.2499 85.9708 87.8311 86.2865C88.4124 86.6021 89.0724 86.768 89.7441 86.7672C90.4159 86.7665 91.0755 86.5992 91.6559 86.2823C92.2364 85.9654 92.7171 85.5102 93.0491 84.9629C93.3812 84.4156 93.5529 83.7957 93.5467 83.1661C93.5405 82.5365 93.3567 81.9197 93.0139 81.3782C92.6711 80.8368 92.1816 80.3899 91.595 80.0831C91.0084 79.7763 90.3456 79.6204 89.674 79.6313L71.4065 68.9326Z" fill="#FFB6B6"/>
<path d="M47.3459 56.4779L43.5939 51.5397C42.1817 49.6811 41.1756 47.5792 40.6333 45.3549C40.0911 43.1306 40.0233 40.8277 40.4341 38.5788C40.6939 37.1865 41.3641 35.8901 42.3688 34.8361C43.3736 33.782 44.6728 33.0124 46.1197 32.6141C48.085 32.0866 50.1907 32.2782 52.0111 33.1501C53.8314 34.0221 55.2305 35.5093 55.9256 37.3112C58.0289 42.7775 65.7006 51.7614 62.9224 54.9246L64.729 56.2205L67.4591 63.5102L57.404 69.8896L47.3459 56.4779Z" fill="#3F3D56"/>
<path d="M32.6067 23.3163C38.3182 23.3163 42.9483 18.9768 42.9483 13.6237C42.9483 8.27055 38.3182 3.931 32.6067 3.931C26.8952 3.931 22.2651 8.27055 22.2651 13.6237C22.2651 18.9768 26.8952 23.3163 32.6067 23.3163Z" fill="#FFB6B6"/>
<path d="M25.1024 20.4555C25.0118 20.3813 24.9264 20.3021 24.8379 20.2258C24.8347 20.2337 24.8342 20.2417 24.8308 20.2495L25.1024 20.4555Z" fill="#2F2E41"/>
<path d="M41.0815 3.38821C40.5677 2.61297 39.856 1.96984 39.0106 1.51686C38.4328 1.25421 37.8257 1.05258 37.2004 0.915699L35.5637 0.497177C34.7252 0.253978 33.8624 0.0911614 32.9888 0.011239C31.7756 -0.0448536 30.5693 0.212601 29.5016 0.755479C28.434 1.29836 27.546 2.10578 26.9347 3.08956C26.4403 3.91157 26.0436 4.9359 25.0893 5.23664C24.3198 5.47915 23.4802 5.13708 22.6715 5.20344C22.1976 5.2678 21.7479 5.44073 21.3624 5.70691C20.9768 5.97308 20.6673 6.32428 20.4612 6.72938C20.0581 7.54459 19.8597 8.43553 19.8813 9.33379C19.8495 11.3732 20.2742 13.3961 21.1279 15.2722C21.9816 17.1483 23.2454 18.8358 24.8378 20.2259C25.1047 19.5665 24.6651 18.8545 24.3176 18.2237C23.9659 17.5855 23.7486 16.6956 24.3376 16.2359C24.9929 15.7244 26.0429 16.2204 26.8179 15.8868C27.0658 15.7533 27.2747 15.5644 27.4257 15.3368C27.5768 15.1093 27.6653 14.8502 27.6835 14.5827C27.7585 14.0527 27.6802 13.514 27.7157 12.9804C27.7509 12.4515 27.8975 11.9343 28.1471 11.4588C28.3968 10.9832 28.7444 10.5588 29.17 10.2099C29.5956 9.86096 30.0908 9.59455 30.6269 9.426C31.163 9.25746 31.7294 9.19012 32.2934 9.22789C34.0575 9.34599 35.7695 10.4758 37.4672 10.011C38.2641 9.79284 38.9437 9.23733 39.7679 9.14389C40.6807 9.0404 41.5393 9.5232 42.3143 9.98679C42.596 8.86596 42.6319 7.70322 42.42 6.569C42.2081 5.43477 41.7527 4.35266 41.0815 3.38821Z" fill="#2F2E41"/>
<path d="M76.9336 182.406L74.302 178.443L73.7763 180.708C73.6842 181.104 73.592 181.508 73.5067 181.907C72.7592 181.309 71.9639 180.756 71.1858 180.225C68.7965 178.6 66.4084 176.972 64.0214 175.343L64.7688 179.406C65.2297 181.907 65.711 184.46 66.8509 186.748C66.9773 187.007 67.1137 187.263 67.2606 187.512H78.3672C78.4565 187.28 78.5183 187.04 78.5515 186.796C78.5543 186.78 78.5554 186.764 78.5548 186.748C78.729 185.196 77.8142 183.734 76.9336 182.406Z" fill="#F0F0F0"/>
<path d="M269.467 178.126L264.694 170.936L263.74 175.045C263.573 175.764 263.406 176.495 263.251 177.221C261.895 176.135 260.453 175.132 259.041 174.168C254.707 171.221 250.376 168.269 246.046 165.314L247.402 172.683C248.237 177.221 249.111 181.851 251.178 186C251.407 186.47 251.655 186.934 251.921 187.387H272.067C272.229 186.966 272.342 186.531 272.402 186.087C272.407 186.058 272.409 186.029 272.408 186C272.724 183.186 271.064 180.534 269.467 178.126Z" fill="#F0F0F0"/>
<path d="M282.594 187.902L0.406573 188C0.298992 188 0.195925 187.959 0.119964 187.888C0.0440019 187.817 0.00134277 187.72 0.00134277 187.619C0.00134277 187.518 0.0440019 187.422 0.119964 187.35C0.195925 187.279 0.298992 187.238 0.406573 187.238L282.594 187.14C282.701 187.14 282.804 187.18 282.88 187.252C282.956 187.323 282.999 187.42 282.999 187.521C282.999 187.622 282.956 187.718 282.88 187.79C282.804 187.861 282.701 187.901 282.594 187.902Z" fill="#CACACA"/>
<path d="M88.538 76.2323V168.052C88.539 169.223 89.0353 170.344 89.9181 171.172C90.8009 171.999 91.998 172.464 93.2464 172.465H238.424C239.672 172.464 240.869 171.999 241.752 171.172C242.635 170.344 243.131 169.223 243.132 168.052V76.2323C243.129 75.0632 242.632 73.9428 241.75 73.1166C240.867 72.2904 239.671 71.8256 238.424 71.8242H93.2464C91.999 71.8256 90.8031 72.2904 89.9206 73.1166C89.0381 73.9428 88.5409 75.0632 88.538 76.2323Z" fill="#3F3D56"/>
<path d="M91.9437 77.3748V166.92C91.9449 167.545 92.2104 168.144 92.682 168.586C93.1537 169.028 93.7931 169.277 94.4601 169.278H237.215C237.882 169.277 238.522 169.028 238.993 168.586C239.465 168.144 239.731 167.545 239.732 166.92V77.3748C239.732 76.7488 239.467 76.1484 238.995 75.7054C238.523 75.2623 237.883 75.0127 237.215 75.0113H94.4601C93.7923 75.0127 93.1523 75.2623 92.6805 75.7054C92.2088 76.1484 91.9438 76.7488 91.9437 77.3748Z" fill="white"/>
<path d="M85.5018 185.96C85.7677 186.272 86.1058 186.524 86.4906 186.697C86.8753 186.869 87.2968 186.958 87.7233 186.956H243.174C243.599 186.955 244.019 186.866 244.403 186.695C244.786 186.523 245.124 186.273 245.392 185.964C245.66 185.654 245.851 185.293 245.951 184.906C246.051 184.518 246.058 184.115 245.97 183.725L243.557 172.982C243.457 172.544 243.242 172.136 242.931 171.796C242.62 171.456 242.223 171.194 241.776 171.035C241.453 170.916 241.109 170.855 240.761 170.855H90.1268C89.7795 170.855 89.4352 170.916 89.1118 171.035C88.6652 171.194 88.2683 171.456 87.9572 171.796C87.6461 172.136 87.4308 172.544 87.3308 172.982L84.9177 183.725C84.8318 184.115 84.8397 184.518 84.9407 184.904C85.0418 185.291 85.2334 185.651 85.5018 185.96Z" fill="#2F2E41"/>
<path d="M235.036 175.482H239.49C239.583 175.482 239.657 175.412 239.657 175.326V172.946C239.657 172.86 239.583 172.79 239.49 172.79H235.036C234.944 172.79 234.869 172.86 234.869 172.946V175.326C234.869 175.412 234.944 175.482 235.036 175.482Z" fill="#3F3D56"/>
<path d="M225.46 175.482H229.915C230.007 175.482 230.081 175.412 230.081 175.326V172.946C230.081 172.86 230.007 172.79 229.915 172.79H225.46C225.368 172.79 225.294 172.86 225.294 172.946V175.326C225.294 175.412 225.368 175.482 225.46 175.482Z" fill="#3F3D56"/>
<path d="M215.885 175.482H220.339C220.431 175.482 220.506 175.412 220.506 175.326V172.946C220.506 172.86 220.431 172.79 220.339 172.79H215.885C215.793 172.79 215.718 172.86 215.718 172.946V175.326C215.718 175.412 215.793 175.482 215.885 175.482Z" fill="#3F3D56"/>
<path d="M206.309 175.482H210.764C210.856 175.482 210.93 175.412 210.93 175.326V172.946C210.93 172.86 210.856 172.79 210.764 172.79H206.309C206.217 172.79 206.142 172.86 206.142 172.946V175.326C206.142 175.412 206.217 175.482 206.309 175.482Z" fill="#3F3D56"/>
<path d="M196.733 175.482H201.188C201.28 175.482 201.354 175.412 201.354 175.326V172.946C201.354 172.86 201.28 172.79 201.188 172.79H196.733C196.641 172.79 196.567 172.86 196.567 172.946V175.326C196.567 175.412 196.641 175.482 196.733 175.482Z" fill="#3F3D56"/>
<path d="M187.158 175.482H191.612C191.704 175.482 191.779 175.412 191.779 175.326V172.946C191.779 172.86 191.704 172.79 191.612 172.79H187.158C187.066 172.79 186.991 172.86 186.991 172.946V175.326C186.991 175.412 187.066 175.482 187.158 175.482Z" fill="#3F3D56"/>
<path d="M177.582 175.482H182.037C182.129 175.482 182.203 175.412 182.203 175.326V172.946C182.203 172.86 182.129 172.79 182.037 172.79H177.582C177.49 172.79 177.415 172.86 177.415 172.946V175.326C177.415 175.412 177.49 175.482 177.582 175.482Z" fill="#3F3D56"/>
<path d="M168.006 175.482H172.461C172.553 175.482 172.628 175.412 172.628 175.326V172.946C172.628 172.86 172.553 172.79 172.461 172.79H168.006C167.914 172.79 167.84 172.86 167.84 172.946V175.326C167.84 175.412 167.914 175.482 168.006 175.482Z" fill="#3F3D56"/>
<path d="M158.431 175.482H162.885C162.977 175.482 163.052 175.412 163.052 175.326V172.946C163.052 172.86 162.977 172.79 162.885 172.79H158.431C158.339 172.79 158.264 172.86 158.264 172.946V175.326C158.264 175.412 158.339 175.482 158.431 175.482Z" fill="#3F3D56"/>
<path d="M148.855 175.482H153.31C153.402 175.482 153.476 175.412 153.476 175.326V172.946C153.476 172.86 153.402 172.79 153.31 172.79H148.855C148.763 172.79 148.689 172.86 148.689 172.946V175.326C148.689 175.412 148.763 175.482 148.855 175.482Z" fill="#3F3D56"/>
<path d="M139.279 175.482H143.734C143.826 175.482 143.901 175.412 143.901 175.326V172.946C143.901 172.86 143.826 172.79 143.734 172.79H139.279C139.187 172.79 139.113 172.86 139.113 172.946V175.326C139.113 175.412 139.187 175.482 139.279 175.482Z" fill="#3F3D56"/>
<path d="M129.704 175.482H134.158C134.25 175.482 134.325 175.412 134.325 175.326V172.946C134.325 172.86 134.25 172.79 134.158 172.79H129.704C129.612 172.79 129.537 172.86 129.537 172.946V175.326C129.537 175.412 129.612 175.482 129.704 175.482Z" fill="#3F3D56"/>
<path d="M120.128 175.482H124.583C124.675 175.482 124.749 175.412 124.749 175.326V172.946C124.749 172.86 124.675 172.79 124.583 172.79H120.128C120.036 172.79 119.962 172.86 119.962 172.946V175.326C119.962 175.412 120.036 175.482 120.128 175.482Z" fill="#3F3D56"/>
<path d="M110.553 175.482H115.007C115.099 175.482 115.174 175.412 115.174 175.326V172.946C115.174 172.86 115.099 172.79 115.007 172.79H110.553C110.461 172.79 110.386 172.86 110.386 172.946V175.326C110.386 175.412 110.461 175.482 110.553 175.482Z" fill="#3F3D56"/>
<path d="M100.977 175.482H105.432C105.524 175.482 105.598 175.412 105.598 175.326V172.946C105.598 172.86 105.524 172.79 105.432 172.79H100.977C100.885 172.79 100.81 172.86 100.81 172.946V175.326C100.81 175.412 100.885 175.482 100.977 175.482Z" fill="#3F3D56"/>
<path d="M91.4013 175.482H95.8558C95.9479 175.482 96.0225 175.412 96.0225 175.326V172.946C96.0225 172.86 95.9479 172.79 95.8558 172.79H91.4013C91.3092 172.79 91.2346 172.86 91.2346 172.946V175.326C91.2346 175.412 91.3092 175.482 91.4013 175.482Z" fill="#3F3D56"/>
<path d="M235.149 179.97H239.604C239.696 179.97 239.77 179.9 239.77 179.814V177.434C239.77 177.347 239.696 177.277 239.604 177.277H235.149C235.057 177.277 234.982 177.347 234.982 177.434V179.814C234.982 179.9 235.057 179.97 235.149 179.97Z" fill="#3F3D56"/>
<path d="M225.573 179.97H230.028C230.12 179.97 230.195 179.9 230.195 179.814V177.434C230.195 177.347 230.12 177.277 230.028 177.277H225.573C225.481 177.277 225.407 177.347 225.407 177.434V179.814C225.407 179.9 225.481 179.97 225.573 179.97Z" fill="#3F3D56"/>
<path d="M215.998 179.97H220.452C220.544 179.97 220.619 179.9 220.619 179.814V177.434C220.619 177.347 220.544 177.277 220.452 177.277H215.998C215.906 177.277 215.831 177.347 215.831 177.434V179.814C215.831 179.9 215.906 179.97 215.998 179.97Z" fill="#3F3D56"/>
<path d="M206.422 179.97H210.877C210.969 179.97 211.043 179.9 211.043 179.814V177.434C211.043 177.347 210.969 177.277 210.877 177.277H206.422C206.33 177.277 206.256 177.347 206.256 177.434V179.814C206.256 179.9 206.33 179.97 206.422 179.97Z" fill="#3F3D56"/>
<path d="M196.846 179.97H201.301C201.393 179.97 201.468 179.9 201.468 179.814V177.434C201.468 177.347 201.393 177.277 201.301 177.277H196.846C196.754 177.277 196.68 177.347 196.68 177.434V179.814C196.68 179.9 196.754 179.97 196.846 179.97Z" fill="#3F3D56"/>
<path d="M187.271 179.97H191.725C191.817 179.97 191.892 179.9 191.892 179.814V177.434C191.892 177.347 191.817 177.277 191.725 177.277H187.271C187.179 177.277 187.104 177.347 187.104 177.434V179.814C187.104 179.9 187.179 179.97 187.271 179.97Z" fill="#3F3D56"/>
<path d="M177.695 179.97H182.15C182.242 179.97 182.316 179.9 182.316 179.814V177.434C182.316 177.347 182.242 177.277 182.15 177.277H177.695C177.603 177.277 177.529 177.347 177.529 177.434V179.814C177.529 179.9 177.603 179.97 177.695 179.97Z" fill="#3F3D56"/>
<path d="M168.12 179.97H172.574C172.666 179.97 172.741 179.9 172.741 179.814V177.434C172.741 177.347 172.666 177.277 172.574 177.277H168.12C168.028 177.277 167.953 177.347 167.953 177.434V179.814C167.953 179.9 168.028 179.97 168.12 179.97Z" fill="#3F3D56"/>
<path d="M158.544 179.97H162.998C163.09 179.97 163.165 179.9 163.165 179.814V177.434C163.165 177.347 163.09 177.277 162.998 177.277H158.544C158.452 177.277 158.377 177.347 158.377 177.434V179.814C158.377 179.9 158.452 179.97 158.544 179.97Z" fill="#3F3D56"/>
<path d="M148.968 179.97H153.423C153.515 179.97 153.589 179.9 153.589 179.814V177.434C153.589 177.347 153.515 177.277 153.423 177.277H148.968C148.876 177.277 148.802 177.347 148.802 177.434V179.814C148.802 179.9 148.876 179.97 148.968 179.97Z" fill="#3F3D56"/>
<path d="M139.393 179.97H143.847C143.939 179.97 144.014 179.9 144.014 179.814V177.434C144.014 177.347 143.939 177.277 143.847 177.277H139.393C139.301 177.277 139.226 177.347 139.226 177.434V179.814C139.226 179.9 139.301 179.97 139.393 179.97Z" fill="#3F3D56"/>
<path d="M129.817 179.97H134.272C134.364 179.97 134.438 179.9 134.438 179.814V177.434C134.438 177.347 134.364 177.277 134.272 177.277H129.817C129.725 177.277 129.65 177.347 129.65 177.434V179.814C129.65 179.9 129.725 179.97 129.817 179.97Z" fill="#3F3D56"/>
<path d="M120.241 179.97H124.696C124.788 179.97 124.863 179.9 124.863 179.814V177.434C124.863 177.347 124.788 177.277 124.696 177.277H120.241C120.149 177.277 120.075 177.347 120.075 177.434V179.814C120.075 179.9 120.149 179.97 120.241 179.97Z" fill="#3F3D56"/>
<path d="M110.666 179.97H115.12C115.212 179.97 115.287 179.9 115.287 179.814V177.434C115.287 177.347 115.212 177.277 115.12 177.277H110.666C110.574 177.277 110.499 177.347 110.499 177.434V179.814C110.499 179.9 110.574 179.97 110.666 179.97Z" fill="#3F3D56"/>
<path d="M101.09 179.97H105.545C105.637 179.97 105.711 179.9 105.711 179.814V177.434C105.711 177.347 105.637 177.277 105.545 177.277H101.09C100.998 177.277 100.923 177.347 100.923 177.434V179.814C100.923 179.9 100.998 179.97 101.09 179.97Z" fill="#3F3D56"/>
<path d="M91.5144 179.97H95.969C96.061 179.97 96.1356 179.9 96.1356 179.814V177.434C96.1356 177.347 96.061 177.277 95.969 177.277H91.5144C91.4224 177.277 91.3478 177.347 91.3478 177.434V179.814C91.3478 179.9 91.4224 179.97 91.5144 179.97Z" fill="#3F3D56"/>
<path d="M145.09 185.355H183.06C183.152 185.355 183.226 185.285 183.226 185.198V182.818C183.226 182.732 183.152 182.662 183.06 182.662H145.09C144.998 182.662 144.924 182.732 144.924 182.818V185.198C144.924 185.285 144.998 185.355 145.09 185.355Z" fill="#3F3D56"/>
<path d="M198.359 129.254C198.343 136.813 195.311 144.093 189.858 149.663C184.406 155.233 176.927 158.69 168.893 159.354C160.859 160.018 152.851 157.841 146.443 153.252C140.034 148.662 135.689 141.992 134.262 134.552C132.835 127.112 134.429 119.441 138.73 113.047C143.031 106.653 149.729 101.998 157.507 99.9975C165.285 97.9971 173.579 98.7959 180.76 102.237C187.941 105.678 193.489 111.512 196.314 118.593C196.384 118.77 196.453 118.948 196.52 119.128V119.129C196.818 119.919 197.08 120.722 197.307 121.541C198.008 124.059 198.361 126.651 198.359 129.254Z" fill="#3F3D56"/>
<path d="M162.28 108.689C160.818 107.948 159.196 107.53 157.535 107.467C155.875 107.403 154.222 107.696 152.7 108.322C151.361 108.868 149.951 109.848 149.504 111.618C151.311 110.618 153.65 112.198 154.115 114.731L154.007 114.759C153.761 116.514 154.309 118.424 155.371 119.513C155.45 119.022 155.644 118.553 155.941 118.142C156.237 117.73 156.627 117.385 157.083 117.133C157.863 116.652 158.726 116.303 159.321 115.477C160.027 114.498 160.206 113.067 160.486 111.762C160.766 110.456 161.298 109.053 162.28 108.689Z" fill="#24385D"/>
<path d="M152.165 123.622C151.664 124.326 150.996 124.768 150.396 125.319C149.703 125.909 149.249 126.705 149.109 127.573C149.033 128.185 149.151 128.809 149.135 129.428C149.118 130.048 148.898 130.746 148.448 130.9C147.738 131.14 147.196 129.904 146.466 129.818C145.886 129.75 145.364 130.605 145.532 131.347C145.7 132.089 146.49 132.417 146.943 131.933C147.353 132.578 147.064 133.748 146.448 133.946C146.383 134.353 146.318 134.757 146.255 135.164C144.697 134.143 143.124 133.105 141.799 131.609C140.326 129.961 139.413 127.937 139.176 125.798C139.004 124.079 139.259 122.113 138.417 120.791C137.743 119.732 136.587 119.499 135.546 119.565C135.357 119.576 135.165 119.597 134.975 119.619C135.589 117.891 136.369 116.219 137.304 114.623C137.516 114.538 137.713 114.423 137.888 114.283C138.856 113.513 139.286 111.953 140.072 110.874C140.123 110.805 140.175 110.737 140.229 110.671C141.033 109.687 142.11 109.181 143.151 108.71C145.454 107.662 147.825 106.6 150.257 106.746L149.565 106.809C148.757 108.929 147.949 111.049 147.14 113.169C147.017 113.494 146.893 113.82 146.768 114.146C146.309 115.351 145.836 116.635 145.906 117.985C145.948 118.784 146.244 119.637 146.808 119.912C147.333 120.166 147.908 119.854 148.416 119.546C148.631 119.417 148.844 119.289 149.059 119.158C149.83 118.693 150.685 118.215 151.5 118.527C152.246 118.811 152.797 119.761 152.902 120.786C152.998 121.781 152.738 122.779 152.165 123.622Z" fill="#24385D"/>
<path d="M156.753 138.096C154.5 136.796 152.246 135.496 149.993 134.195L150.032 134.103C148.631 134.603 148.049 136.937 148.281 138.846C148.512 140.755 149.297 142.461 149.694 144.321C150.228 146.866 150.027 149.498 149.109 151.946C152.072 148.83 154.694 145.443 156.936 141.837C157.249 141.383 157.488 140.887 157.644 140.366C157.809 139.811 157.75 139.218 157.478 138.701C157.294 138.446 157.045 138.238 156.753 138.096Z" fill="#24385D"/>
<path d="M147.86 114.441C147.596 114.973 147.555 115.58 147.746 116.139C147.969 116.59 148.372 116.94 148.868 117.113L150.113 117.691C150.527 117.884 150.974 118.078 151.396 117.92C151.905 117.729 152.258 116.981 152.167 116.286C152.07 115.547 151.573 115.038 151.113 114.605C150.469 113.999 149.826 113.393 149.183 112.787L148.82 113.204C148.428 113.562 148.103 113.981 147.86 114.441Z" fill="#24385D"/>
<path d="M191.685 122.343C192.245 122.467 192.805 122.591 193.365 122.714C193.268 124.487 192.33 126.128 191.072 126.722C190.548 126.97 189.965 127.061 189.531 127.523C189.139 127.943 188.94 128.597 188.758 129.222C188.438 130.312 188.118 131.403 187.799 132.493C187.455 133.669 187.014 134.974 186.122 135.398C185.356 135.762 184.48 135.316 183.891 134.569C183.302 133.823 182.942 132.819 182.593 131.84C182.615 132.907 182.086 133.953 181.336 134.324C180.584 134.695 179.67 134.359 179.168 133.531C178.806 132.937 178.657 132.153 178.302 131.55C177.948 130.947 177.206 130.602 176.819 131.167C176.564 131.543 176.597 132.119 176.47 132.597C176.407 132.914 176.239 133.204 175.991 133.428C175.743 133.652 175.427 133.797 175.086 133.845C174.773 133.838 174.465 133.772 174.18 133.65C173.895 133.528 173.64 133.353 173.43 133.135C172.323 132.074 171.603 130.713 171.372 129.246C171.215 128.542 171.235 127.814 171.43 127.119C171.652 126.46 172.188 125.952 172.721 126.077C173.072 125.383 172.38 124.462 171.757 124.543C171.132 124.624 170.642 125.253 170.129 125.735C169.617 126.218 168.902 126.568 168.387 126.089C168.393 126.18 168.379 126.272 168.345 126.357C168.312 126.443 168.26 126.522 168.192 126.588C168.125 126.654 168.044 126.706 167.954 126.741C167.864 126.776 167.767 126.793 167.67 126.792C167.327 126.7 167.009 126.542 166.736 126.328C165.556 125.639 164.058 126.096 163.22 127.4C163.744 125.31 164.512 122.912 166.121 122.421C166.779 122.22 167.496 122.386 168.118 122.037C169.218 121.419 169.44 119.084 168.49 118.12C168.611 119.031 168.588 120.095 168.075 120.718C167.561 121.341 166.485 120.935 166.55 120.013C166.535 120.143 166.477 120.265 166.384 120.362C166.291 120.458 166.168 120.525 166.032 120.552C165.896 120.579 165.754 120.565 165.627 120.512C165.5 120.459 165.394 120.37 165.325 120.257C164.983 119.77 165.012 118.972 165.254 118.389C165.504 117.862 165.862 117.385 166.308 116.987C167.166 116.125 168.037 115.253 169.03 114.711C170.026 114.17 171.175 113.987 172.172 114.525C172.698 114.81 173.16 115.284 173.697 115.534C173.826 115.609 173.969 115.659 174.118 115.681C174.268 115.703 174.42 115.696 174.567 115.662C174.714 115.627 174.852 115.566 174.973 115.48C175.094 115.395 175.195 115.288 175.271 115.165C175.67 114.508 175.482 113.533 175.63 112.712C175.896 111.26 177.444 110.581 178.302 111.54C177.661 111.386 176.998 112.097 176.918 112.959C176.837 113.821 177.302 114.691 177.923 114.952C178.967 115.385 179.99 114.295 180.779 113.286C181.603 112.229 182.428 111.173 183.255 110.117C183.387 109.938 183.535 109.769 183.697 109.613C183.956 109.376 184.301 109.241 184.662 109.234C185.024 109.227 185.374 109.349 185.643 109.576C186.478 110.214 186.87 111.523 187.555 112.424C188.548 113.733 190.035 114.051 191.419 114.305C192.451 114.493 193.483 114.682 194.516 114.872C195.204 116.073 195.805 117.316 196.314 118.593C194.42 119.402 192.813 120.704 191.685 122.343Z" fill="#24385D"/>
<path d="M197.307 121.541C197.096 122.126 196.98 122.737 196.964 123.354C196.079 122.342 195.938 120.443 196.52 119.129C196.818 119.919 197.08 120.722 197.307 121.541Z" fill="#24385D"/>
<path d="M195.02 142.718C194.246 144.191 193.346 145.603 192.328 146.939C191.678 146.679 190.978 147.144 190.37 147.581C189.734 148.038 188.969 148.484 188.317 148.067C187.65 147.641 187.435 146.447 187.647 145.5C187.89 144.627 188.315 143.807 188.897 143.089C189.439 142.33 190.019 141.543 190.772 141.248C191.528 140.953 192.498 141.37 192.718 142.376L193.253 142.359C192.953 141.973 193.11 141.174 193.513 141.033C193.978 140.869 194.38 141.466 194.655 141.995C194.778 142.234 194.903 142.474 195.02 142.718Z" fill="#24385D"/>
<path d="M174.538 135.565C173.388 135.633 172.478 134.307 171.873 133.002C171.268 131.697 170.716 130.205 169.679 129.541C169.086 129.161 168.41 129.109 167.767 128.925C167.403 128.839 167.065 128.673 166.783 128.44C166.501 128.207 166.282 127.914 166.144 127.586L165.415 127.31C164.395 127.788 163.461 128.412 162.647 129.16C161.716 130.087 161.136 131.275 160.997 132.54C160.858 133.908 161.372 135.434 162.333 135.948C163.093 136.354 163.977 136.098 164.746 136.469C165.707 136.934 166.278 138.283 166.494 139.615C166.71 140.947 166.655 142.331 166.81 143.679C166.964 145.026 167.39 146.428 168.271 147.118C169.374 147.982 170.993 147.264 171.488 145.691C171.73 144.92 171.722 144.05 171.903 143.249C172.223 141.839 173.086 140.792 173.77 139.636C174.454 138.479 174.993 136.908 174.538 135.565Z" fill="#24385D"/>
<path d="M163.179 121.708C163.286 121.801 163.386 121.9 163.479 122.006C163.574 122.16 163.623 122.336 163.619 122.514C163.616 122.692 163.561 122.866 163.46 123.017C163.599 123.009 163.734 122.975 163.858 122.916C163.981 122.857 164.09 122.775 164.178 122.674C164.388 122.45 164.573 122.207 164.729 121.947C164.803 121.858 164.855 121.756 164.883 121.647C164.911 121.537 164.914 121.424 164.892 121.313C164.837 121.168 164.709 121.106 164.619 120.997C164.494 120.783 164.409 120.551 164.367 120.311C164.317 120.086 164.201 119.878 164.032 119.711C163.863 119.544 163.648 119.425 163.411 119.366L163.468 119.377C163.37 119.431 163.293 119.513 163.247 119.611C163.201 119.709 163.189 119.817 163.212 119.922C163.247 120.133 163.392 120.309 163.378 120.524C163.357 120.834 163.026 120.98 163.006 121.29C163.003 121.445 163.065 121.595 163.179 121.708Z" fill="#24385D"/>
<path d="M161.21 116.443L161.215 116.442C161.25 116.411 161.282 116.378 161.312 116.343L161.21 116.443Z" fill="#24385D"/>
<path d="M161.555 117.897C161.693 117.783 161.795 117.636 161.85 117.472C161.905 117.308 161.911 117.132 161.867 116.965C161.783 116.613 161.488 116.376 161.215 116.441C161.136 116.516 161.038 116.571 160.93 116.601C160.822 116.631 160.707 116.634 160.597 116.611C160.429 116.571 160.244 116.466 160.098 116.585C160.014 116.674 159.955 116.781 159.927 116.897C159.873 117.052 159.819 117.208 159.765 117.363C159.739 117.419 159.733 117.481 159.746 117.54C159.756 117.564 159.773 117.585 159.794 117.601C159.816 117.617 159.841 117.628 159.869 117.632C160.193 117.722 160.518 117.811 160.842 117.901C160.954 117.949 161.076 117.974 161.199 117.973C161.322 117.972 161.443 117.946 161.555 117.897Z" fill="#24385D"/>
<path d="M186.061 137.98C185.911 137.749 185.761 137.519 185.611 137.289C185.464 137.022 185.262 136.785 185.018 136.591C184.964 136.549 184.902 136.517 184.835 136.498C184.768 136.478 184.698 136.472 184.628 136.478C184.558 136.485 184.491 136.504 184.429 136.536C184.367 136.567 184.313 136.61 184.27 136.661L184.288 136.793C184.69 137.196 184.963 137.697 185.078 138.238C185.113 138.474 185.101 138.717 185.131 138.954C185.134 139.063 185.16 139.171 185.208 139.271C185.256 139.371 185.324 139.462 185.409 139.537C185.645 139.685 185.923 139.467 186.091 139.201C186.241 138.982 186.308 138.722 186.282 138.463C186.245 138.29 186.169 138.125 186.061 137.98Z" fill="#24385D"/>
<path d="M188.415 138.279C188.444 138.064 188.425 137.845 188.36 137.636C188.35 137.354 188.429 137.076 188.589 136.836C188.748 136.611 188.869 136.363 188.946 136.103C188.979 135.984 188.973 135.859 188.929 135.743C188.88 135.639 188.759 135.591 188.69 135.674L188.838 135.763C188.639 135.73 188.434 135.739 188.239 135.79C188.127 135.83 188.028 135.895 187.949 135.978C187.87 136.062 187.814 136.162 187.784 136.27C187.76 136.439 187.72 136.606 187.665 136.768C187.577 136.938 187.407 136.994 187.3 137.143C187.227 137.275 187.19 137.422 187.192 137.571C187.195 137.72 187.237 137.866 187.315 137.995C187.449 138.207 187.663 138.365 187.915 138.438C188.095 138.498 188.333 138.502 188.415 138.279Z" fill="#24385D"/>
<path d="M192.607 139.465C192.672 139.624 192.76 139.774 192.867 139.912C193.068 140.101 193.34 139.985 193.584 139.939C193.805 139.906 194.031 139.93 194.239 140.008C194.446 140.086 194.627 140.215 194.763 140.382C194.669 139.94 194.463 139.527 194.162 139.176C193.862 138.824 193.476 138.546 193.037 138.363C192.466 138.178 191.865 138.09 191.262 138.103L191.158 138.128C191.421 138.845 192.246 138.829 192.607 139.465Z" fill="#24385D"/>
<path d="M174.852 140.931L174.854 140.934L174.884 140.88L174.852 140.931Z" fill="#24385D"/>
<path d="M174.216 142.084C174.078 142.32 173.959 142.566 173.86 142.819C173.729 143.229 173.642 143.65 173.601 144.076C173.569 144.318 173.559 144.628 173.721 144.746C173.767 144.774 173.823 144.787 173.879 144.78C173.934 144.772 173.985 144.747 174.021 144.707C174.111 144.618 174.185 144.516 174.239 144.404C174.557 143.89 174.804 143.34 174.974 142.768C175.152 142.161 175.109 141.516 174.854 140.934C174.641 141.317 174.429 141.701 174.216 142.084Z" fill="#24385D"/>
<path d="M168.081 111.347C168.182 111.44 168.31 111.503 168.449 111.528C168.587 111.553 168.731 111.54 168.862 111.49C169.132 111.379 169.381 111.225 169.596 111.035C169.774 110.912 169.925 110.757 170.041 110.58C170.105 110.475 170.146 110.358 170.161 110.237C170.177 110.117 170.167 109.994 170.132 109.877C170.082 109.765 170.003 109.667 169.901 109.592C169.8 109.516 169.679 109.466 169.551 109.447C169.191 109.347 168.831 109.247 168.47 109.146L168.731 108.926C168.463 108.791 168.166 109.042 167.998 109.352C167.891 109.554 167.816 109.77 167.776 109.993C167.719 110.226 167.717 110.468 167.77 110.702C167.822 110.936 167.929 111.156 168.081 111.347Z" fill="#24385D"/>
<path d="M174.443 109.346C174.544 109.451 174.685 109.515 174.835 109.527C174.986 109.538 175.136 109.496 175.254 109.408C175.356 109.336 175.44 109.245 175.502 109.14C175.564 109.036 175.602 108.921 175.613 108.802C175.638 108.536 175.498 108.241 175.298 108.218L175.344 107.969C174.958 107.904 174.484 107.891 174.277 108.33C174.208 108.498 174.186 108.68 174.215 108.858C174.244 109.037 174.323 109.205 174.443 109.346Z" fill="#24385D"/>
<path d="M231.939 91.222H99.737C99.6464 91.2201 99.5602 91.1851 99.4968 91.1244C99.4334 91.0637 99.3979 90.9821 99.3979 90.8972C99.3979 90.8123 99.4334 90.7307 99.4968 90.67C99.5602 90.6093 99.6464 90.5743 99.737 90.5724H231.939C232.029 90.5743 232.115 90.6093 232.179 90.67C232.242 90.7307 232.278 90.8123 232.278 90.8972C232.278 90.9821 232.242 91.0637 232.179 91.1244C232.115 91.1851 232.029 91.2201 231.939 91.222Z" fill="#CACACA"/>
<path d="M107.367 86.6746C109.427 86.6746 111.096 85.075 111.096 83.1017C111.096 81.1284 109.427 79.5287 107.367 79.5287C105.308 79.5287 103.638 81.1284 103.638 83.1017C103.638 85.075 105.308 86.6746 107.367 86.6746Z" fill="#3F3D56"/>
<path d="M120.249 86.6746C122.309 86.6746 123.978 85.075 123.978 83.1017C123.978 81.1284 122.309 79.5287 120.249 79.5287C118.19 79.5287 116.52 81.1284 116.52 83.1017C116.52 85.075 118.19 86.6746 120.249 86.6746Z" fill="#3F3D56"/>
<path d="M133.132 86.6746C135.191 86.6746 136.861 85.075 136.861 83.1017C136.861 81.1284 135.191 79.5287 133.132 79.5287C131.072 79.5287 129.403 81.1284 129.403 83.1017C129.403 85.075 131.072 86.6746 133.132 86.6746Z" fill="#3F3D56"/>
<path d="M224.219 80.4143H215.068C214.887 80.4177 214.714 80.4876 214.587 80.609C214.46 80.7304 214.389 80.8937 214.389 81.0637C214.389 81.2338 214.46 81.397 214.587 81.5184C214.714 81.6399 214.887 81.7098 215.068 81.7131H224.219C224.4 81.7098 224.573 81.6399 224.7 81.5184C224.827 81.397 224.898 81.2338 224.898 81.0637C224.898 80.8937 224.827 80.7304 224.7 80.609C224.573 80.4876 224.4 80.4177 224.219 80.4143Z" fill="#3F3D56"/>
<path d="M224.219 82.852H215.068C214.887 82.8554 214.714 82.9253 214.587 83.0467C214.46 83.1681 214.389 83.3314 214.389 83.5014C214.389 83.6714 214.46 83.8347 214.587 83.9561C214.714 84.0775 214.887 84.1474 215.068 84.1508H224.219C224.4 84.1474 224.573 84.0775 224.7 83.9561C224.827 83.8347 224.898 83.6714 224.898 83.5014C224.898 83.3314 224.827 83.1681 224.7 83.0467C224.573 82.9253 224.4 82.8554 224.219 82.852Z" fill="#3F3D56"/>
<path d="M224.219 85.2864H215.068C214.887 85.2898 214.714 85.3597 214.587 85.4811C214.46 85.6026 214.389 85.7658 214.389 85.9359C214.389 86.1059 214.46 86.2691 214.587 86.3906C214.714 86.512 214.887 86.5819 215.068 86.5853H224.219C224.4 86.5819 224.573 86.512 224.7 86.3906C224.827 86.2691 224.898 86.1059 224.898 85.9359C224.898 85.7658 224.827 85.6026 224.7 85.4811C224.573 85.3597 224.4 85.2898 224.219 85.2864Z" fill="#3F3D56"/>
<g opacity="0.35">
<path d="M235.441 130.756C237.569 129.886 233.254 129.38 228.358 129.214C223.462 129.047 217.54 129.056 214.411 128.583C211.385 128.125 211.608 127.311 211.354 126.574C211.099 125.836 209.936 125.08 205.214 124.916C199.331 124.711 189.628 125.498 185.187 125.026C181.042 124.585 183.506 123.203 177.462 123.15C174.011 123.12 169.565 123.576 165.725 123.686C163.003 123.796 160.276 123.663 157.581 123.288C155.709 123 154.405 122.636 152.299 122.382C146.768 121.716 135.948 121.94 126.29 122.794C116.633 123.648 108.354 125.048 103.686 126.434C99.0169 127.821 97.727 129.186 98.8146 130.344C99.509 131.083 101.286 131.774 105.597 132.071C113.66 132.627 128.015 131.671 136.346 132.176C140.99 132.458 143.05 133.156 147.124 133.539C151.501 133.949 157.909 133.971 164.205 133.961C177.313 133.941 190.756 133.815 204.464 133.583C210.19 133.487 216.189 133.361 222.282 132.9C228.375 132.439 234.589 131.55 235.874 130.717" fill="white"/>
</g>
</g>
<defs>
<clipPath id="clip0_11_154">
<rect width="283" height="188" fill="white"/>
</clipPath>
</defs>
</svg>
