<svg width="926" height="633" viewBox="0 0 926 633" fill="none" xmlns="http://www.w3.org/2000/svg">
<mask id="mask0_218_88" style="mask-type:luminance" maskUnits="userSpaceOnUse" x="0" y="0" width="926" height="633">
<path d="M926 0H0V633H926V0Z" fill="white"/>
</mask>
<g mask="url(#mask0_218_88)">
<path d="M95.7761 617.042L111.145 617.038L118.457 559.863H95.7728L95.7761 617.042Z" fill="#FFB6B6"/>
<path d="M95.2342 632.502H142.498V631.923C142.497 627.219 140.559 622.708 137.109 619.378C133.659 616.051 128.98 614.182 124.101 614.182L115.467 607.866L99.3593 614.182H95.2335L95.2342 632.502Z" fill="#1F1E31"/>
<path d="M120.595 547.862L132.695 557.003L175.01 516.343L157.152 502.852L120.595 547.862Z" fill="#FFB6B6"/>
<path d="M110.281 559.714L147.489 587.822L147.858 587.371C150.866 583.664 152.226 578.96 151.638 574.29C151.049 569.616 148.561 565.364 144.721 562.461L141.962 552.354L125.242 547.747L121.994 545.293L110.281 559.714Z" fill="#1F1E31"/>
<path d="M192.955 287.349C192.955 287.349 213.354 307.751 204.288 355.113L211.899 436.207L213.864 439.962C215.034 442.197 215.443 444.736 215.031 447.208C214.62 449.682 213.409 451.968 211.572 453.74L209.954 458.581L208.443 468.053L152.158 549.659L130.626 527.801L165.38 451.295L155.936 431.622L134.026 363.126L118.916 488.454L121.938 596.293H93.0177L75.0968 476.066L56.2094 307.022L66.0338 287.349H192.955Z" fill="#1F1E31"/>
<path d="M60.92 322.405L60.7138 322.126C49.7059 307.263 66.2617 271.546 68.7589 266.369C65.7937 265.441 63.2536 263.55 61.5714 261.019C59.8896 258.488 59.1691 255.472 59.5333 252.486L60.6098 243.661L61.7318 235.005L53.6936 227.253L53.671 227.059L49.0449 188.021L42.3192 162.093C39.7849 152.291 40.0009 142.016 42.9448 132.321C45.889 122.626 51.4548 113.861 59.0716 106.927L74.6186 104.546L93.5129 86.9883H123.983L134.43 96.6149C153.932 99.9139 157.283 98.8368 174.035 118.225L166.423 178.504L164.524 186.796L164.53 198.043L169.358 203.218C171.097 205.082 172.36 207.312 173.048 209.73C173.736 212.148 173.828 214.688 173.318 217.147L172.683 220.208C177.662 222.266 182.414 258.84 183.549 263.948L185.244 271.579C186.695 273.426 196.271 285.74 196.271 289.106C196.271 289.611 195.884 290.099 195.054 290.642C188.528 294.903 162.512 325.134 146.549 318.973C129.545 312.416 61.952 322.253 61.2711 322.353L60.92 322.405Z" fill="#2E2C46"/>
<path d="M56.8263 252.312C56.8263 252.312 64.6508 209.664 56.768 193.625L25.4968 195.779L30.2558 256.622L57.5929 324.177C57.1754 326.258 57.3367 328.409 58.0598 330.411C58.7833 332.413 60.0427 334.194 61.7108 335.575C63.3789 336.956 65.3958 337.885 67.5574 338.273C69.7186 338.656 71.9472 338.485 74.0171 337.771C76.0867 337.057 77.924 335.828 79.3418 334.208C80.7599 332.588 81.7082 330.635 82.0907 328.548C82.4732 326.46 82.2762 324.313 81.5194 322.322C80.7629 320.332 79.474 318.57 77.783 317.216L56.8263 252.312Z" fill="#FFB6B6"/>
<path d="M25.4967 171.004L27.4321 150.677C28.1605 143.027 30.45 135.592 34.169 128.798C37.8878 122.004 42.9628 115.986 49.1019 111.091C52.9161 108.072 57.5301 106.142 62.4219 105.519C67.314 104.896 72.2892 105.606 76.785 107.567C82.8613 110.264 87.6483 115.087 90.1786 121.059C92.7093 127.031 92.7937 133.707 90.4159 139.736C83.1881 158.018 85.798 177.351 71.7048 179.708L73.2361 186.734L59.3792 230.347L19.9125 225.937L25.4967 171.004Z" fill="#2E2C46"/>
<path d="M233.648 232.098C233.648 232.098 210.743 194.844 193.922 187.643L171.671 208.944L216.419 252.076L282.822 286.096C283.913 287.937 285.489 289.466 287.391 290.529C289.293 291.591 291.453 292.15 293.65 292.147C295.849 292.145 298.007 291.582 299.906 290.515C301.805 289.448 303.378 287.915 304.465 286.072C305.551 284.229 306.113 282.142 306.093 280.022C306.073 277.902 305.471 275.826 304.349 274.002C303.228 272.179 301.626 270.675 299.707 269.642C297.787 268.609 295.619 268.084 293.421 268.12L233.648 232.098Z" fill="#FFB6B6"/>
<path d="M154.92 190.163L142.643 173.536C138.022 167.278 134.73 160.201 132.956 152.712C131.181 145.223 130.96 137.469 132.304 129.897C133.154 125.209 135.347 120.844 138.634 117.295C141.922 113.746 146.173 111.154 150.908 109.813C157.338 108.037 164.228 108.682 170.185 111.618C176.141 114.554 180.719 119.561 182.993 125.629C189.875 144.034 214.978 174.283 205.887 184.933L211.799 189.297L220.732 213.841L187.831 235.321L154.92 190.163Z" fill="#2E2C46"/>
<path d="M106.692 78.507C125.38 78.507 140.531 63.8959 140.531 45.8719C140.531 27.8477 125.38 13.2363 106.692 13.2363C88.0035 13.2363 72.8534 27.8477 72.8534 45.8719C72.8534 63.8959 88.0035 78.507 106.692 78.507Z" fill="#FFB6B6"/>
<path d="M82.1372 68.875C81.8408 68.6251 81.5613 68.3585 81.2718 68.1016C81.2613 68.1282 81.2597 68.1551 81.2485 68.1814L82.1372 68.875Z" fill="#1F1E31"/>
<path d="M134.422 11.4089C132.741 8.79868 130.412 6.63324 127.646 5.10805C125.755 4.2237 123.769 3.54481 121.723 3.08393L116.367 1.67476C113.624 0.8559 110.801 0.307693 107.942 0.0385923C103.972 -0.150273 100.025 0.716582 96.5317 2.54446C93.0385 4.37236 90.1328 7.09096 88.1326 10.4034C86.5149 13.1711 85.2169 16.62 82.0943 17.6326C79.5764 18.4492 76.8292 17.2974 74.1831 17.5208C72.6324 17.7375 71.161 18.3198 69.8996 19.216C68.6379 20.1122 67.6252 21.2947 66.9508 22.6587C65.6318 25.4035 64.9826 28.4034 65.0533 31.4278C64.9492 38.2946 66.3389 45.1057 69.1323 51.4226C71.9256 57.7394 76.0609 63.4213 81.2714 68.1018C82.1447 65.8816 80.7063 63.4843 79.5692 61.3603C78.4185 59.2115 77.7074 56.2152 79.6347 54.6674C81.7789 52.9451 85.2146 54.6152 87.7504 53.4919C88.5616 53.0424 89.2451 52.4064 89.7392 51.6401C90.2336 50.8741 90.5232 50.0017 90.5828 49.101C90.8282 47.3165 90.572 45.5027 90.6881 43.706C90.8033 41.9252 91.283 40.1838 92.0997 38.5828C92.9167 36.9814 94.0541 35.5525 95.4467 34.3777C96.8393 33.2028 98.4596 32.3058 100.214 31.7383C101.968 31.1708 103.821 30.9441 105.667 31.0713C111.439 31.4689 117.041 35.273 122.596 33.708C125.203 32.9735 127.427 31.103 130.124 30.7884C133.111 30.44 135.92 32.0656 138.456 33.6265C139.378 29.8526 139.495 25.9377 138.802 22.1187C138.108 18.2997 136.618 14.6562 134.422 11.4089Z" fill="#1F1E31"/>
<path d="M251.733 614.166L243.122 600.823L241.402 608.449C241.101 609.782 240.799 611.142 240.52 612.486C238.074 610.472 235.472 608.61 232.926 606.823C225.108 601.351 217.294 595.87 209.483 590.385L211.929 604.065C213.437 612.486 215.012 621.082 218.742 628.786C219.155 629.658 219.602 630.52 220.082 631.358H256.424C256.716 630.577 256.918 629.769 257.027 628.947C257.036 628.893 257.04 628.84 257.038 628.786C257.608 623.56 254.614 618.637 251.733 614.166Z" fill="#F0F0F0"/>
<path d="M881.719 599.756L866.101 575.547L862.98 589.382C862.433 591.803 861.887 594.264 861.38 596.708C856.943 593.052 852.224 589.675 847.604 586.429C833.423 576.506 819.252 566.567 805.083 556.617L809.52 581.429C812.253 596.708 815.112 612.298 821.876 626.267C822.625 627.85 823.437 629.412 824.307 630.937H890.226C890.756 629.52 891.126 628.055 891.323 626.56C891.339 626.463 891.345 626.365 891.342 626.267C892.376 616.793 886.945 607.863 881.719 599.756Z" fill="#F0F0F0"/>
<path d="M924.671 632.671L1.33034 633.001C0.978328 633.001 0.641084 632.863 0.392533 632.624C0.143979 632.384 0.00439453 632.058 0.00439453 631.718C0.00439453 631.378 0.143979 631.055 0.392533 630.812C0.641084 630.573 0.978328 630.435 1.33034 630.435L924.671 630.105C925.022 630.105 925.359 630.24 925.607 630.482C925.856 630.721 925.997 631.048 925.997 631.388C925.997 631.728 925.856 632.051 925.607 632.294C925.359 632.533 925.022 632.667 924.671 632.671Z" fill="#CACACA"/>
<path d="M289.704 256.676V565.835C289.707 569.777 291.331 573.552 294.22 576.34C297.108 579.124 301.025 580.69 305.11 580.693H780.143C784.227 580.69 788.144 579.124 791.033 576.34C793.922 573.552 795.545 569.777 795.548 565.835V256.676C795.539 252.739 793.912 248.967 791.026 246.185C788.137 243.403 784.224 241.838 780.143 241.833H305.11C301.028 241.838 297.115 243.403 294.228 246.185C291.34 248.967 289.713 252.739 289.704 256.676Z" fill="#2E2C46"/>
<path d="M300.848 260.524V562.024C300.852 564.129 301.72 566.146 303.263 567.634C304.807 569.122 306.899 569.961 309.082 569.964H776.188C778.37 569.961 780.464 569.122 782.005 567.634C783.55 566.146 784.42 564.129 784.423 562.024V260.524C784.423 258.416 783.556 256.395 782.012 254.903C780.468 253.411 778.373 252.571 776.188 252.566H309.082C306.896 252.571 304.802 253.411 303.259 254.903C301.715 256.395 300.848 258.416 300.848 260.524Z" fill="white"/>
<path d="M279.769 626.131C280.639 627.182 281.746 628.03 283.005 628.613C284.263 629.192 285.643 629.492 287.038 629.485H795.686C797.077 629.481 798.451 629.182 799.707 628.606C800.961 628.027 802.067 627.185 802.943 626.145C803.82 625.101 804.445 623.886 804.773 622.583C805.1 621.276 805.123 619.919 804.835 618.606L796.939 582.434C796.612 580.959 795.908 579.586 794.891 578.441C793.873 577.296 792.574 576.414 791.112 575.879C790.055 575.478 788.929 575.272 787.79 575.272H294.903C293.766 575.272 292.64 575.478 291.581 575.879C290.12 576.414 288.821 577.296 287.803 578.441C286.785 579.586 286.081 580.959 285.754 582.434L277.858 618.606C277.577 619.919 277.603 621.276 277.933 622.576C278.264 623.879 278.891 625.091 279.769 626.131Z" fill="#1F1E31"/>
<path d="M769.058 590.852H783.632C783.936 590.852 784.178 590.616 784.178 590.326V582.313C784.178 582.023 783.936 581.788 783.632 581.788H769.058C768.757 581.788 768.511 582.023 768.511 582.313V590.326C768.511 590.616 768.757 590.852 769.058 590.852Z" fill="#2E2C46"/>
<path d="M737.724 590.852H752.301C752.602 590.852 752.844 590.616 752.844 590.326V582.313C752.844 582.023 752.602 581.788 752.301 581.788H737.724C737.423 581.788 737.181 582.023 737.181 582.313V590.326C737.181 590.616 737.423 590.852 737.724 590.852Z" fill="#2E2C46"/>
<path d="M706.394 590.852H720.968C721.269 590.852 721.514 590.616 721.514 590.326V582.313C721.514 582.023 721.269 581.788 720.968 581.788H706.394C706.093 581.788 705.848 582.023 705.848 582.313V590.326C705.848 590.616 706.093 590.852 706.394 590.852Z" fill="#2E2C46"/>
<path d="M675.06 590.852H689.638C689.939 590.852 690.181 590.616 690.181 590.326V582.313C690.181 582.023 689.939 581.788 689.638 581.788H675.06C674.759 581.788 674.514 582.023 674.514 582.313V590.326C674.514 590.616 674.759 590.852 675.06 590.852Z" fill="#2E2C46"/>
<path d="M643.727 590.852H658.304C658.605 590.852 658.848 590.616 658.848 590.326V582.313C658.848 582.023 658.605 581.788 658.304 581.788H643.727C643.426 581.788 643.184 582.023 643.184 582.313V590.326C643.184 590.616 643.426 590.852 643.727 590.852Z" fill="#2E2C46"/>
<path d="M612.397 590.852H626.971C627.272 590.852 627.517 590.616 627.517 590.326V582.313C627.517 582.023 627.272 581.788 626.971 581.788H612.397C612.096 581.788 611.85 582.023 611.85 582.313V590.326C611.85 590.616 612.096 590.852 612.397 590.852Z" fill="#2E2C46"/>
<path d="M581.064 590.852H595.641C595.942 590.852 596.184 590.616 596.184 590.326V582.313C596.184 582.023 595.942 581.788 595.641 581.788H581.064C580.763 581.788 580.517 582.023 580.517 582.313V590.326C580.517 590.616 580.763 590.852 581.064 590.852Z" fill="#2E2C46"/>
<path d="M549.73 590.852H564.307C564.608 590.852 564.853 590.616 564.853 590.326V582.313C564.853 582.023 564.608 581.788 564.307 581.788H549.73C549.429 581.788 549.187 582.023 549.187 582.313V590.326C549.187 590.616 549.429 590.852 549.73 590.852Z" fill="#2E2C46"/>
<path d="M518.4 590.852H532.974C533.275 590.852 533.52 590.616 533.52 590.326V582.313C533.52 582.023 533.275 581.788 532.974 581.788H518.4C518.099 581.788 517.853 582.023 517.853 582.313V590.326C517.853 590.616 518.099 590.852 518.4 590.852Z" fill="#2E2C46"/>
<path d="M487.066 590.852H501.643C501.944 590.852 502.186 590.616 502.186 590.326V582.313C502.186 582.023 501.944 581.788 501.643 581.788H487.066C486.765 581.788 486.523 582.023 486.523 582.313V590.326C486.523 590.616 486.765 590.852 487.066 590.852Z" fill="#2E2C46"/>
<path d="M455.733 590.852H470.31C470.611 590.852 470.856 590.616 470.856 590.326V582.313C470.856 582.023 470.611 581.788 470.31 581.788H455.733C455.432 581.788 455.19 582.023 455.19 582.313V590.326C455.19 590.616 455.432 590.852 455.733 590.852Z" fill="#2E2C46"/>
<path d="M424.402 590.852H438.976C439.277 590.852 439.523 590.616 439.523 590.326V582.313C439.523 582.023 439.277 581.788 438.976 581.788H424.402C424.101 581.788 423.856 582.023 423.856 582.313V590.326C423.856 590.616 424.101 590.852 424.402 590.852Z" fill="#2E2C46"/>
<path d="M393.069 590.852H407.646C407.947 590.852 408.189 590.616 408.189 590.326V582.313C408.189 582.023 407.947 581.788 407.646 581.788H393.069C392.768 581.788 392.526 582.023 392.526 582.313V590.326C392.526 590.616 392.768 590.852 393.069 590.852Z" fill="#2E2C46"/>
<path d="M361.739 590.852H376.313C376.614 590.852 376.859 590.616 376.859 590.326V582.313C376.859 582.023 376.614 581.788 376.313 581.788H361.739C361.438 581.788 361.192 582.023 361.192 582.313V590.326C361.192 590.616 361.438 590.852 361.739 590.852Z" fill="#2E2C46"/>
<path d="M330.406 590.852H344.983C345.284 590.852 345.526 590.616 345.526 590.326V582.313C345.526 582.023 345.284 581.788 344.983 581.788H330.406C330.105 581.788 329.859 582.023 329.859 582.313V590.326C329.859 590.616 330.105 590.852 330.406 590.852Z" fill="#2E2C46"/>
<path d="M299.073 590.852H313.648C313.95 590.852 314.194 590.616 314.194 590.326V582.313C314.194 582.023 313.95 581.788 313.648 581.788H299.073C298.771 581.788 298.527 582.023 298.527 582.313V590.326C298.527 590.616 298.771 590.852 299.073 590.852Z" fill="#2E2C46"/>
<path d="M769.427 605.964H784.004C784.305 605.964 784.548 605.728 784.548 605.439V597.425C784.548 597.132 784.305 596.896 784.004 596.896H769.427C769.126 596.896 768.881 597.132 768.881 597.425V605.439C768.881 605.728 769.126 605.964 769.427 605.964Z" fill="#2E2C46"/>
<path d="M738.094 605.964H752.671C752.972 605.964 753.218 605.728 753.218 605.439V597.425C753.218 597.132 752.972 596.896 752.671 596.896H738.094C737.793 596.896 737.551 597.132 737.551 597.425V605.439C737.551 605.728 737.793 605.964 738.094 605.964Z" fill="#2E2C46"/>
<path d="M706.764 605.964H721.338C721.639 605.964 721.884 605.728 721.884 605.439V597.425C721.884 597.132 721.639 596.896 721.338 596.896H706.764C706.463 596.896 706.218 597.132 706.218 597.425V605.439C706.218 605.728 706.463 605.964 706.764 605.964Z" fill="#2E2C46"/>
<path d="M675.43 605.964H690.008C690.309 605.964 690.551 605.728 690.551 605.439V597.425C690.551 597.132 690.309 596.896 690.008 596.896H675.43C675.129 596.896 674.887 597.132 674.887 597.425V605.439C674.887 605.728 675.129 605.964 675.43 605.964Z" fill="#2E2C46"/>
<path d="M644.097 605.964H658.674C658.975 605.964 659.22 605.728 659.22 605.439V597.425C659.22 597.132 658.975 596.896 658.674 596.896H644.097C643.796 596.896 643.553 597.132 643.553 597.425V605.439C643.553 605.728 643.796 605.964 644.097 605.964Z" fill="#2E2C46"/>
<path d="M612.767 605.964H627.341C627.642 605.964 627.887 605.728 627.887 605.439V597.425C627.887 597.132 627.642 596.896 627.341 596.896H612.767C612.466 596.896 612.22 597.132 612.22 597.425V605.439C612.22 605.728 612.466 605.964 612.767 605.964Z" fill="#2E2C46"/>
<path d="M581.433 605.964H596.01C596.311 605.964 596.554 605.728 596.554 605.439V597.425C596.554 597.132 596.311 596.896 596.01 596.896H581.433C581.132 596.896 580.89 597.132 580.89 597.425V605.439C580.89 605.728 581.132 605.964 581.433 605.964Z" fill="#2E2C46"/>
<path d="M550.103 605.964H564.677C564.978 605.964 565.223 605.728 565.223 605.439V597.425C565.223 597.132 564.978 596.896 564.677 596.896H550.103C549.802 596.896 549.556 597.132 549.556 597.425V605.439C549.556 605.728 549.802 605.964 550.103 605.964Z" fill="#2E2C46"/>
<path d="M518.769 605.964H533.343C533.644 605.964 533.89 605.728 533.89 605.439V597.425C533.89 597.132 533.644 596.896 533.343 596.896H518.769C518.468 596.896 518.223 597.132 518.223 597.425V605.439C518.223 605.728 518.468 605.964 518.769 605.964Z" fill="#2E2C46"/>
<path d="M487.436 605.964H502.013C502.314 605.964 502.556 605.728 502.556 605.439V597.425C502.556 597.132 502.314 596.896 502.013 596.896H487.436C487.135 596.896 486.893 597.132 486.893 597.425V605.439C486.893 605.728 487.135 605.964 487.436 605.964Z" fill="#2E2C46"/>
<path d="M456.106 605.964H470.679C470.98 605.964 471.226 605.728 471.226 605.439V597.425C471.226 597.132 470.98 596.896 470.679 596.896H456.106C455.805 596.896 455.559 597.132 455.559 597.425V605.439C455.559 605.728 455.805 605.964 456.106 605.964Z" fill="#2E2C46"/>
<path d="M424.772 605.964H439.349C439.65 605.964 439.893 605.728 439.893 605.439V597.425C439.893 597.132 439.65 596.896 439.349 596.896H424.772C424.471 596.896 424.226 597.132 424.226 597.425V605.439C424.226 605.728 424.471 605.964 424.772 605.964Z" fill="#2E2C46"/>
<path d="M393.439 605.964H408.016C408.317 605.964 408.562 605.728 408.562 605.439V597.425C408.562 597.132 408.317 596.896 408.016 596.896H393.439C393.138 596.896 392.895 597.132 392.895 597.425V605.439C392.895 605.728 393.138 605.964 393.439 605.964Z" fill="#2E2C46"/>
<path d="M362.109 605.964H376.682C376.983 605.964 377.229 605.728 377.229 605.439V597.425C377.229 597.132 376.983 596.896 376.682 596.896H362.109C361.808 596.896 361.562 597.132 361.562 597.425V605.439C361.562 605.728 361.808 605.964 362.109 605.964Z" fill="#2E2C46"/>
<path d="M330.775 605.964H345.352C345.653 605.964 345.895 605.728 345.895 605.439V597.425C345.895 597.132 345.653 596.896 345.352 596.896H330.775C330.474 596.896 330.229 597.132 330.229 597.425V605.439C330.229 605.728 330.474 605.964 330.775 605.964Z" fill="#2E2C46"/>
<path d="M299.443 605.964H314.019C314.32 605.964 314.564 605.728 314.564 605.439V597.425C314.564 597.132 314.32 596.896 314.019 596.896H299.443C299.142 596.896 298.898 597.132 298.898 597.425V605.439C298.898 605.728 299.142 605.964 299.443 605.964Z" fill="#2E2C46"/>
<path d="M474.747 624.095H598.988C599.289 624.095 599.531 623.859 599.531 623.566V615.553C599.531 615.263 599.289 615.027 598.988 615.027H474.747C474.446 615.027 474.203 615.263 474.203 615.553V623.566C474.203 623.859 474.446 624.095 474.747 624.095Z" fill="#2E2C46"/>
<path d="M649.047 435.202C648.995 460.654 639.074 485.165 621.231 503.92C603.392 522.674 578.92 534.314 552.632 536.55C526.344 538.785 500.141 531.455 479.174 516.004C458.203 500.549 443.986 478.091 439.317 453.041C434.647 427.99 439.863 402.162 453.936 380.633C468.009 359.104 489.926 343.431 515.376 336.695C540.826 329.96 567.965 332.649 591.462 344.235C614.959 355.821 633.112 375.465 642.356 399.306C642.585 399.902 642.811 400.502 643.03 401.108C644.005 403.768 644.862 406.475 645.605 409.232C647.899 417.711 649.054 426.438 649.047 435.202Z" fill="#A2DFF0"/>
<path d="M530.994 365.958C526.21 363.464 520.903 362.056 515.468 361.844C510.036 361.628 504.628 362.615 499.648 364.723C495.266 366.561 490.653 369.861 489.19 375.82C495.103 372.453 502.756 377.773 504.278 386.302L503.924 386.396C503.119 392.305 504.912 398.736 508.387 402.403C508.646 400.75 509.281 399.171 510.252 397.787C511.221 396.4 512.497 395.238 513.989 394.39C516.541 392.77 519.365 391.595 521.312 388.814C523.622 385.517 524.208 380.699 525.124 376.305C526.04 371.908 527.781 367.184 530.994 365.958Z" fill="#1A2B4A"/>
<path d="M497.897 416.239C496.257 418.61 494.072 420.098 492.108 421.953C489.841 423.94 488.355 426.62 487.897 429.543C487.648 431.603 488.035 433.704 487.982 435.788C487.927 437.876 487.207 440.226 485.734 440.745C483.411 441.553 481.638 437.391 479.249 437.101C477.351 436.873 475.643 439.751 476.193 442.25C476.743 444.748 479.328 445.852 480.81 444.223C482.151 446.394 481.206 450.334 479.19 451.001C478.977 452.371 478.765 453.731 478.559 455.102C473.461 451.664 468.314 448.169 463.978 443.132C459.158 437.583 456.171 430.768 455.396 423.566C454.833 417.778 455.667 411.159 452.912 406.707C450.707 403.142 446.924 402.357 443.518 402.579C442.899 402.616 442.271 402.687 441.65 402.761C443.659 396.943 446.211 391.313 449.27 385.94C449.964 385.653 450.608 385.266 451.181 384.795C454.348 382.202 455.755 376.95 458.327 373.317C458.494 373.084 458.664 372.855 458.841 372.633C461.472 369.32 464.996 367.616 468.402 366.03C475.938 362.502 483.696 358.926 491.654 359.418L489.389 359.63C486.745 366.768 484.102 373.906 481.454 381.044C481.052 382.138 480.646 383.236 480.237 384.334C478.735 388.391 477.188 392.714 477.417 397.26C477.554 399.95 478.523 402.822 480.368 403.748C482.086 404.603 483.967 403.552 485.63 402.515C486.333 402.081 487.03 401.65 487.734 401.209C490.256 399.643 493.054 398.034 495.721 399.084C498.162 400.041 499.965 403.239 500.308 406.691C500.622 410.041 499.772 413.401 497.897 416.239Z" fill="#1A2B4A"/>
<path d="M512.909 464.972C505.537 460.595 498.162 456.218 490.79 451.838L490.917 451.528C486.333 453.211 484.429 461.07 485.188 467.498C485.944 473.925 488.513 479.669 489.812 485.932C491.559 494.501 490.901 503.363 487.897 511.606C497.593 501.114 506.172 489.71 513.508 477.568C514.532 476.04 515.314 474.37 515.825 472.615C516.364 470.747 516.171 468.75 515.281 467.009C514.679 466.151 513.865 465.45 512.909 464.972Z" fill="#1A2B4A"/>
<path d="M483.811 385.326C482.947 387.117 482.813 389.161 483.438 391.043C484.167 392.562 485.486 393.74 487.109 394.323L491.183 396.269C492.537 396.919 494 397.572 495.381 397.04C497.046 396.397 498.201 393.878 497.903 391.538C497.586 389.05 495.96 387.336 494.455 385.878C492.347 383.838 490.243 381.797 488.14 379.757L486.952 381.161C485.669 382.366 484.606 383.777 483.811 385.326Z" fill="#1A2B4A"/>
<path d="M627.209 411.932C629.042 412.35 630.874 412.767 632.707 413.181C632.389 419.151 629.32 424.676 625.204 426.676C623.489 427.511 621.582 427.818 620.161 429.373C618.879 430.788 618.228 432.99 617.632 435.094C616.585 438.764 615.538 442.437 614.494 446.107C613.369 450.067 611.926 454.461 609.007 455.889C606.5 457.114 603.634 455.613 601.707 453.097C599.78 450.586 598.602 447.205 597.46 443.909C597.532 447.501 595.801 451.023 593.347 452.273C590.886 453.522 587.895 452.39 586.253 449.602C585.068 447.602 584.581 444.963 583.419 442.932C582.261 440.902 579.833 439.74 578.567 441.643C577.732 442.909 577.84 444.848 577.425 446.458C577.219 447.525 576.669 448.501 575.857 449.256C575.046 450.01 574.012 450.498 572.896 450.66C571.872 450.636 570.864 450.414 569.932 450.003C568.999 449.592 568.165 449.003 567.478 448.269C563.855 444.697 561.499 440.114 560.744 435.175C560.23 432.804 560.295 430.353 560.933 428.013C561.66 425.794 563.414 424.084 565.158 424.505C566.306 422.168 564.042 419.067 562.003 419.34C559.958 419.612 558.355 421.73 556.676 423.353C555.001 424.979 552.662 426.158 550.976 424.545C550.996 424.851 550.95 425.161 550.839 425.447C550.731 425.737 550.561 426.003 550.338 426.225C550.119 426.447 549.854 426.623 549.56 426.74C549.265 426.858 548.948 426.915 548.63 426.912C547.508 426.602 546.467 426.07 545.574 425.35C541.713 423.03 536.812 424.569 534.07 428.959C535.784 421.922 538.297 413.848 543.562 412.195C545.715 411.518 548.061 412.077 550.096 410.902C553.696 408.821 554.422 400.959 551.313 397.713C551.709 400.781 551.634 404.363 549.956 406.461C548.274 408.558 544.753 407.191 544.966 404.087C544.917 404.525 544.727 404.936 544.422 405.262C544.118 405.585 543.716 405.811 543.271 405.902C542.826 405.993 542.361 405.946 541.945 405.767C541.53 405.589 541.183 405.289 540.957 404.909C539.838 403.269 539.933 400.582 540.725 398.619C541.543 396.845 542.714 395.239 544.174 393.898C546.981 390.996 549.831 388.06 553.08 386.235C556.339 384.414 560.099 383.797 563.361 385.609C565.082 386.568 566.594 388.164 568.351 389.006C568.773 389.259 569.241 389.427 569.729 389.501C570.22 389.575 570.717 389.552 571.198 389.437C571.679 389.319 572.13 389.114 572.526 388.824C572.922 388.538 573.253 388.178 573.501 387.764C574.807 385.552 574.192 382.269 574.676 379.504C575.547 374.616 580.612 372.329 583.419 375.558C581.322 375.04 579.152 377.434 578.891 380.336C578.626 383.238 580.147 386.168 582.179 387.047C585.595 388.504 588.942 384.834 591.524 381.437C594.22 377.878 596.92 374.323 599.626 370.767C600.058 370.164 600.542 369.595 601.072 369.07C601.92 368.272 603.048 367.817 604.23 367.794C605.414 367.77 606.559 368.181 607.44 368.945C610.172 371.094 611.454 375.501 613.696 378.535C616.945 382.942 621.811 384.013 626.339 384.868C629.716 385.501 633.093 386.137 636.473 386.777C638.724 390.821 640.69 395.006 642.356 399.306C636.159 402.03 630.9 406.414 627.209 411.932Z" fill="#1A2B4A"/>
<path d="M645.605 409.233C644.915 411.202 644.535 413.26 644.483 415.337C641.587 411.93 641.126 405.536 643.03 401.111C644.005 403.771 644.862 406.475 645.605 409.233Z" fill="#1A2B4A"/>
<path d="M638.122 480.535C635.59 485.494 632.645 490.248 629.314 494.747C627.187 493.871 624.896 495.437 622.907 496.908C620.826 498.447 618.323 499.949 616.189 498.545C614.007 497.11 613.303 493.09 613.997 489.902C614.792 486.962 616.183 484.201 618.087 481.784C619.861 479.228 621.758 476.578 624.222 475.585C626.696 474.592 629.87 475.996 630.59 479.383L632.34 479.326C631.359 478.026 631.872 475.336 633.191 474.861C634.713 474.309 636.028 476.319 636.928 478.1C637.33 478.905 637.739 479.713 638.122 480.535Z" fill="#1A2B4A"/>
<path d="M571.103 456.451C567.341 456.679 564.363 452.215 562.383 447.821C560.404 443.427 558.598 438.403 555.204 436.168C553.264 434.888 551.052 434.713 548.948 434.094C547.757 433.804 546.651 433.245 545.728 432.461C544.806 431.676 544.089 430.689 543.638 429.585L541.252 428.656C537.915 430.265 534.859 432.366 532.195 434.885C529.149 438.006 527.251 442.006 526.796 446.265C526.341 450.871 528.023 456.009 531.168 457.74C533.654 459.107 536.547 458.245 539.063 459.494C542.208 461.06 544.076 465.602 544.783 470.087C545.49 474.572 545.31 479.232 545.817 483.771C546.321 488.306 547.715 493.026 550.597 495.35C554.206 498.259 559.504 495.841 561.124 490.545C561.915 487.949 561.889 485.02 562.481 482.323C563.529 477.575 566.352 474.05 568.59 470.158C570.829 466.262 572.592 460.972 571.103 456.451Z" fill="#1A2B4A"/>
<path d="M533.936 409.794C534.286 410.107 534.613 410.441 534.917 410.798C535.228 411.316 535.388 411.909 535.375 412.508C535.365 413.107 535.186 413.693 534.855 414.202C535.31 414.175 535.752 414.06 536.157 413.862C536.56 413.663 536.916 413.387 537.204 413.047C537.891 412.293 538.497 411.474 539.007 410.599C539.249 410.299 539.42 409.956 539.511 409.589C539.603 409.219 539.613 408.838 539.541 408.464C539.361 407.976 538.942 407.767 538.647 407.4C538.238 406.68 537.96 405.899 537.823 405.091C537.659 404.333 537.28 403.633 536.727 403.07C536.174 402.508 535.47 402.107 534.695 401.909L534.881 401.946C534.561 402.128 534.309 402.404 534.158 402.734C534.008 403.064 533.968 403.427 534.044 403.781C534.158 404.491 534.633 405.084 534.587 405.808C534.518 406.851 533.435 407.343 533.369 408.387C533.36 408.909 533.563 409.414 533.936 409.794Z" fill="#1A2B4A"/>
<path d="M527.493 392.067L527.509 392.064C527.624 391.959 527.728 391.848 527.826 391.73L527.493 392.067Z" fill="#1A2B4A"/>
<path d="M528.622 396.963C529.073 396.579 529.407 396.084 529.587 395.532C529.767 394.98 529.786 394.387 529.642 393.825C529.368 392.64 528.402 391.842 527.509 392.061C527.251 392.313 526.93 392.498 526.576 392.599C526.223 392.7 525.847 392.71 525.487 392.633C524.937 392.498 524.332 392.145 523.854 392.545C523.579 392.845 523.386 393.205 523.295 393.596C523.118 394.118 522.941 394.643 522.765 395.165C522.679 395.354 522.66 395.562 522.702 395.761C522.735 395.842 522.791 395.912 522.859 395.966C522.931 396.02 523.013 396.057 523.105 396.071C524.165 396.374 525.228 396.673 526.289 396.976C526.655 397.138 527.054 397.222 527.457 397.219C527.859 397.215 528.255 397.128 528.622 396.963Z" fill="#1A2B4A"/>
<path d="M608.808 464.583C608.317 463.805 607.826 463.031 607.335 462.256C606.854 461.357 606.193 460.559 605.395 459.906C605.218 459.765 605.015 459.657 604.796 459.593C604.577 459.526 604.348 459.505 604.119 459.526C603.89 459.549 603.67 459.613 603.468 459.721C603.265 459.825 603.088 459.97 602.947 460.142L603.006 460.586C604.322 461.943 605.215 463.63 605.591 465.452C605.706 466.246 605.666 467.064 605.765 467.862C605.774 468.229 605.859 468.593 606.016 468.93C606.174 469.266 606.396 469.573 606.674 469.825C607.446 470.324 608.356 469.59 608.906 468.694C609.397 467.957 609.616 467.081 609.531 466.209C609.41 465.627 609.161 465.071 608.808 464.583Z" fill="#1A2B4A"/>
<path d="M616.51 465.589C616.605 464.865 616.543 464.127 616.33 463.424C616.297 462.474 616.556 461.538 617.079 460.73C617.599 459.972 617.995 459.137 618.247 458.262C618.355 457.861 618.336 457.44 618.192 457.05C618.031 456.7 617.635 456.538 617.41 456.817L617.894 457.117C617.243 457.006 616.572 457.036 615.934 457.208C615.567 457.343 615.244 457.562 614.985 457.841C614.727 458.124 614.543 458.461 614.445 458.824C614.367 459.393 614.236 459.956 614.056 460.501C613.768 461.073 613.212 461.262 612.861 461.764C612.623 462.208 612.502 462.703 612.508 463.205C612.518 463.706 612.655 464.198 612.911 464.632C613.349 465.346 614.049 465.878 614.874 466.124C615.463 466.326 616.241 466.339 616.51 465.589Z" fill="#1A2B4A"/>
<path d="M630.226 469.583C630.439 470.118 630.727 470.623 631.077 471.088C631.735 471.724 632.625 471.334 633.423 471.179C634.146 471.068 634.886 471.148 635.566 471.411C636.244 471.674 636.836 472.108 637.281 472.67C636.973 471.182 636.299 469.792 635.314 468.61C634.333 467.425 633.07 466.489 631.633 465.872C629.765 465.249 627.798 464.953 625.825 464.997L625.485 465.081C626.346 467.495 629.045 467.441 630.226 469.583Z" fill="#1A2B4A"/>
<path d="M572.131 474.519L572.137 474.53L572.236 474.347L572.131 474.519Z" fill="#1A2B4A"/>
<path d="M570.05 478.4C569.598 479.195 569.209 480.023 568.885 480.875C568.456 482.255 568.171 483.673 568.037 485.107C567.932 485.922 567.9 486.966 568.43 487.363C568.58 487.457 568.764 487.501 568.947 487.477C569.127 487.45 569.294 487.366 569.411 487.232C569.706 486.932 569.948 486.589 570.125 486.211C571.165 484.481 571.973 482.629 572.53 480.703C573.112 478.659 572.971 476.487 572.137 474.528C571.44 475.817 570.746 477.11 570.05 478.4Z" fill="#1A2B4A"/>
<path d="M549.975 374.908C550.306 375.221 550.725 375.433 551.179 375.517C551.631 375.601 552.102 375.558 552.531 375.389C553.414 375.016 554.229 374.497 554.932 373.857C555.515 373.443 556.009 372.921 556.389 372.325C556.598 371.972 556.732 371.578 556.781 371.17C556.833 370.766 556.801 370.352 556.686 369.958C556.523 369.581 556.264 369.251 555.93 368.999C555.6 368.743 555.204 368.574 554.785 368.51C553.607 368.174 552.429 367.837 551.248 367.497L552.102 366.756C551.225 366.302 550.253 367.147 549.704 368.191C549.354 368.871 549.108 369.598 548.977 370.349C548.791 371.133 548.784 371.948 548.958 372.736C549.128 373.524 549.478 374.265 549.975 374.908Z" fill="#1A2B4A"/>
<path d="M570.792 368.171C571.123 368.525 571.584 368.74 572.075 368.781C572.569 368.818 573.06 368.676 573.446 368.38C573.78 368.137 574.054 367.831 574.257 367.478C574.46 367.127 574.585 366.74 574.621 366.34C574.702 365.444 574.244 364.451 573.59 364.373L573.74 363.535C572.477 363.316 570.926 363.272 570.249 364.75C570.023 365.316 569.951 365.929 570.046 366.528C570.141 367.131 570.4 367.696 570.792 368.171Z" fill="#1A2B4A"/>
<path d="M758.924 307.148H326.348C326.052 307.141 325.77 307.023 325.562 306.819C325.355 306.615 325.239 306.34 325.239 306.054C325.239 305.768 325.355 305.493 325.562 305.289C325.77 305.085 326.052 304.967 326.348 304.96H758.924C759.219 304.967 759.5 305.085 759.71 305.289C759.916 305.493 760.033 305.768 760.033 306.054C760.033 306.34 759.916 306.615 759.71 306.819C759.5 307.023 759.219 307.141 758.924 307.148Z" fill="#CACACA"/>
<path d="M351.314 291.836C358.054 291.836 363.515 286.45 363.515 279.806C363.515 273.162 358.054 267.775 351.314 267.775C344.576 267.775 339.112 273.162 339.112 279.806C339.112 286.45 344.576 291.836 351.314 291.836Z" fill="#2E2C46"/>
<path d="M393.465 291.836C400.206 291.836 405.667 286.45 405.667 279.806C405.667 273.162 400.206 267.775 393.465 267.775C386.728 267.775 381.263 273.162 381.263 279.806C381.263 286.45 386.728 291.836 393.465 291.836Z" fill="#2E2C46"/>
<path d="M435.619 291.836C442.356 291.836 447.821 286.45 447.821 279.806C447.821 273.162 442.356 267.775 435.619 267.775C428.879 267.775 423.417 273.162 423.417 279.806C423.417 286.45 428.879 291.836 435.619 291.836Z" fill="#2E2C46"/>
<path d="M733.664 270.757H703.721C703.128 270.769 702.562 271.004 702.147 271.413C701.731 271.822 701.499 272.371 701.499 272.944C701.499 273.517 701.731 274.066 702.147 274.475C702.562 274.884 703.128 275.119 703.721 275.13H733.664C734.256 275.119 734.822 274.884 735.237 274.475C735.653 274.066 735.885 273.517 735.885 272.944C735.885 272.371 735.653 271.822 735.237 271.413C734.822 271.004 734.256 270.769 733.664 270.757Z" fill="#2E2C46"/>
<path d="M733.664 278.965H703.721C703.128 278.976 702.562 279.212 702.147 279.62C701.731 280.029 701.499 280.579 701.499 281.151C701.499 281.724 701.731 282.274 702.147 282.682C702.562 283.091 703.128 283.327 703.721 283.338H733.664C734.256 283.327 734.822 283.091 735.237 282.682C735.653 282.274 735.885 281.724 735.885 281.151C735.885 280.579 735.653 280.029 735.237 279.62C734.822 279.212 734.256 278.976 733.664 278.965Z" fill="#2E2C46"/>
<path d="M733.664 287.162H703.721C703.128 287.174 702.562 287.409 702.147 287.818C701.731 288.227 701.499 288.776 701.499 289.349C701.499 289.921 701.731 290.471 702.147 290.88C702.562 291.289 703.128 291.524 703.721 291.536H733.664C734.256 291.524 734.822 291.289 735.237 290.88C735.653 290.471 735.885 289.921 735.885 289.349C735.885 288.776 735.653 288.227 735.237 287.818C734.822 287.409 734.256 287.174 733.664 287.162Z" fill="#2E2C46"/>
<g opacity="0.35">
<path d="M770.383 440.259C777.346 437.33 763.227 435.626 747.207 435.067C731.187 434.505 711.809 434.535 701.571 432.943C691.67 431.401 692.399 428.66 691.568 426.179C690.734 423.694 686.928 421.148 671.478 420.596C652.228 419.906 620.479 422.556 605.948 420.966C592.385 419.482 600.447 414.828 580.671 414.65C569.379 414.549 554.831 416.084 542.266 416.455C533.36 416.825 524.437 416.377 515.618 415.115C509.493 414.145 505.226 412.919 498.335 412.064C480.237 409.822 444.833 410.576 413.232 413.451C381.633 416.327 354.543 421.04 339.269 425.707C323.992 430.377 319.771 434.973 323.33 438.872C325.602 441.36 331.416 443.687 345.522 444.687C371.905 446.559 418.876 443.34 446.136 445.041C461.331 445.99 468.072 448.34 481.402 449.63C495.724 451.01 516.692 451.084 537.293 451.051C580.183 450.983 624.17 450.559 669.024 449.778C687.76 449.455 707.389 449.03 727.326 447.478C747.262 445.926 767.595 442.933 771.8 440.128" fill="white"/>
</g>
</g>
</svg>
