<svg width="288" height="512" viewBox="0 0 288 512" fill="none" xmlns="http://www.w3.org/2000/svg">
<path d="M285.408 199.303C282.464 194.727 277.408 192.007 272 192.007H160V16.007C160 8.45498 154.72 1.92698 147.328 0.358984C139.808 -1.24102 132.448 2.63098 129.376 9.51098L1.37622 297.511C-0.831784 302.439 -0.35178 308.199 2.59222 312.711C5.53622 317.255 10.5922 320.007 16.0002 320.007H128V496.007C128 503.559 133.28 510.087 140.672 511.655C141.792 511.879 142.912 512.007 144 512.007C150.208 512.007 156 508.391 158.624 502.503L286.624 214.503C288.8 209.543 288.384 203.847 285.408 199.303Z" fill="#FF822D"/>
</svg>
