<svg width="21" height="16" viewBox="0 0 21 16" fill="none" xmlns="http://www.w3.org/2000/svg">
<path d="M19.3 1.6H0.7C0.3 1.6 0 1.3 0 0.8C0 0.3 0.3 0 0.8 0H19.3C19.7 0 20.1 0.3 20.1 0.8C20.1 1.3 19.7 1.6 19.3 1.6Z" fill="black"/>
<path d="M19.3 8.6H0.7C0.3 8.6 0 8.3 0 7.8C0 7.3 0.3 7 0.8 7H19.3C19.7 7 20.1 7.3 20.1 7.8C20.1 8.3 19.7 8.6 19.3 8.6Z" fill="black"/>
<path d="M19.3 15.6H0.7C0.3 15.6 0 15.3 0 14.8C0 14.3 0.3 14 0.8 14H19.3C19.7 14 20.1 14.3 20.1 14.8C20.1 15.3 19.7 15.6 19.3 15.6Z" fill="black"/>
</svg>
