<svg width="1500" height="1053" viewBox="0 0 1500 1053" fill="none" xmlns="http://www.w3.org/2000/svg">
<path d="M1158.02 1048.92L1158.05 1047.52C1158.68 1024.18 1164.39 1001.26 1174.77 980.345C1185.16 959.432 1199.97 941.03 1218.19 926.42C1228.47 918.306 1239.73 911.52 1251.71 906.22L1252.85 905.711L1253.05 906.945C1255.37 921.684 1259.04 936.726 1260.75 943.403L1272.22 898.642L1273.5 898.274C1279.34 896.558 1285.57 896.632 1291.37 898.486C1297.17 900.34 1302.29 903.889 1306.05 908.676C1309.98 913.464 1312.39 919.32 1312.97 925.488C1313.54 931.657 1312.25 937.856 1309.27 943.287C1306.6 948.269 1303.97 953.467 1301.43 958.493C1292.69 975.765 1283.66 993.626 1270.5 1007.5C1260.43 1017.91 1248.17 1025.93 1234.61 1030.99C1221.04 1036.05 1206.52 1038.02 1192.1 1036.75L1158.02 1048.92Z" fill="#F2F2F2"/>
<path d="M809.273 640.17H513.155C502.505 640.158 492.295 635.922 484.764 628.391C477.234 620.861 472.998 610.65 472.986 600V183.429C473.04 134.797 492.383 88.1734 526.771 53.7858C561.158 19.3982 607.782 0.0550281 656.414 0H809.274C819.924 0.0120247 830.134 4.24797 837.664 11.7786C845.195 19.3091 849.431 29.5193 849.443 40.1692V600C849.431 610.65 845.195 620.861 837.664 628.391C830.134 635.922 819.923 640.158 809.273 640.17Z" fill="#F2F2F2"/>
<path d="M523.509 362.023C519.023 362.028 514.723 363.812 511.551 366.984C508.38 370.156 506.595 374.456 506.59 378.942V474.024C506.595 478.51 508.38 482.81 511.551 485.982C514.723 489.154 519.023 490.938 523.509 490.944H811.28C815.765 490.938 820.066 489.154 823.238 485.982C826.409 482.81 828.193 478.51 828.199 474.024V378.942C828.193 374.456 826.409 370.156 823.237 366.984C820.066 363.812 815.765 362.028 811.28 362.023L523.509 362.023Z" fill="white"/>
<path d="M811.973 300.336H524.203C519.35 300.33 514.697 298.4 511.266 294.968C507.834 291.537 505.904 286.884 505.898 282.031C505.932 251.969 517.89 223.148 539.147 201.891C560.404 180.634 589.225 168.677 619.287 168.643H811.974C816.827 168.648 821.48 170.578 824.912 174.01C828.343 177.442 830.274 182.094 830.279 186.947V282.03C830.274 286.883 828.343 291.536 824.911 294.968C821.48 298.4 816.827 300.33 811.973 300.336Z" fill="white"/>
<path d="M935.871 476.356H604.6C602.653 476.354 600.786 475.579 599.41 474.203C598.033 472.826 597.258 470.959 597.256 469.012V381.727C597.258 379.78 598.033 377.913 599.41 376.536C600.786 375.159 602.653 374.385 604.6 374.383H935.871C937.818 374.385 939.684 375.159 941.061 376.536C942.438 377.913 943.212 379.78 943.215 381.727V469.012C943.212 470.959 942.438 472.826 941.061 474.203C939.684 475.579 937.818 476.354 935.871 476.356Z" fill="white"/>
<path d="M935.87 477.743H604.6C602.285 477.74 600.066 476.819 598.429 475.183C596.793 473.546 595.872 471.327 595.869 469.012V381.727C595.872 379.412 596.793 377.193 598.429 375.557C600.066 373.92 602.285 372.999 604.6 372.997H935.87C938.185 372.999 940.404 373.92 942.041 375.557C943.677 377.193 944.598 379.412 944.601 381.727V469.012C944.598 471.327 943.677 473.546 942.041 475.183C940.404 476.819 938.185 477.74 935.87 477.743ZM604.6 375.769C603.02 375.771 601.506 376.399 600.389 377.516C599.272 378.633 598.644 380.148 598.642 381.727V469.012C598.644 470.592 599.272 472.106 600.389 473.223C601.506 474.34 603.02 474.968 604.6 474.97H935.87C937.45 474.968 938.964 474.34 940.081 473.223C941.198 472.106 941.826 470.592 941.828 469.012V381.727C941.826 380.148 941.198 378.633 940.081 377.516C938.964 376.399 937.45 375.771 935.87 375.769H604.6Z" fill="#CCCCCC"/>
<path d="M632.769 415.756C639.351 415.756 644.686 410.42 644.686 403.838C644.686 397.256 639.351 391.921 632.769 391.921C626.187 391.921 620.851 397.256 620.851 403.838C620.851 410.42 626.187 415.756 632.769 415.756Z" fill="#E6E6E6"/>
<path d="M916.068 433.87H624.4C623.933 433.871 623.471 433.78 623.039 433.602C622.608 433.424 622.216 433.163 621.885 432.833C621.555 432.503 621.293 432.112 621.114 431.681C620.935 431.25 620.843 430.788 620.843 430.321C620.843 429.854 620.935 429.392 621.114 428.961C621.293 428.53 621.555 428.138 621.885 427.808C622.216 427.479 622.608 427.218 623.039 427.04C623.471 426.862 623.933 426.771 624.4 426.772H916.068C916.535 426.771 916.997 426.862 917.429 427.04C917.86 427.218 918.253 427.479 918.583 427.808C918.913 428.138 919.176 428.53 919.354 428.961C919.533 429.392 919.625 429.854 919.625 430.321C919.625 430.788 919.533 431.25 919.354 431.681C919.176 432.112 918.913 432.503 918.583 432.833C918.253 433.163 917.86 433.424 917.429 433.602C916.997 433.78 916.535 433.871 916.068 433.87Z" fill="#E6E6E6"/>
<path d="M887.088 447.892H624.4C623.459 447.892 622.556 447.518 621.891 446.853C621.225 446.187 620.851 445.284 620.851 444.343C620.851 443.402 621.225 442.499 621.891 441.834C622.556 441.168 623.459 440.794 624.4 440.794H887.088C888.029 440.794 888.932 441.168 889.597 441.834C890.263 442.499 890.637 443.402 890.637 444.343C890.637 445.284 890.263 446.187 889.597 446.853C888.932 447.518 888.029 447.892 887.088 447.892Z" fill="#E6E6E6"/>
<path d="M591.717 1045.65L510.635 1013.33C508.828 1012.61 507.38 1011.2 506.611 1009.41C505.842 1007.62 505.814 1005.6 506.533 1003.79L629.189 696.064C629.911 694.256 631.322 692.808 633.111 692.039C634.9 691.27 636.92 691.242 638.73 691.961L719.812 724.279C721.619 725.002 723.067 726.412 723.836 728.201C724.605 729.99 724.633 732.011 723.914 733.82L601.259 1041.55C600.536 1043.35 599.125 1044.8 597.336 1045.57C595.548 1046.34 593.527 1046.37 591.717 1045.65Z" fill="white"/>
<path d="M591.203 1046.94L510.121 1014.62C507.972 1013.76 506.252 1012.08 505.337 1009.96C504.423 1007.83 504.389 1005.43 505.244 1003.28L627.9 695.549C628.759 693.4 630.436 691.68 632.563 690.765C634.689 689.851 637.091 689.817 639.242 690.672L720.324 722.99C722.473 723.85 724.194 725.526 725.108 727.653C726.022 729.779 726.056 732.181 725.201 734.333L602.545 1042.06C601.686 1044.21 600.009 1045.93 597.883 1046.84C595.756 1047.76 593.354 1047.79 591.203 1046.94ZM507.819 1004.3C507.236 1005.77 507.259 1007.41 507.883 1008.86C508.507 1010.31 509.681 1011.46 511.148 1012.04L592.23 1044.36C593.698 1044.94 595.337 1044.92 596.788 1044.3C598.239 1043.67 599.383 1042.5 599.97 1041.03L722.626 733.306C723.209 731.838 723.186 730.199 722.562 728.748C721.938 727.296 720.764 726.152 719.297 725.566L638.216 693.247C636.748 692.664 635.108 692.687 633.657 693.311C632.206 693.935 631.062 695.109 630.475 696.576L507.819 1004.3Z" fill="#CCCCCC"/>
<path d="M646.12 745.053C652.702 745.053 658.037 739.717 658.037 733.135C658.037 726.554 652.702 721.218 646.12 721.218C639.538 721.218 634.202 726.554 634.202 733.135C634.202 739.717 639.538 745.053 646.12 745.053Z" fill="#E6E6E6"/>
<path d="M564.511 1009.4C563.638 1009.05 562.938 1008.37 562.567 1007.51C562.195 1006.64 562.182 1005.67 562.529 1004.79L670.522 733.853C670.694 733.42 670.95 733.026 671.276 732.692C671.601 732.358 671.988 732.091 672.416 731.907C672.845 731.723 673.305 731.625 673.771 731.619C674.237 731.612 674.699 731.698 675.132 731.871C675.565 732.043 675.96 732.299 676.294 732.624C676.628 732.949 676.894 733.337 677.078 733.765C677.263 734.193 677.361 734.654 677.367 735.12C677.373 735.586 677.287 736.048 677.115 736.481L569.122 1007.42C568.773 1008.29 568.091 1008.99 567.227 1009.36C566.362 1009.74 565.386 1009.75 564.511 1009.4Z" fill="#E6E6E6"/>
<path d="M588.269 987.674C587.395 987.324 586.696 986.643 586.324 985.778C585.953 984.914 585.939 983.937 586.286 983.063L683.549 739.045C683.721 738.611 683.977 738.216 684.302 737.881C684.627 737.546 685.014 737.279 685.443 737.094C685.871 736.909 686.332 736.811 686.799 736.804C687.265 736.798 687.729 736.883 688.162 737.056C688.596 737.229 688.991 737.485 689.325 737.811C689.659 738.137 689.926 738.525 690.11 738.954C690.294 739.383 690.391 739.844 690.397 740.31C690.402 740.777 690.316 741.24 690.142 741.673L592.88 985.691C592.53 986.565 591.849 987.264 590.985 987.636C590.12 988.007 589.144 988.021 588.269 987.674Z" fill="#E6E6E6"/>
<path d="M791.284 82.3518C808.609 82.3518 822.654 68.3067 822.654 50.9812C822.654 33.6558 808.609 19.6107 791.284 19.6107C773.958 19.6107 759.913 33.6558 759.913 50.9812C759.913 68.3067 773.958 82.3518 791.284 82.3518Z" fill="white"/>
<path d="M806.729 49.7409H792.618V35.6298C792.619 35.4541 792.584 35.2799 792.518 35.1174C792.451 34.9548 792.353 34.807 792.229 34.6825C792.105 34.558 791.957 34.4592 791.795 34.3918C791.633 34.3244 791.459 34.2897 791.283 34.2897C791.107 34.2897 790.933 34.3244 790.771 34.3918C790.609 34.4592 790.461 34.558 790.337 34.6825C790.213 34.807 790.115 34.9548 790.048 35.1174C789.981 35.2799 789.947 35.4541 789.948 35.6298V49.7409H775.837C775.483 49.7409 775.143 49.8815 774.893 50.1319C774.643 50.3822 774.502 50.7218 774.502 51.0758C774.502 51.4299 774.643 51.7694 774.893 52.0198C775.143 52.2701 775.483 52.4107 775.837 52.4107H789.948V66.5221C789.947 66.6979 789.981 66.872 790.048 67.0346C790.115 67.1972 790.213 67.3449 790.337 67.4695C790.461 67.594 790.609 67.6927 790.771 67.7602C790.933 67.8276 791.107 67.8623 791.283 67.8623C791.459 67.8623 791.633 67.8276 791.795 67.7602C791.957 67.6927 792.105 67.594 792.229 67.4695C792.353 67.3449 792.451 67.1972 792.518 67.0346C792.584 66.872 792.619 66.6979 792.618 66.5221V52.4107H806.729C807.083 52.4107 807.423 52.2701 807.673 52.0198C807.923 51.7694 808.064 51.4299 808.064 51.0758C808.064 50.7218 807.923 50.3822 807.673 50.1319C807.423 49.8815 807.083 49.7409 806.729 49.7409Z" fill="#E6E6E6"/>
<path d="M1177.86 76.8293H1072.02C1065.13 76.8293 1058.53 74.0941 1053.66 69.2255C1048.79 64.3569 1046.06 57.7536 1046.06 50.8683C1046.06 43.983 1048.79 37.3798 1053.66 32.5111C1058.53 27.6425 1065.13 24.9073 1072.02 24.9073H1177.86C1184.74 24.9073 1191.35 27.6425 1196.22 32.5111C1201.08 37.3798 1203.82 43.983 1203.82 50.8683C1203.82 57.7536 1201.08 64.3569 1196.22 69.2255C1191.35 74.0941 1184.74 76.8293 1177.86 76.8293Z" fill="#24385D"/>
<path d="M816.221 40.1774L816.163 44.1713L1020.69 47.1259L1020.75 43.1319L816.221 40.1774Z" fill="#3F3D56"/>
<path d="M807.635 53.009C805.177 53.0147 802.803 52.1154 800.966 50.4829C799.13 48.8503 797.958 46.5987 797.675 44.1575C797.392 41.7163 798.018 39.2564 799.433 37.2471C800.848 35.2378 802.953 33.8197 805.347 33.2634C807.741 32.7071 810.255 33.0514 812.411 34.2307C814.567 35.41 816.214 37.3418 817.037 39.6575C817.86 41.9732 817.801 44.5107 816.872 46.786C815.944 49.0613 814.21 50.9152 812.002 51.9939C810.642 52.6587 809.148 53.0058 807.635 53.009ZM807.621 37.0242C806.319 37.0241 805.052 37.4478 804.013 38.2312C802.973 39.0146 802.216 40.1152 801.857 41.3666C801.498 42.618 801.557 43.9522 802.023 45.1676C802.489 46.3831 803.339 47.4137 804.443 48.1038C805.546 48.7939 806.845 49.1058 808.142 48.9926C809.439 48.8794 810.664 48.3472 811.631 47.4763C812.599 46.6055 813.257 45.4433 813.506 44.1654C813.754 42.8875 813.581 41.5634 813.01 40.3931C812.517 39.3839 811.75 38.5323 810.797 37.937C809.845 37.3416 808.744 37.0253 807.621 37.0242Z" fill="#3F3D56"/>
<path d="M194.885 110.778C194.893 103.895 197.63 97.2965 202.497 92.4295C207.364 87.5625 213.963 84.8249 220.846 84.8173H326.687C333.572 84.8173 340.175 87.5525 345.044 92.4211C349.913 97.2897 352.648 103.893 352.648 110.778C352.648 117.664 349.913 124.267 345.044 129.135C340.175 134.004 333.572 136.739 326.687 136.739H220.846C213.963 136.732 207.364 133.994 202.497 129.127C197.63 124.26 194.893 117.661 194.885 110.778Z" fill="#24385D"/>
<path d="M582.487 100.094L377.956 103.047L378.013 107.041L582.545 104.088L582.487 100.094Z" fill="#3F3D56"/>
<path d="M220.001 595.964C220.009 589.081 222.746 582.482 227.613 577.615C232.48 572.748 239.079 570.01 245.962 570.003H351.803C358.688 570.003 365.291 572.738 370.16 577.606C375.029 582.475 377.764 589.078 377.764 595.964C377.764 602.849 375.029 609.452 370.16 614.321C365.291 619.189 358.688 621.925 351.803 621.925H245.962C239.079 621.917 232.48 619.179 227.613 614.312C222.746 609.445 220.009 602.847 220.001 595.964Z" fill="#24385D"/>
<path d="M607.603 585.279L403.072 588.233L403.13 592.227L607.661 589.273L607.603 585.279Z" fill="#3F3D56"/>
<path d="M1417.66 290.962C1417.66 297.845 1414.92 304.444 1410.05 309.311C1405.19 314.178 1398.59 316.915 1391.7 316.923H1285.86C1278.98 316.923 1272.37 314.188 1267.51 309.319C1262.64 304.45 1259.9 297.847 1259.9 290.962C1259.9 284.077 1262.64 277.473 1267.51 272.605C1272.37 267.736 1278.98 265.001 1285.86 265.001H1391.7C1398.59 265.009 1405.19 267.746 1410.05 272.613C1414.92 277.48 1417.66 284.079 1417.66 290.962Z" fill="#24385D"/>
<path d="M1030.06 301.646L1234.59 298.693L1234.54 294.699L1030 297.652L1030.06 301.646Z" fill="#3F3D56"/>
<path d="M586.702 111.904C584.516 110.831 582.801 108.991 581.884 106.734C580.967 104.478 580.912 101.964 581.729 99.6696C582.547 97.3755 584.18 95.4624 586.317 94.2947C588.455 93.1271 590.947 92.7865 593.319 93.3378C595.691 93.8891 597.777 95.2939 599.181 97.2844C600.584 99.2749 601.206 101.712 600.928 104.132C600.65 106.551 599.491 108.784 597.673 110.404C595.855 112.025 593.505 112.92 591.069 112.919C589.555 112.918 588.061 112.571 586.702 111.904ZM589.127 97.2637C588.382 97.518 587.695 97.9175 587.106 98.439C586.517 98.9606 586.037 99.5938 585.694 100.302C585.084 101.551 584.926 102.973 585.247 104.326C585.568 105.678 586.348 106.877 587.454 107.718C588.56 108.559 589.923 108.991 591.312 108.939C592.701 108.888 594.029 108.356 595.069 107.435C596.11 106.514 596.799 105.26 597.018 103.888C597.238 102.516 596.975 101.11 596.274 99.9098C595.573 98.7098 594.477 97.7902 593.174 97.3077C591.871 96.8251 590.44 96.8096 589.127 97.2637Z" fill="#3F3D56"/>
<path d="M186.898 895.599C186.906 888.716 189.643 882.117 194.51 877.25C199.377 872.383 205.976 869.645 212.859 869.638H318.7C325.585 869.638 332.188 872.373 337.057 877.242C341.926 882.11 344.661 888.713 344.661 895.599C344.661 902.484 341.926 909.087 337.057 913.956C332.188 918.824 325.585 921.56 318.7 921.56H212.859C205.976 921.552 199.377 918.814 194.51 913.947C189.643 909.08 186.906 902.482 186.898 895.599Z" fill="#24385D"/>
<path d="M574.496 884.917L369.965 887.87L370.023 891.864L574.554 888.91L574.496 884.917Z" fill="#3F3D56"/>
<path d="M578.715 896.723C576.529 895.65 574.814 893.81 573.897 891.554C572.98 889.298 572.925 886.783 573.742 884.489C574.56 882.195 576.193 880.282 578.33 879.114C580.467 877.946 582.959 877.606 585.332 878.157C587.704 878.708 589.79 880.113 591.193 882.104C592.597 884.094 593.219 886.531 592.941 888.951C592.663 891.37 591.504 893.603 589.686 895.224C587.868 896.844 585.518 897.739 583.082 897.738C581.568 897.738 580.074 897.39 578.715 896.723ZM581.14 882.083C580.395 882.337 579.708 882.737 579.119 883.258C578.53 883.78 578.05 884.413 577.707 885.121C577.097 886.37 576.939 887.793 577.26 889.145C577.581 890.497 578.36 891.696 579.467 892.537C580.573 893.379 581.936 893.81 583.325 893.759C584.714 893.707 586.042 893.175 587.082 892.254C588.123 891.333 588.812 890.079 589.031 888.707C589.251 887.335 588.988 885.929 588.287 884.729C587.586 883.529 586.49 882.609 585.187 882.127C583.884 881.644 582.453 881.629 581.14 882.083Z" fill="#3F3D56"/>
<path d="M214.854 400.343C214.862 393.46 217.6 386.861 222.467 381.994C227.334 377.127 233.933 374.389 240.815 374.382H346.656C353.542 374.382 360.145 377.117 365.013 381.985C369.882 386.854 372.617 393.457 372.617 400.343C372.617 407.228 369.882 413.831 365.013 418.7C360.145 423.568 353.542 426.304 346.656 426.304H240.815C233.933 426.296 227.334 423.558 222.467 418.691C217.6 413.824 214.862 407.225 214.854 400.343Z" fill="#24385D"/>
<path d="M602.455 389.659L397.924 392.613L397.982 396.607L602.513 393.653L602.455 389.659Z" fill="#3F3D56"/>
<path d="M606.671 401.468C604.485 400.395 602.77 398.555 601.853 396.299C600.936 394.043 600.881 391.528 601.699 389.234C602.517 386.94 604.15 385.027 606.287 383.859C608.424 382.691 610.916 382.351 613.288 382.902C615.66 383.453 617.747 384.858 619.15 386.849C620.553 388.839 621.175 391.276 620.897 393.696C620.619 396.115 619.461 398.348 617.643 399.969C615.825 401.589 613.474 402.484 611.039 402.483C609.525 402.483 608.031 402.135 606.671 401.468ZM609.097 386.828C608.352 387.082 607.665 387.482 607.076 388.003C606.486 388.525 606.006 389.158 605.663 389.866C605.053 391.115 604.895 392.538 605.216 393.89C605.537 395.242 606.317 396.441 607.423 397.282C608.529 398.124 609.893 398.555 611.282 398.504C612.67 398.452 613.998 397.92 615.039 396.999C616.079 396.078 616.768 394.824 616.988 393.452C617.208 392.08 616.944 390.674 616.243 389.474C615.542 388.274 614.447 387.354 613.144 386.872C611.84 386.389 610.41 386.374 609.097 386.828Z" fill="#3F3D56"/>
<path d="M1149.9 242.58H1044.06C1037.17 242.58 1030.57 239.845 1025.7 234.976C1020.83 230.108 1018.1 223.504 1018.1 216.619C1018.1 209.734 1020.83 203.131 1025.7 198.262C1030.57 193.393 1037.17 190.658 1044.06 190.658H1149.9C1156.79 190.658 1163.39 193.393 1168.26 198.262C1173.13 203.131 1175.86 209.734 1175.86 216.619C1175.86 223.504 1173.13 230.108 1168.26 234.976C1163.39 239.845 1156.79 242.58 1149.9 242.58Z" fill="#24385D"/>
<path d="M788.262 205.928L788.204 209.922L992.735 212.877L992.792 208.883L788.262 205.928Z" fill="#3F3D56"/>
<path d="M779.678 218.759C777.22 218.765 774.847 217.866 773.01 216.233C771.173 214.601 770.001 212.349 769.718 209.908C769.436 207.466 770.061 205.007 771.476 202.997C772.891 200.988 774.996 199.57 777.39 199.014C779.784 198.457 782.299 198.802 784.455 199.981C786.611 201.16 788.257 203.092 789.08 205.408C789.903 207.723 789.844 210.261 788.916 212.536C787.987 214.812 786.253 216.665 784.045 217.744C782.685 218.409 781.192 218.756 779.678 218.759ZM779.664 202.774C778.362 202.774 777.096 203.198 776.056 203.981C775.016 204.765 774.26 205.865 773.901 207.117C773.542 208.368 773.6 209.702 774.066 210.918C774.533 212.133 775.382 213.164 776.486 213.854C777.59 214.544 778.888 214.856 780.185 214.743C781.482 214.63 782.707 214.097 783.675 213.227C784.642 212.356 785.3 211.193 785.549 209.916C785.798 208.638 785.624 207.314 785.053 206.143C784.56 205.134 783.793 204.283 782.841 203.687C781.888 203.092 780.787 202.776 779.664 202.774Z" fill="#3F3D56"/>
<path d="M1206.5 538.287L1175.76 539.65C1168.83 558.489 1173.74 604.223 1173.74 604.223L1157.59 679.378C1155.9 681.062 1154.68 683.161 1154.06 685.466C1153.44 687.77 1153.44 690.197 1154.05 692.503C1154.66 694.809 1155.88 696.913 1157.56 698.602C1159.25 700.291 1161.35 701.507 1163.65 702.126C1165.96 702.745 1168.39 702.746 1170.69 702.129C1173 701.511 1175.1 700.298 1176.79 698.61C1178.47 696.922 1179.69 694.819 1180.3 692.513C1180.92 690.208 1180.92 687.78 1180.3 685.476L1213.09 595.356L1206.5 538.287Z" fill="#FFB6B6"/>
<path d="M1186.05 456.089C1190.82 455.932 1195.57 456.828 1199.95 458.713C1204.33 460.598 1208.24 463.425 1211.41 466.994C1214.58 470.564 1216.92 474.787 1218.26 479.363C1219.61 483.94 1219.94 488.757 1219.21 493.473L1216.26 512.675C1216.26 512.675 1224.7 578.046 1214.41 595.837L1194.76 649.022L1162.72 647.383L1171.58 589.304C1171.58 589.304 1173.82 560.558 1165.64 548.398C1160.63 540.95 1155.54 512.924 1154.67 489.508C1154.53 485.252 1155.23 481.01 1156.74 477.026C1158.24 473.042 1160.51 469.393 1163.43 466.289C1166.34 463.185 1169.84 460.686 1173.72 458.936C1177.61 457.185 1181.8 456.218 1186.05 456.089Z" fill="#3F3D56"/>
<path d="M1163.84 1027.64L1143.88 1027.64L1134.38 950.643H1163.85L1163.84 1027.64Z" fill="#FFB6B6"/>
<path d="M1164.54 1048.46L1103.16 1048.46V1047.69C1103.16 1041.35 1105.68 1035.27 1110.16 1030.79C1114.64 1026.31 1120.71 1023.79 1127.05 1023.79L1138.27 1015.29L1159.19 1023.79L1164.54 1023.79L1164.54 1048.46Z" fill="#2F2E41"/>
<path d="M1091.71 1027.64L1071.75 1027.64L1062.26 950.643H1091.72L1091.71 1027.64Z" fill="#FFB6B6"/>
<path d="M1092.42 1048.46L1031.03 1048.46V1047.69C1031.03 1041.35 1033.55 1035.27 1038.03 1030.79C1042.51 1026.31 1048.59 1023.79 1054.93 1023.79L1066.14 1015.29L1087.06 1023.79L1092.42 1023.79L1092.42 1048.46Z" fill="#2F2E41"/>
<path d="M1019.23 817.813C1031.09 855.579 1035.64 885.208 1044.67 922.603C1048.24 929.168 1063.6 983.719 1063.6 983.719C1063.6 983.719 1086.62 986.245 1094.76 979.802C1102.9 973.36 1094.51 941.478 1094.51 941.478C1099.88 917.374 1086.65 879.396 1085.86 856.027C1087.49 846.22 1078.86 837.801 1078.07 828.448C1083.78 824.105 1111.54 755.963 1117.2 736.922C1114.29 794.941 1139.81 927.414 1126.36 971.423C1118.55 996.992 1136.71 991.309 1163.61 992.545C1175.6 988.983 1170.72 968.458 1170.72 968.458C1170.72 968.458 1178.86 954.901 1178.86 949.644C1184.69 925.045 1191.7 871.536 1189.78 859.511C1190.66 846.747 1191.09 719.229 1200.84 674.564C1207.34 638.984 1127.71 631.152 1104.82 622.668C1066.61 604.259 1073.05 630.431 1052.93 654.541C1033.53 696.101 1022.1 770.316 1019.23 817.813Z" fill="#2F2E41"/>
<path d="M1108.43 443.784L1131.64 417.646L1168.32 421.721L1191.8 454.586C1217.76 460.559 1222.54 481.779 1217.99 508.019C1208.87 560.493 1186.38 597.173 1196.6 623.064C1212.13 662.366 1204.6 692.609 1167.44 687.099C1130.29 681.589 1044.66 645.202 1068.8 621.067C1092.93 596.932 1071.35 584.28 1071.35 584.28L1088.3 492.011C1083.96 468.48 1084.63 446.247 1108.43 443.784Z" fill="#3F3D56"/>
<path d="M1111.41 526.617L1082.16 517.074C1069.04 532.269 1057.54 576.805 1057.54 576.805L1015.97 641.468C1013.8 642.449 1011.92 643.986 1010.53 645.923C1009.13 647.861 1008.28 650.132 1008.04 652.507C1007.8 654.882 1008.2 657.277 1009.18 659.452C1010.16 661.626 1011.7 663.503 1013.64 664.894C1015.58 666.284 1017.85 667.14 1020.23 667.373C1022.6 667.607 1025 667.211 1027.17 666.224C1029.34 665.238 1031.22 663.697 1032.61 661.756C1034 659.814 1034.85 657.542 1035.08 655.166L1097.5 582.355L1111.41 526.617Z" fill="#FFB6B6"/>
<path d="M1121.2 442.481C1125.71 444.012 1129.84 446.52 1133.28 449.827C1136.72 453.133 1139.39 457.157 1141.09 461.612C1142.8 466.067 1143.5 470.844 1143.16 475.602C1142.81 480.36 1141.41 484.983 1139.08 489.142L1129.55 506.077C1129.55 506.077 1114.45 570.238 1098.55 583.266L1061.45 626.137L1032.03 613.326L1060.77 562.08C1060.77 562.08 1072.98 535.96 1069.6 521.699C1067.53 512.966 1072.63 484.941 1080.06 462.717C1081.43 458.684 1083.58 454.961 1086.39 451.761C1089.2 448.56 1092.61 445.946 1096.43 444.066C1100.25 442.186 1104.41 441.079 1108.66 440.807C1112.9 440.535 1117.17 441.103 1121.2 442.481Z" fill="#3F3D56"/>
<path d="M1158.89 412.074C1179.83 412.074 1196.8 395.098 1196.8 374.158C1196.8 353.217 1179.83 336.242 1158.89 336.242C1137.95 336.242 1120.97 353.217 1120.97 374.158C1120.97 395.098 1137.95 412.074 1158.89 412.074Z" fill="#FFB6B6"/>
<path d="M1125.88 340.041C1126.44 336.891 1127.71 333.909 1129.59 331.316C1130.53 330.193 1131.7 329.282 1133.03 328.642C1134.35 328.002 1135.79 327.649 1137.26 327.604C1138.72 327.56 1140.18 327.825 1141.54 328.383C1142.9 328.941 1144.12 329.78 1145.13 330.843C1144.54 329.12 1144.37 327.28 1144.63 325.476C1147.4 326.804 1150.36 327.685 1153.41 328.086L1146.68 321.061C1160.5 314.919 1171.92 315.251 1180.17 324.139C1182.53 326.683 1187.37 324.906 1189.9 327.532C1192.44 330.158 1192.58 335.763 1189.37 337.227C1195.7 334.846 1202.96 338.302 1207.13 344.092C1211.3 349.881 1212.83 357.518 1213.11 364.927C1213.48 374.534 1211.69 384.762 1205.83 391.835C1201.99 396.46 1196.76 399.345 1192.52 403.506L1192.39 403.631C1187.74 408.398 1181.92 411.85 1175.5 413.637C1169.09 415.424 1162.32 415.481 1155.87 413.804C1155.15 413.605 1154.43 413.384 1153.71 413.178C1150.1 414.811 1145.61 412.579 1143.33 408.949C1140.9 405.079 1140.42 400.126 1140.32 395.409C1140.18 389.24 1140.56 383.071 1141.45 376.965C1142.46 370.089 1143.36 361.283 1137.92 357.829C1133.68 355.14 1128.41 357.794 1124.14 360.427C1123.73 353.583 1124.32 346.716 1125.88 340.041Z" fill="#2F2E41"/>
<path d="M1497.62 1051.63L2.37092 1052.24C1.74148 1052.24 1.13846 1051.99 0.694025 1051.54C0.249589 1051.1 0 1050.49 0 1049.86C0 1049.23 0.249589 1048.63 0.694025 1048.18C1.13846 1047.74 1.74148 1047.49 2.37092 1047.48L1497.62 1046.87C1498.25 1046.87 1498.86 1047.12 1499.3 1047.57C1499.75 1048.01 1500 1048.62 1500 1049.25C1500 1049.88 1499.75 1050.48 1499.3 1050.93C1498.86 1051.38 1498.25 1051.63 1497.62 1051.63Z" fill="#CACACA"/>
</svg>
